<?xml version="1.0" encoding="UTF-8" standalone="no"?>
<svg width="24px" height="24px" viewBox="0 0 24 24" version="1.1" xmlns="http://www.w3.org/2000/svg" xmlns:xlink="http://www.w3.org/1999/xlink" xmlns:sketch="http://www.bohemiancoding.com/sketch/ns">
    <title>Artboard 1</title>
    <description>Created with Sketch (http://www.bohemiancoding.com/sketch)</description>
    <defs></defs>
    <g id="Page-1" stroke="none" stroke-width="1" fill="none" fill-rule="evenodd" sketch:type="MSPage">
        <g id="Artboard-1" sketch:type="MSArtboardGroup" fill="#000000">
            <path d="M6.93464124,20.9203543 C7.7600682,21.0895154 8.51016483,20.5692246 8.61002895,19.7582523 L10.3837452,5.35433409 C10.4836093,4.54336181 9.89542439,3.74880674 9.06999743,3.57964567 C8.24457047,3.4104846 7.49447385,3.93077538 7.39460972,4.74174766 L5.62089351,19.1456659 C5.52102939,19.9566382 6.10921428,20.7511933 6.93464124,20.9203543 Z" id="Line" sketch:type="MSShapeGroup" transform="translate(8.002319, 12.250000) rotate(2.000000) translate(-8.002319, -12.250000) "></path>
            <path d="M14.4924728,21.0220637 C15.3208491,21.163198 16.0502462,20.6158547 16.1216269,19.7995382 L17.3899485,5.29488762 C17.4613292,4.47857112 16.847663,3.70240391 16.0192867,3.56126962 C15.1909104,3.42013534 14.4615132,3.96747866 14.3901325,4.78379515 L13.1218109,19.2884457 C13.0504303,20.1047622 13.6640965,20.8809294 14.4924728,21.0220637 Z" id="Line-copy" sketch:type="MSShapeGroup" transform="translate(15.255880, 12.291667) rotate(2.000000) translate(-15.255880, -12.291667) "></path>
            <path d="M2.86412724,9.3946859 C2.95260328,10.2229238 3.69452044,10.8799916 4.52124561,10.8622879 L19.4939311,10.541658 C20.3206563,10.5239542 20.9191254,9.838183 20.8306494,9.00994506 C20.7421733,8.18170713 20.0002562,7.52463935 19.173531,7.54234311 L4.20084552,7.86297297 C3.37412036,7.88067673 2.7756512,8.56644796 2.86412724,9.3946859 Z" id="Line-copy" sketch:type="MSShapeGroup" transform="translate(11.847388, 9.202315) rotate(2.000000) translate(-11.847388, -9.202315) "></path>
            <path d="M2.5855024,16.2859816 C2.6812905,17.1140304 3.42847435,17.7650042 4.25438424,17.7399722 L19.0860884,17.2904476 C19.9119983,17.2654156 20.503879,16.573857 20.4080909,15.7458081 C20.3123028,14.9177593 19.5651189,14.2667855 18.739209,14.2918175 L3.90750484,14.7413421 C3.08159496,14.7663741 2.4897143,15.4579327 2.5855024,16.2859816 Z" id="Line-copy-2" sketch:type="MSShapeGroup" transform="translate(11.496797, 16.015895) rotate(2.000000) translate(-11.496797, -16.015895) "></path>
        </g>
    </g>
</svg>