<svg width="179" height="23" viewBox="0 0 179 23" version="1.1" xmlns="http://www.w3.org/2000/svg" xmlns:xlink="http://www.w3.org/1999/xlink"><!--Generator: Sketch 41 (35326) - http://www.bohemiancoding.com/sketch--><desc>Created with Sketch.</desc><defs><path id="a" d="M25.93.696H0v21.892h25.93V.696z"></path><path id="c" d="M25.967.696H.035v21.892h25.932V.696z"></path><path id="e" d="M0 23.304h178.06V1.41H0z"></path></defs><g transform="translate(0 -1)" stroke="none" stroke-width="1" fill="none" fill-rule="evenodd"><g transform="translate(0 .715)"><mask id="b" fill="#fff"><use xlink:href="#a"></use></mask><g></g><path d="M5.464 1.397c-1.075.465-2.03 1.11-2.84 1.922-.81.81-1.458 1.765-1.924 2.84C.236 7.237 0 8.4 0 9.625v4.037c0 1.222.236 2.39.7 3.464.466 1.076 1.113 2.032 1.923 2.84.81.813 1.766 1.46 2.84 1.924 1.078.464 2.243.7 3.464.7H25.93v-3.045H8.928c-.816 0-1.584-.154-2.287-.458-.703-.303-1.332-.73-1.87-1.268-.537-.537-.964-1.166-1.27-1.87-.3-.7-.455-1.468-.455-2.286V9.625c0-.8.154-1.565.458-2.275.303-.712.73-1.346 1.267-1.883.538-.538 1.167-.965 1.87-1.27.704-.302 1.472-.455 2.287-.455H25.93V.696H8.928c-1.22 0-2.386.235-3.463.7" fill="#0E2C7D" mask="url(#b)"></path></g><g transform="translate(28.235 .715)"><mask id="d" fill="#fff"><use xlink:href="#c"></use></mask><g></g><path d="M5.5 1.397c-1.076.465-2.03 1.11-2.842 1.922-.81.81-1.457 1.765-1.922 2.84-.465 1.076-.7 2.24-.7 3.464v4.037c0 1.222.235 2.39.7 3.464.465 1.076 1.112 2.032 1.922 2.84.81.813 1.766 1.46 2.84 1.924 1.078.464 2.243.7 3.464.7h17.005v-3.045H8.962c-.816 0-1.584-.154-2.287-.458-.703-.303-1.33-.73-1.87-1.268-.537-.537-.964-1.166-1.27-1.87-.3-.7-.455-1.468-.455-2.286v-.496h22.887V10.12H3.08v-.496c0-.8.154-1.565.458-2.275.303-.712.73-1.346 1.268-1.883.538-.538 1.166-.965 1.87-1.27.703-.302 1.47-.455 2.286-.455h17.005V.696H8.962c-1.22 0-2.386.235-3.463.7" fill="#0E2C7D" mask="url(#d)"></path></g><path d="M63.18 19.8c-.702-.302-1.33-.73-1.868-1.267-.54-.538-.966-1.167-1.27-1.87-.303-.7-.455-1.47-.455-2.286V1.41H56.54v12.967c0 1.22.236 2.387.702 3.463.466 1.076 1.112 2.032 1.92 2.84.813.81 1.77 1.458 2.843 1.922 1.077.466 2.242.702 3.463.702h17.004V20.26H65.468c-.816 0-1.585-.155-2.287-.46M91.452 19.8c-.7-.3-1.33-.727-1.872-1.267-.537-.538-.964-1.167-1.267-1.87-.302-.7-.456-1.47-.456-2.286V1.41H84.81v12.967c0 1.22.237 2.387.702 3.463.466 1.076 1.112 2.032 1.923 2.84.81.812 1.766 1.46 2.84 1.922 1.077.466 2.242.702 3.462.702h17.004V20.26H93.738c-.815 0-1.584-.155-2.285-.46" fill="#0E2C7D"></path><mask id="f" fill="#fff"><use xlink:href="#e"></use></mask><g></g><path fill="#0E2C7D" mask="url(#f)" d="M113.08 23.304h3.045V1.41h-3.045M141.774 4.035c-.812-.81-1.767-1.457-2.842-1.922-1.077-.466-2.243-.7-3.463-.7h-8.08c-1.22 0-2.383.234-3.46.7-1.072.463-2.028 1.11-2.843 1.922-.81.81-1.458 1.766-1.92 2.84-.467 1.076-.703 2.242-.703 3.463v12.966h3.046V10.338c0-.797.155-1.56.458-2.273.304-.71.73-1.345 1.268-1.883.54-.538 1.168-.966 1.87-1.27.702-.3 1.47-.455 2.285-.455h8.08c.797 0 1.562.154 2.273.456.71.303 1.343.73 1.884 1.27.535.534.96 1.168 1.266 1.882.304.712.458 1.476.458 2.273v12.966h3.046V10.338c0-1.22-.236-2.387-.702-3.463-.463-1.074-1.11-2.03-1.92-2.84M171.512 9.35c.765-1.314 1.154-2.793 1.154-4.397V1.41h-3.046v3.543c0 .815-.153 1.584-.456 2.286-.306.705-.732 1.334-1.27 1.87-.538.54-1.172.966-1.882 1.27-.71.3-1.474.455-2.273.455h-13.96V1.41h-3.046v21.893h3.045V13.88h13.96c.798 0 1.562.154 2.272.457.71.305 1.347.73 1.883 1.27.537.534.963 1.167 1.268 1.883.304.71.457 1.475.457 2.273v3.54h3.046v-3.54c0-1.59-.39-3.058-1.154-4.37-.718-1.23-1.666-2.25-2.818-3.035 1.15-.765 2.098-1.776 2.818-3.007M176.2 3.27c.254 0 .46-.034.46-.312 0-.244-.243-.288-.456-.288h-.442v.6h.438zm-.8-.882h.804c.535 0 .822.17.822.598 0 .372-.245.52-.584.55l.6.893h-.417l-.545-.877h-.318v.876h-.363V2.387zm.736 2.486c.863 0 1.56-.654 1.56-1.463 0-.81-.697-1.46-1.56-1.46-.86 0-1.558.65-1.558 1.46 0 .81.697 1.464 1.558 1.464zm0-3.267c1.06 0 1.923.81 1.923 1.804 0 .997-.864 1.806-1.924 1.806s-1.923-.81-1.923-1.805c0-.992.863-1.803 1.923-1.803z"></path></g></svg>
