<?xml version="1.0" encoding="utf-8"?>
<!-- Generator: Adobe Illustrator 16.0.0, SVG Export Plug-In . SVG Version: 6.00 Build 0)  -->
<!DOCTYPE svg PUBLIC "-//W3C//DTD SVG 1.1//EN" "http://www.w3.org/Graphics/SVG/1.1/DTD/svg11.dtd">
<svg version="1.1" id="Layer_1" xmlns="http://www.w3.org/2000/svg" xmlns:xlink="http://www.w3.org/1999/xlink" x="0px" y="0px"
	 width="162.574px" height="75.171px" viewBox="0 0 162.574 75.171" enable-background="new 0 0 162.574 75.171"
	 xml:space="preserve">
<g>
	<g>
		<path d="M0,43.708h2.947v28.199h14.328v2.629H0V43.708z"/>
		<path d="M21.172,64.063V43.708h2.947v20.129c0,5.576,3.129,8.387,7.934,8.387c4.85,0,7.936-2.811,7.936-8.387V43.708h2.947v20.355
			c0,7.164-4.672,10.836-10.883,10.836S21.172,71.228,21.172,64.063z"/>
		<path d="M50.594,43.072h0.182l14.508,17.954l14.418-17.954h0.227v31.464h-2.811V50.325L65.283,65.198h-0.182L53.404,50.325v24.211
			h-2.811V43.072z"/>
		<path d="M87.814,43.708h18.59v2.63H90.762v15.413h13.963v2.584H90.762v7.572h16.277v2.629H87.814V43.708z"/>
		<path d="M116.061,50.28v24.256h-2.766V43.072h0.271l20.764,24.89V43.708h2.766v31.463h-0.271L116.061,50.28z"/>
		<path d="M144.848,67.374c1.633,3.082,4.443,4.85,8.068,4.85c4.217,0,6.711-2.084,6.711-5.303c0-3.402-2.086-4.943-5.803-6.666
			l-2.494-1.18c-4.443-2.084-7.117-4.078-7.117-8.385c0-4.397,3.4-7.345,7.934-7.345c3.854,0,6.529,1.448,8.432,4.533l-2.266,1.45
			c-1.404-2.312-3.309-3.4-6.119-3.4c-3.039,0-5.08,1.95-5.08,4.668c0,2.949,1.678,4.035,5.441,5.805l2.494,1.178
			c4.941,2.359,7.525,4.625,7.525,9.252c0,5.076-3.854,8.068-9.611,8.068c-5.031,0-8.615-2.447-10.609-6.211L144.848,67.374z"/>
	</g>
	<g>
		<g>
			<path fill="#221F1F" d="M102.316,27.526c-3.246-7.894-11.041-13.154-19.596-13.154c-8.477,0-16.043,4.974-19.428,12.715
				l-0.965,0.757l-0.445-0.232l0.191-0.466c3.443-8.43,11.549-13.877,20.646-13.877c9.227,0,17.613,5.816,20.869,14.472l0.223,0.593
				l-0.621,0.141L102.316,27.526z"/>
		</g>
		<g>
			<path fill="#221F1F" d="M82.17,13.842c0.186-0.004,0.365-0.021,0.551-0.021s0.367,0.018,0.553,0.021V0H82.17V13.842z
				 M107.49,10.03l-9.791,9.79c0.268,0.254,0.518,0.523,0.771,0.789l9.801-9.798L107.49,10.03z M57.176,10.812l9.783,9.784
				c0.254-0.267,0.518-0.523,0.783-0.775l-9.787-9.79L57.176,10.812z"/>
		</g>
		<g>
			<path fill="#221F1F" d="M122.34,28.868h-1.793c-5.898,0-8.99-2.979-10.082-4.312c-1.146,1.324-4.418,4.312-10.613,4.312
				c-5.152,0-7.68-2.228-8.615-3.324c-1.043,1.058-3.807,3.307-8.391,3.307c-4.531,0-7.088-2.203-8.074-3.29
				c-0.953,1.104-3.477,3.308-8.434,3.308c-4.67,0-7.801-3.566-8.795-4.886c-1.666,1.167-7.529,4.886-14.842,4.886h-2.465v-1.104
				h2.465c8.115,0,14.561-4.942,14.625-4.992l0.475-0.369l0.328,0.505c0.033,0.047,3.207,4.856,8.209,4.856
				c5.812,0,7.863-3.244,7.945-3.382l0.449-0.729l0.482,0.707c0.096,0.138,2.359,3.387,7.631,3.387c5.326,0,7.969-3.374,7.994-3.408
				l0.5-0.653l0.414,0.711c0.082,0.136,2.078,3.367,8.098,3.367c7.195,0,10.135-4.378,10.166-4.423l0.475-0.727l0.457,0.739
				c0.111,0.179,2.807,4.41,9.598,4.41h1.793V28.868z"/>
		</g>
	</g>
</g>
</svg>
