<?xml version="1.0" encoding="utf-8"?>
<!-- Generator: Adobe Illustrator 20.1.0, SVG Export Plug-In . SVG Version: 6.00 Build 0)  -->
<svg version="1.1" id="Lager_1" xmlns="http://www.w3.org/2000/svg" xmlns:xlink="http://www.w3.org/1999/xlink" x="0px" y="0px"
	 viewBox="0 0 501 324" style="enable-background:new 0 0 501 324;" xml:space="preserve">
<style type="text/css">
	.st0{fill:#2BC2ED;}
</style>
<g>
	<g>
		<path class="st0" d="M203.3,279.9h-8.9l-2.1,12.1h-20.4l2.1-12.1h-28.9l2.7-15.4l37.4-39.9h18.9l-6.8,38.8h8.9L203.3,279.9z
			 M176.9,263.3l2.1-12.6l-11.6,12.6H176.9z M234.6,251.3c3.8-2.5,8.4-3.7,13.7-3.7c5.3,0,9.5,1.3,12.5,4.1c3,2.8,4.5,7,4.5,12.6
			c0,8.9-2.9,16-8.6,21.1c-5.8,5.2-12.6,7.8-20.6,7.8c-16,0-24.9-10-24.9-26c0-15.8,5.6-29.4,17.1-37.4c5.6-4,12.3-6,19.9-6
			c7.7,0,18.4,2.3,18.4,10.6c0,3.2-2.2,7.6-5.2,10.5c-3.5-3.1-7.8-4.6-12.6-4.6C239.9,240.2,236.4,244.3,234.6,251.3 M231.2,264.9
			c-0.6,5.1-0.3,11.7,6.3,11.7c4.6,0,7.6-3.4,7.6-9.6c0-3.4-1.9-5.6-5-5.6C237,261.4,234.1,262.6,231.2,264.9 M316.1,274.6
			c1.4,2,2.1,4.3,2.1,7c0,8.7-7.7,11.5-19.9,11.5c-7.1,0-12.9-1.9-17.6-5.7c-4.7-3.7-7.1-9.1-7.1-16.1c0-8.3,3.1-15.1,9.1-20.5
			c6-5.4,12.9-8,20.8-8c6.3,0,11.2,1.5,14.5,4.5c3.3,3,5.1,6.5,5,10.5c0,10.1-6,15.2-18.2,15.2c-5.1,0-9.6-0.8-13.3-2.3
			c-0.7,5.7,4,8.7,11,8.7C308.8,279.4,313.3,277.8,316.1,274.6 M293.2,262.7c1.8,0.7,4.4,1,7.8,1c4.3,0,6.4-1.3,6.4-4.1
			c0-2-1.4-3.6-4.1-3.6C298.9,255.9,295.4,258.2,293.2,262.7 M344,292h-19.5l9.9-56c0.9-4.4,1.1-7.8,0.6-10.4
			c2.8-0.8,5.9-1.1,9.6-1.1c8,0,10.9,3.8,9.5,11.6L344,292z M380.8,251c5.4-5.5,12.1-8.2,20.2-8.2c8.3,0,12.3,4,12.2,11.2
			c-0.2,9.7-10.3,16.5-17.7,17.2c1.1,4.2,5,7.2,10,7.2c1.6,0,3.3-0.4,5-1.2c1.1,2.2,1.5,4.4,1.5,6.8c0,6.1-3.5,9.2-10.6,9.2
			c-5.4,0-9.9-1.8-13.3-5.8c-9.2-10.9-5.4-23.8-5.4-23.8c3.8,0.3,7.2-0.1,10-1.1c2.8-1.1,4.2-2.4,4.2-3.9c0-1.8-1.4-2.8-4.3-2.8
			c-5.4,0-10.1,2.9-14.3,8.5l-4.9,27.8h-19.7l9.9-56c0.9-4.4,1.1-7.8,0.6-10.4c2.8-0.8,5.9-1.1,9.7-1.1c8,0,11,3.8,9.6,11.6
			L380.8,251z M440.6,277.3c0-1.2-1.9-2.4-5.8-3.4c-4.2-1.2-6.7-2.2-10-4.4c-3.4-2.2-5.2-5.4-5.2-9.7c0-5.6,2.2-9.9,6.7-12.8
			c4.5-2.9,10.2-4.3,17.2-4.3c6.9,0,18.1,1.9,18.1,8.8c0,3.1-1.4,6.3-4.4,9.7c-3.2-3.3-8.1-5-14.7-5c-3,0-4.5,0.7-4.5,2.1
			c0,1.1,1.5,1.9,5.6,3.2c5.1,1.5,7.5,2.5,10.8,4.7c3.2,2.2,4.7,5.3,4.7,9.6c0,11.5-8.8,17.3-24.8,17.3c-12.6,0-18.9-3.1-18.9-9.3
			c0-3.6,1.4-7,4.3-10.1c3.5,3.4,10.3,5.9,16.5,5.9C439.1,279.4,440.6,278.7,440.6,277.3"/>
		<path class="st0" d="M219.5,158c-1.9-1.5-4.3-2.8-7.2-3.9l-49.5-19c2.7,0.2,5.3,0.3,7.8,0.3c16.7,0,30.5-4.1,41.3-12.4
			c23.4-17.9,22.8-48.3,22.8-49.5c-0.1-3.9-3.4-7.1-7.3-6.9c-3.9,0.1-7.1,3.4-6.9,7.3c0,0.2,0.5,24.3-17.2,37.8
			c-4.2,3.2-9.1,5.6-14.6,7.2c15.8-15.1,16.6-37.5,16.6-38.6c0.1-3.9-3-7.2-6.9-7.3c-3.9-0.1-7.2,3-7.3,6.9
			c0,0.2-0.7,20.7-15.5,31.4c-3.1,2.2-6.6,3.9-10.5,5c11.4-12.1,12-28.8,12-29.6c0.1-3.9-3-7.2-6.9-7.3c-3.9-0.1-7.2,3-7.3,6.9
			c0,0.2-0.7,15.3-11.3,23c-6.7,4.9-16.3,5.7-28.6,3.3c-16.4-3.2-26.8-9.3-31-18.3c-6.3-13.4,2.8-30.2,3-30.5
			c2.2-3.9,0.8-8.9-3.1-11.1c-3.9-2.2-8.9-0.9-11.1,3.1c-0.5,0.9-10.7,19.2-6.2,38.1c-3-2.9-5.3-6-6.9-9.5
			c-8.7-18.6,3.8-41.3,4-41.7c2.2-3.9,0.8-8.9-3.1-11.1c-3.9-2.2-8.9-0.9-11.1,3.1c-0.6,1.1-14.7,26.4-6.8,51.1
			c-5.1-4.5-8.8-9.5-11.2-15.1c-9.5-21.8,5.2-45.4,5.3-45.7c2.4-3.8,1.3-8.8-2.5-11.3c-3.8-2.4-8.8-1.3-11.3,2.5
			c-0.8,1.3-19.5,31-6.6,60.8c9.7,22.4,34.1,37.9,72.5,46.2c3.1,0.8,15.1,3.6,16.4,3.9c-0.2,0-0.4,0-0.4,0l-49.1,3.5
			c0,0,5,28.1,42.3,11.3L29,197.3c-23.5,20.3-15.7,53.5,4.3,62.1c12.4,5.3,44.4,19.9,69.5,31.4c8-25.3,34-121.3,84.8-109.4
			c2.8,8.2,10.5,14.1,19.7,14.1c11.5,0,20.8-9.3,20.8-20.8C228,167.9,224.6,161.8,219.5,158 M140.5,158.5c-4.2,0-7.7-3.4-7.7-7.7
			c0-4.2,3.4-7.7,7.7-7.7c4.2,0,7.7,3.4,7.7,7.7C148.2,155,144.7,158.5,140.5,158.5"/>
	</g>
</g>
</svg>
