<?xml version="1.0" encoding="utf-8"?>
<!-- Generator: Adobe Illustrator 16.0.0, SVG Export Plug-In . SVG Version: 6.00 Build 0)  -->
<!DOCTYPE svg PUBLIC "-//W3C//DTD SVG 1.1//EN" "http://www.w3.org/Graphics/SVG/1.1/DTD/svg11.dtd">
<svg version="1.1" id="Layer_1" xmlns="http://www.w3.org/2000/svg" xmlns:xlink="http://www.w3.org/1999/xlink" x="0px" y="0px"
	 width="101.1px" height="96.215px" viewBox="0 0 101.1 96.215" enable-background="new 0 0 101.1 96.215" xml:space="preserve">
<g>
	<g>
		<path fill="#FFFFFF" d="M13.135,75.975c1.225,1.81,2.62,3.434,4.312,4.795c4.966,3.998,10.604,5.562,16.902,4.606
			c5.296-0.806,9.686-3.326,13.079-7.438c4.13-5.004,5.708-10.804,4.712-17.211c-0.86-5.533-3.543-10.084-7.962-13.542
			c-5.025-3.935-10.747-5.306-17.005-4.212c-4.931,0.863-9.039,3.279-12.319,7.074c-3.123,3.61-4.834,7.82-5.184,12.562
			c-0.259,3.516,0.308,6.918,1.75,10.151c0.145,0.322,0.081,0.558-0.088,0.826c-1.022,1.64-2.34,3-3.916,4.106
			c-2.137,1.5-4.486,2.574-6.944,3.429C0.315,81.175,0.167,81.251,0,81.323c0.81,1.565,1.59,3.084,2.376,4.598
			c0.193,0.375,0.471,0.354,0.778,0.142c1.137-0.789,2.295-1.549,3.406-2.371c1.974-1.459,3.738-3.135,5.09-5.203
			C12.174,77.688,12.626,76.839,13.135,75.975z M70.061,9.899c0.507-0.637,1.032-1.281,1.534-1.945
			c0.077-0.104,0.112-0.349,0.046-0.436c-0.282-0.37-0.611-0.705-0.941-1.074c-0.733,0.459-1.42,0.902-2.121,1.318
			c-0.128,0.075-0.372,0.112-0.475,0.04c-0.276-0.197-0.508-0.46-0.767-0.706c0.28-0.557,0.562-1.081,0.812-1.618
			c0.542-1.165,0.638-0.756-0.394-1.606c-0.326-0.271-0.573-0.268-0.875,0.04C66.334,4.471,65.759,5,65.201,5.536
			c-0.386-0.229-0.733-0.437-1.104-0.656c0.082-0.287,0.159-0.556,0.234-0.824c0.075-0.272,0.152-0.543,0.223-0.816
			c0.305-1.21,0.3-1.2-0.865-1.677c-0.278-0.114-0.434-0.06-0.587,0.174c-0.294,0.447-0.607,0.879-0.904,1.325
			c-0.491,0.739-0.487,0.741-1.331,0.456c-0.046-0.015-0.108-0.017-0.131-0.048c-0.078-0.111-0.204-0.232-0.203-0.348
			c0.005-0.519,0.042-1.038,0.077-1.556c0.072-1.04,0.075-1.04-0.939-1.274c-0.648-0.15-0.652-0.152-0.919,0.481
			c-0.284,0.677-0.561,1.357-0.837,2.031c-0.329-0.032-0.608-0.072-0.892-0.083c-0.308-0.011-0.406-0.136-0.441-0.456
			c-0.076-0.7-0.216-1.395-0.358-2.086c-0.023-0.121-0.188-0.293-0.302-0.302c-0.451-0.034-0.907-0.014-1.368-0.014
			c-0.05,0.203-0.097,0.369-0.128,0.537c-0.119,0.63-0.244,1.26-0.345,1.894c-0.042,0.263-0.146,0.392-0.421,0.389
			c-0.156-0.001-0.312,0.036-0.468,0.063c-0.319,0.058-0.527-0.018-0.625-0.375c-0.105-0.392-0.269-0.769-0.417-1.149
			c-0.446-1.145-0.445-1.128-1.65-0.895c-0.348,0.067-0.429,0.211-0.42,0.532c0.02,0.8,0.006,1.6,0.006,2.459
			C49.91,3.374,49.643,3.42,49.412,3.54c-0.387,0.198-0.583,0.055-0.764-0.29c-0.175-0.333-0.404-0.637-0.612-0.951
			c-0.719-1.084-0.719-1.084-1.863-0.509c-0.014,0.007-0.027,0.015-0.042,0.021c-0.229,0.09-0.29,0.225-0.216,0.479
			c0.148,0.511,0.243,1.039,0.377,1.555c0.234,0.904,0.233,0.891-0.586,1.375c-0.246,0.145-0.376,0.103-0.552-0.097
			c-0.289-0.331-0.601-0.646-0.922-0.947c-1.089-1.019-0.693-0.897-1.883-0.103c-0.276,0.186-0.283,0.356-0.149,0.624
			c0.362,0.729,0.708,1.468,1.066,2.219c-0.32,0.275-0.638,0.551-0.959,0.831c-0.48-0.315-0.937-0.623-1.399-0.917
			c-1.021-0.644-1.015-0.633-1.833,0.236c-0.242,0.257-0.259,0.448-0.034,0.724c0.513,0.63,0.996,1.283,1.484,1.918
			c-0.198,0.271-0.396,0.5-0.546,0.755c-0.146,0.243-0.305,0.254-0.541,0.149c-0.416-0.183-0.84-0.35-1.267-0.507
			c-1.102-0.407-1.089-0.395-1.698,0.609c-0.194,0.32-0.176,0.51,0.122,0.745c0.625,0.495,1.222,1.025,1.835,1.545
			c-0.141,0.314-0.243,0.616-0.407,0.878c-0.071,0.115-0.275,0.221-0.411,0.209c-0.467-0.04-0.929-0.143-1.396-0.203
			c-1.225-0.156-1.226-0.151-1.564,1.029c-0.004,0.015-0.021,0.033-0.018,0.043c0.065,0.167,0.086,0.404,0.208,0.487
			c0.376,0.254,0.79,0.455,1.193,0.668c1.03,0.545,1.031,0.543,0.78,1.688c-0.006,0.027-0.034,0.049-0.059,0.08
			c-0.559,0.036-1.122,0.067-1.687,0.109c-1.196,0.089-1.188,0.092-1.316,1.305c-0.031,0.304,0.061,0.466,0.356,0.547
			c0.682,0.186,1.361,0.379,2.034,0.595c0.133,0.042,0.313,0.184,0.331,0.301c0.142,0.96,0.068,1.055-0.863,1.3
			c-0.227,0.06-0.455,0.114-0.683,0.177c-1.265,0.352-1.253,0.351-1.102,1.649c0.033,0.289,0.155,0.371,0.416,0.385
			c0.563,0.031,1.129,0.07,1.69,0.127c0.846,0.085,0.837,0.095,1.003,0.936c0.054,0.265,0.008,0.42-0.266,0.548
			c-0.654,0.306-1.297,0.642-1.926,0.998c-0.12,0.068-0.251,0.319-0.212,0.427c0.155,0.438,0.375,0.854,0.576,1.275
			c0.009,0.016,0.09-0.001,0.137-0.007c0.515-0.066,1.03-0.115,1.541-0.204c1.023-0.179,1.012-0.183,1.406,0.759
			c0.098,0.231,0.043,0.329-0.137,0.461c-0.394,0.288-0.776,0.589-1.147,0.905c-0.859,0.734-0.847,0.734-0.283,1.719
			c0.183,0.318,0.357,0.466,0.738,0.287c0.366-0.173,0.769-0.275,1.15-0.414c1.101-0.397,1.101-0.398,1.774,0.563
			c0.016,0.021,0.01,0.058,0.015,0.093c-0.516,0.65-1.039,1.298-1.542,1.962c-0.075,0.099-0.126,0.324-0.069,0.398
			c0.293,0.379,0.626,0.728,0.957,1.1c0.581-0.354,1.106-0.667,1.623-0.992c0.803-0.505,0.791-0.499,1.496,0.086
			c0.229,0.19,0.246,0.337,0.105,0.593c-0.339,0.62-0.652,1.256-0.953,1.897c-0.06,0.127-0.073,0.381,0.003,0.448
			c0.357,0.313,0.755,0.582,1.147,0.875c0.511-0.479,0.978-0.902,1.427-1.342c0.66-0.646,0.646-0.636,1.443-0.185
			c0.269,0.151,0.289,0.287,0.206,0.562c-0.203,0.676-0.338,1.371-0.546,2.045c-0.107,0.352,0.068,0.496,0.326,0.543
			c0.429,0.08,0.787,0.765,1.277,0.228c0.347-0.379,0.604-0.841,0.89-1.272c0.552-0.836,0.546-0.828,1.479-0.52
			c0.24,0.08,0.303,0.178,0.278,0.436c-0.065,0.72-0.107,1.443-0.114,2.166c-0.002,0.15,0.157,0.385,0.298,0.438
			c0.316,0.121,0.667,0.185,1.008,0.208c0.136,0.011,0.354-0.105,0.412-0.225c0.229-0.463,0.418-0.946,0.607-1.426
			c0.361-0.91,0.356-0.904,1.323-0.832c0.229,0.017,0.327,0.08,0.356,0.323c0.078,0.606,0.194,1.207,0.288,1.812
			c0.115,0.752,0.112,0.754,0.852,0.767c0.173,0.004,0.348-0.015,0.519,0.005c0.349,0.039,0.471-0.148,0.522-0.451
			c0.135-0.787,0.281-1.572,0.431-2.39c0.412-0.035,0.814-0.069,1.232-0.104c0.032,0.065,0.062,0.119,0.086,0.174
			c0.284,0.716,0.56,1.436,0.861,2.144c0.057,0.131,0.231,0.315,0.334,0.306c0.401-0.047,0.807-0.136,1.19-0.264
			c0.104-0.035,0.2-0.263,0.205-0.404c0.019-0.551,0.005-1.103-0.013-1.652c-0.025-0.854-0.025-0.84,0.789-1.117
			c0.294-0.1,0.438-0.053,0.599,0.219c0.359,0.607,0.755,1.196,1.165,1.771c0.081,0.113,0.339,0.225,0.441,0.178
			c0.424-0.195,0.82-0.449,1.223-0.691c0.021-0.012-0.017-0.117-0.03-0.179c-0.122-0.519-0.24-1.037-0.371-1.553
			c-0.225-0.896-0.218-0.882,0.563-1.371c0.265-0.166,0.396-0.114,0.591,0.091c0.498,0.525,1.012,1.038,1.54,1.533
			c0.091,0.085,0.33,0.133,0.425,0.074c0.387-0.235,0.741-0.521,1.146-0.814c-0.423-0.883-0.833-1.738-1.244-2.599
			c0.257-0.222,0.479-0.451,0.738-0.623c0.116-0.078,0.348-0.111,0.459-0.047c0.437,0.249,0.843,0.546,1.263,0.824
			c0.866,0.572,0.866,0.571,1.588-0.164c0.459-0.469,0.466-0.474,0.064-1c-0.453-0.598-0.92-1.186-1.382-1.778
			c0.176-0.23,0.356-0.415,0.472-0.634c0.18-0.344,0.392-0.364,0.728-0.222c0.648,0.274,1.313,0.513,1.98,0.742
			c0.106,0.037,0.323-0.008,0.379-0.089c0.261-0.385,0.48-0.797,0.729-1.223c-0.498-0.431-0.948-0.846-1.427-1.228
			c-0.813-0.652-0.829-0.648-0.33-1.552c0.061-0.108,0.263-0.21,0.386-0.197c0.438,0.047,0.862,0.178,1.298,0.218
			c1.468,0.132,1.134,0.491,1.669-1.022c0.113-0.325,0.001-0.461-0.252-0.592c-0.61-0.318-1.229-0.628-1.823-0.974
			c-0.139-0.081-0.286-0.299-0.277-0.444c0.021-0.318,0.138-0.631,0.218-0.962c0.175-0.011,0.329-0.021,0.484-0.03
			c0.658-0.041,1.32-0.063,1.978-0.135c0.16-0.018,0.396-0.172,0.438-0.311c0.093-0.31,0.079-0.651,0.12-0.978
			c0.035-0.281-0.063-0.422-0.354-0.5c-0.781-0.211-1.555-0.458-2.333-0.692c0-0.427,0-0.845,0-1.258
			c0.812-0.229,1.597-0.458,2.385-0.669c0.279-0.075,0.391-0.212,0.334-0.508c-0.053-0.277-0.063-0.562-0.086-0.843
			c-0.022-0.294-0.144-0.433-0.471-0.451c-0.813-0.043-1.626-0.133-2.444-0.205c-0.068-0.306-0.125-0.599-0.203-0.885
			c-0.07-0.259,0.017-0.399,0.261-0.506c0.402-0.176,0.804-0.364,1.185-0.582c1.27-0.728,1.115-0.271,0.693-1.732
			c-0.104-0.361-0.303-0.421-0.626-0.37c-0.684,0.108-1.37,0.183-2.052,0.299c-0.258,0.044-0.354-0.043-0.451-0.268
			c-0.383-0.876-0.391-0.872,0.355-1.44c0.176-0.133,0.344-0.276,0.517-0.411c1.074-0.838,1.068-0.841,0.33-1.989
			c-0.144-0.222-0.263-0.254-0.495-0.162c-0.467,0.183-0.946,0.325-1.416,0.497c-1.087,0.396-1.086,0.399-1.649-0.649
			C70.066,9.96,70.067,9.942,70.061,9.899z M101.099,64.378c0-3.821-0.952-7.326-2.897-10.666
			c-4.626-7.938-14.095-12.125-23.086-10.233c-4.144,0.87-7.771,2.718-10.786,5.685c-4.919,4.84-7.082,10.736-6.354,17.598
			c0.548,5.156,2.785,9.563,6.641,13.041c6.265,5.654,13.556,7.256,21.574,4.772C95.153,81.798,101.098,73.566,101.099,64.378z"/>
		<path d="M13.135,75.975c-0.508,0.864-0.961,1.713-1.483,2.514c-1.352,2.066-3.116,3.744-5.09,5.203
			c-1.111,0.819-2.271,1.58-3.405,2.369c-0.31,0.215-0.585,0.235-0.779-0.14C1.59,84.407,0.809,82.891,0,81.323
			c0.167-0.072,0.314-0.146,0.472-0.201c2.458-0.854,4.81-1.929,6.944-3.431c1.575-1.104,2.894-2.467,3.916-4.104
			c0.168-0.271,0.23-0.506,0.088-0.826c-1.441-3.233-2.008-6.639-1.75-10.151c0.35-4.74,2.062-8.95,5.184-12.562
			c3.28-3.795,7.39-6.213,12.319-7.075c6.259-1.095,11.979,0.276,17.004,4.212c4.419,3.459,7.103,8.01,7.963,13.543
			c0.995,6.407-0.582,12.205-4.713,17.211c-3.394,4.112-7.781,6.635-13.078,7.438c-6.3,0.957-11.938-0.607-16.902-4.605
			C15.755,79.407,14.359,77.783,13.135,75.975z M30.983,69.71c3.235,0.011,5.854-2.582,5.863-5.801
			c0.007-3.209-2.609-5.845-5.822-5.851c-3.158-0.006-5.836,2.459-5.854,5.812C25.149,67.206,27.854,69.73,30.983,69.71z
			 M41.904,79.585c3.524-0.994,8.721-10.147,8.015-14.142c-0.958,0-1.924,0-2.906,0c-0.17,1.74-0.562,3.412-1.246,5.006
			c-1.09,2.543-2.686,4.705-4.862,6.431c-0.113,0.091-0.235,0.345-0.188,0.438C41.089,78.087,41.504,78.835,41.904,79.585z
			 M41.917,48.374c-0.344,0.637-0.683,1.248-1.008,1.866c-0.387,0.73-0.431,0.502,0.212,1.042c2.44,2.055,4.198,4.571,5.138,7.62
			c0.366,1.188,0.57,2.431,0.854,3.668c0.902,0,1.869,0,2.831,0C50.574,58.675,45.799,50.195,41.917,48.374z M24.336,79.048
			c-0.447,0.754-0.896,1.511-1.345,2.265c4.741,2.84,12.574,2.377,16.366-0.107c-0.499-0.785-0.998-1.57-1.508-2.375
			C33.383,80.852,28.914,80.936,24.336,79.048z M39.439,46.825c-2.363-1.191-4.843-1.838-7.451-1.953
			c-3.219-0.143-6.292,0.457-9.229,1.939c0.281,0.396,0.538,0.727,0.76,1.079c0.223,0.354,0.408,0.731,0.625,1.124
			c4.667-2,9.271-1.92,13.864,0.211C38.479,48.434,38.94,47.661,39.439,46.825z M20.4,48.163c-2.609,1.83-4.636,4.076-6.103,6.823
			c-1.229,2.304-1.948,4.759-2.201,7.381c0.906,0,1.749,0,2.604,0c0.284-2.396,0.956-4.645,2.173-6.715
			c1.217-2.069,2.812-3.793,4.769-5.192C21.23,49.695,20.838,48.973,20.4,48.163z M20.469,79.857
			c0.402-0.791,0.795-1.563,1.188-2.334c-3.157-2.254-5.254-5.219-6.359-8.848c-0.333,1.301-0.678,2.596-0.989,3.898
			c-0.052,0.215-0.023,0.496,0.076,0.689c0.94,1.812,2.187,3.399,3.669,4.797C18.769,78.738,19.475,79.441,20.469,79.857z
			 M16.907,62.366c0.556-4.134,2.468-7.451,5.785-9.962c-0.24-0.446-0.471-0.871-0.714-1.321c-3.816,2.823-5.992,6.565-6.574,11.283
			C15.917,62.366,16.384,62.366,16.907,62.366z M21.966,76.895c0.16-0.312,0.266-0.58,0.425-0.81
			c0.246-0.356,0.174-0.582-0.165-0.844c-1.916-1.48-3.357-3.353-4.243-5.593c-0.53-1.344-0.838-2.774-1.271-4.258
			c-0.33,0-0.804,0-1.329,0C15.916,70.18,18.072,73.991,21.966,76.895z M37.615,49.896c-3.113-2.026-10.36-2.137-13.031-0.215
			c0.214,0.344,0.43,0.688,0.646,1.031c0.032,0.053,0.078,0.094,0.134,0.158c3.869-1.584,7.717-1.531,11.562,0.168
			C37.151,50.665,37.376,50.292,37.615,49.896z M24.705,78.438c4.293,1.762,8.512,1.703,12.748-0.213
			c-0.177-0.285-0.312-0.513-0.454-0.736c-0.083-0.133-0.171-0.26-0.269-0.404c-3.753,1.604-7.521,1.635-11.299,0.113
			C25.183,77.622,24.954,78.011,24.705,78.438z M40.223,51.55c-0.03,0.033-0.068,0.064-0.091,0.104
			c-0.129,0.23-0.237,0.479-0.385,0.697c-0.17,0.256-0.097,0.396,0.129,0.578c1.562,1.281,2.786,2.84,3.698,4.641
			c0.793,1.566,1.224,3.24,1.451,4.996c0.421,0,0.822,0,1.222,0C46.62,59.552,42.851,52.673,40.223,51.55z M45.029,65.37
			c-0.45,4.063-2.24,7.364-5.377,9.938c0.109,0.213,0.208,0.408,0.312,0.604c0.099,0.187,0.201,0.369,0.313,0.576
			c3.571-2.894,5.561-6.568,6.045-11.119C45.861,65.37,45.459,65.37,45.029,65.37z M6.383,83.079
			c-0.635-1.022-1.229-1.978-1.812-2.916c-1.229,0.489-2.41,0.963-3.614,1.442c0.694,1.33,1.358,2.604,2.056,3.939
			C4.15,84.712,5.249,83.907,6.383,83.079z M26.591,75.145c3.065,1.162,6.003,1.143,8.979-0.071
			c-0.135-0.239-0.241-0.411-0.331-0.593c-0.229-0.463-0.505-0.551-1.037-0.379c-2.276,0.735-4.56,0.688-6.854-0.151
			C27.114,74.318,26.874,74.697,26.591,75.145z M35.753,53.139c-2.463-1.33-7.672-1.375-9.102-0.084
			c0.107,0.18,0.23,0.358,0.331,0.553c0.188,0.363,0.427,0.434,0.835,0.297c1.732-0.57,3.509-0.648,5.293-0.286
			c0.653,0.134,1.289,0.347,1.949,0.524C35.294,53.807,35.522,53.475,35.753,53.139z M19.249,65.4
			c0.458,3.343,1.924,5.978,4.482,8.086c0.191-0.375,0.387-0.711,0.529-1.065c0.036-0.092-0.053-0.289-0.144-0.366
			c-1.97-1.693-3.121-3.839-3.58-6.439C20.159,65.55,19.752,65.482,19.249,65.4z M38.511,73.305
			c2.474-2.175,3.887-4.804,4.261-8.084c-0.457,0.036-0.853,0.067-1.255,0.103c-0.372,2.733-1.61,4.946-3.606,6.759
			C38.107,72.484,38.293,72.861,38.511,73.305z M23.957,54.55c-2.048,0.99-4.71,5.56-4.604,7.859c0.186,0,0.371,0.004,0.558-0.001
			c0.125-0.004,0.271,0.021,0.372-0.032c0.129-0.065,0.3-0.188,0.32-0.31c0.265-1.521,0.841-2.92,1.753-4.151
			c0.608-0.822,1.344-1.554,2.057-2.363C24.29,55.283,24.128,54.93,23.957,54.55z M9.9,79.867c-0.602-0.667-1.146-1.271-1.666-1.85
			C7.22,78.645,6.24,79.25,5.252,79.861c0.559,0.906,1.11,1.808,1.706,2.773C7.963,81.689,8.912,80.798,9.9,79.867z M38.426,54.73
			c-0.133,0.279-0.215,0.504-0.339,0.701c-0.209,0.334-0.16,0.572,0.146,0.838c0.354,0.31,0.671,0.664,0.971,1.025
			c1.159,1.406,1.896,3.01,2.223,4.807c0.025,0.141,0.152,0.334,0.271,0.369c0.289,0.088,0.602,0.096,1.006,0.148
			C42.348,59.359,40.847,56.843,38.426,54.73z M18.59,62.346c0.514-3.496,2.173-6.289,4.911-8.449
			c-0.163-0.293-0.307-0.551-0.476-0.855c-3.074,2.381-4.866,5.447-5.406,9.307C17.965,62.346,18.256,62.346,18.59,62.346z
			 M36.528,51.675c-3.001-1.598-7.653-1.661-10.778-0.144c0.129,0.216,0.258,0.431,0.388,0.644c0.031,0.056,0.066,0.106,0.102,0.162
			c3.323-1.305,6.591-1.244,9.839,0.123c0.139-0.224,0.264-0.42,0.384-0.619C36.49,51.79,36.505,51.73,36.528,51.675z
			 M22.908,74.902c0.554-0.719,0.525-0.688-0.068-1.254c-0.612-0.582-1.209-1.194-1.731-1.856c-1.39-1.761-2.198-3.774-2.497-5.996
			c-0.031-0.239-0.112-0.379-0.383-0.354c-0.199,0.018-0.4,0.004-0.641,0.004C18.072,69.359,19.836,72.489,22.908,74.902z
			 M36.354,76.468c-0.17-0.264-0.319-0.493-0.48-0.743c-3.205,1.28-6.398,1.297-9.598,0.06c-0.095,0.153-0.171,0.271-0.238,0.392
			c-0.07,0.127-0.133,0.258-0.211,0.412C29.378,77.997,32.857,77.954,36.354,76.468z M44.31,62.529
			c-0.47-3.756-2.14-6.801-5.052-9.188c-0.513,0.744-0.513,0.742,0.068,1.265c2.208,1.979,3.519,4.453,4.035,7.356
			C43.486,62.646,43.481,62.646,44.31,62.529z M39.346,74.634c2.903-2.444,4.549-5.508,4.979-9.272
			c-0.177-0.012-0.298-0.023-0.419-0.027c-0.138-0.006-0.274-0.002-0.401-0.002c-0.041,0.168-0.082,0.286-0.098,0.409
			c-0.408,3.056-1.768,5.612-4.017,7.712C38.875,73.934,38.885,73.943,39.346,74.634z M8.816,77.557c0.49,0.551,1,1.12,1.604,1.797
			c0.656-1.069,1.282-2.078,1.888-3.101c0.056-0.094,0.03-0.326-0.046-0.392c-0.363-0.312-0.759-0.588-1.104-0.846
			C10.366,75.874,9.603,76.702,8.816,77.557z M14.24,65.247c-0.755,0-1.42,0-2.095,0c-0.164,0.75,0.396,3.846,0.859,4.619
			C13.542,68.372,13.985,66.876,14.24,65.247z M27.877,54.521c0.146,0.472,0.402,0.638,0.839,0.535
			c1.604-0.377,3.202-0.397,4.789,0.07c0.509,0.15,0.853-0.035,1.155-0.426C32.54,53.831,29.779,53.761,27.877,54.521z
			 M24.466,56.489c-1.54,1.071-3.27,4.133-3.237,5.692c0.612-0.008,0.84-0.375,0.995-0.934c0.381-1.371,1.095-2.576,2.098-3.584
			C24.696,57.288,24.761,56.956,24.466,56.489z M21.155,65.663c0.491,2.385,1.569,4.301,3.385,5.838
			c0.103-0.435,0.282-0.783-0.083-1.142c-1.125-1.102-1.88-2.432-2.315-3.938C22.001,65.939,21.616,65.846,21.155,65.663z
			 M37.684,56.536c-0.285,0.551-0.165,0.937,0.22,1.348c0.947,1.015,1.614,2.209,1.957,3.556c0.138,0.537,0.44,0.768,1.016,0.879
			C40.465,60.001,39.402,58.111,37.684,56.536z M37.84,71.212c1.629-1.582,2.67-3.424,3.035-5.722
			c-0.513,0.14-0.848,0.257-0.968,0.777c-0.33,1.418-1.022,2.67-2.012,3.734C37.519,70.411,37.574,70.757,37.84,71.212z
			 M34.321,73.327c-0.285-0.535-0.624-0.642-1.174-0.488c-1.307,0.356-2.649,0.386-3.967,0.063
			c-0.578-0.143-0.964-0.041-1.288,0.484C30.048,74.068,32.167,74.046,34.321,73.327z M22.823,61.542
			c0.946-0.465,2.059-2.437,1.883-3.342C23.883,58.878,22.802,60.796,22.823,61.542z M33.347,72.193
			c-1.051-0.604-3.361-0.518-4.039,0.136C30.661,72.643,31.974,72.55,33.347,72.193z M24.802,69.884
			c0.15-0.961-0.938-2.76-2.038-3.389C23.186,67.798,23.832,68.915,24.802,69.884z M37.55,69.497
			c0.896-0.972,1.708-2.565,1.736-3.365C38.507,66.361,37.517,68.251,37.55,69.497z M29.159,55.673
			c1.261,0.425,2.522,0.414,3.786,0.069C31.688,55.341,30.425,55.343,29.159,55.673z M14.097,70.997
			c0.214-1.31,0.42-2.57,0.626-3.832c-0.038-0.007-0.075-0.013-0.112-0.019c-0.411,1.228-0.822,2.455-1.243,3.711
			C13.615,70.904,13.811,70.941,14.097,70.997z M37.781,58.55c-0.369,1.15,0.517,2.382,1.5,2.69
			C38.781,60.346,38.281,59.447,37.781,58.55z M12.485,75.085c0.021-0.021,0.042-0.041,0.062-0.062
			c-0.215-0.389-0.431-0.774-0.671-1.209c-0.132,0.211-0.234,0.375-0.341,0.545C11.874,74.618,12.18,74.854,12.485,75.085z"/>
		<path d="M70.061,9.899c0.007,0.042,0.006,0.06,0.014,0.073c0.563,1.048,0.562,1.045,1.648,0.649
			c0.47-0.171,0.949-0.314,1.416-0.497c0.232-0.092,0.354-0.061,0.495,0.162c0.738,1.148,0.744,1.151-0.329,1.989
			c-0.174,0.135-0.342,0.278-0.518,0.411c-0.746,0.568-0.738,0.564-0.355,1.44c0.098,0.225,0.193,0.312,0.451,0.268
			c0.682-0.116,1.368-0.191,2.052-0.299c0.323-0.051,0.521,0.009,0.626,0.37c0.422,1.461,0.575,1.004-0.692,1.732
			c-0.382,0.218-0.781,0.406-1.186,0.582c-0.244,0.106-0.331,0.247-0.261,0.506c0.078,0.286,0.135,0.579,0.203,0.885
			c0.818,0.072,1.631,0.162,2.444,0.205c0.327,0.018,0.446,0.157,0.471,0.451c0.021,0.281,0.034,0.566,0.086,0.843
			c0.057,0.296-0.055,0.433-0.334,0.508c-0.788,0.211-1.57,0.439-2.384,0.669c0,0.413,0,0.831,0,1.258
			c0.777,0.234,1.551,0.481,2.333,0.692c0.288,0.078,0.389,0.219,0.354,0.5c-0.041,0.327-0.028,0.667-0.121,0.978
			c-0.042,0.139-0.274,0.293-0.438,0.311c-0.655,0.072-1.316,0.095-1.978,0.135c-0.155,0.009-0.312,0.019-0.483,0.03
			c-0.081,0.332-0.198,0.644-0.219,0.962c-0.009,0.146,0.141,0.364,0.278,0.444c0.595,0.346,1.212,0.656,1.822,0.974
			c0.253,0.131,0.365,0.267,0.252,0.592c-0.535,1.514-0.2,1.154-1.669,1.022c-0.436-0.04-0.86-0.171-1.297-0.218
			c-0.124-0.013-0.326,0.089-0.387,0.197c-0.499,0.904-0.483,0.899,0.33,1.552c0.479,0.382,0.93,0.796,1.427,1.228
			c-0.248,0.426-0.471,0.838-0.729,1.223c-0.057,0.082-0.271,0.126-0.38,0.089c-0.667-0.229-1.332-0.467-1.98-0.742
			c-0.336-0.142-0.548-0.122-0.728,0.222c-0.113,0.219-0.296,0.403-0.471,0.634c0.461,0.592,0.928,1.18,1.381,1.778
			c0.399,0.526,0.395,0.531-0.064,1c-0.722,0.734-0.722,0.735-1.588,0.162c-0.419-0.277-0.826-0.574-1.263-0.823
			c-0.111-0.064-0.342-0.031-0.459,0.047c-0.26,0.172-0.481,0.401-0.738,0.624c0.411,0.859,0.821,1.716,1.244,2.599
			c-0.404,0.294-0.761,0.579-1.146,0.815c-0.095,0.059-0.334,0.011-0.425-0.075c-0.527-0.495-1.042-1.007-1.54-1.533
			c-0.192-0.205-0.326-0.256-0.591-0.091c-0.781,0.49-0.788,0.474-0.562,1.371c0.13,0.516,0.248,1.035,0.37,1.553
			c0.016,0.061,0.051,0.167,0.03,0.18c-0.399,0.241-0.798,0.496-1.223,0.69c-0.104,0.047-0.36-0.063-0.441-0.179
			c-0.41-0.574-0.806-1.164-1.165-1.771c-0.161-0.272-0.304-0.317-0.599-0.219c-0.814,0.278-0.814,0.263-0.788,1.116
			c0.017,0.552,0.028,1.104,0.012,1.652c-0.005,0.143-0.102,0.37-0.205,0.405c-0.386,0.128-0.789,0.217-1.19,0.263
			c-0.103,0.012-0.277-0.174-0.334-0.305c-0.304-0.708-0.577-1.428-0.861-2.145c-0.021-0.056-0.054-0.107-0.085-0.174
			c-0.418,0.036-0.821,0.07-1.233,0.105c-0.147,0.818-0.296,1.604-0.431,2.389c-0.054,0.305-0.176,0.491-0.521,0.452
			c-0.172-0.021-0.347-0.001-0.52-0.005c-0.738-0.014-0.734-0.014-0.852-0.768c-0.094-0.604-0.21-1.205-0.288-1.811
			c-0.03-0.243-0.129-0.307-0.356-0.324c-0.966-0.07-0.962-0.076-1.323,0.832c-0.189,0.48-0.378,0.965-0.607,1.426
			c-0.06,0.119-0.275,0.236-0.412,0.226c-0.341-0.024-0.689-0.087-1.008-0.208c-0.141-0.053-0.299-0.287-0.298-0.438
			c0.007-0.724,0.048-1.447,0.114-2.168c0.023-0.257-0.038-0.354-0.278-0.435c-0.934-0.31-0.928-0.315-1.479,0.519
			c-0.286,0.433-0.543,0.895-0.89,1.273c-0.49,0.537-0.85-0.148-1.277-0.227c-0.257-0.047-0.435-0.192-0.326-0.543
			c0.208-0.674,0.344-1.371,0.546-2.045c0.083-0.274,0.062-0.41-0.205-0.562c-0.799-0.451-0.785-0.461-1.444,0.184
			c-0.449,0.44-0.917,0.863-1.427,1.342c-0.394-0.291-0.79-0.56-1.147-0.873c-0.077-0.067-0.062-0.321-0.002-0.449
			c0.3-0.643,0.612-1.277,0.952-1.898c0.14-0.255,0.124-0.4-0.105-0.592c-0.706-0.584-0.693-0.591-1.496-0.086
			c-0.517,0.325-1.042,0.638-1.622,0.992c-0.331-0.372-0.664-0.721-0.957-1.1c-0.058-0.074-0.007-0.299,0.068-0.398
			c0.503-0.664,1.026-1.312,1.542-1.962c-0.005-0.035,0.001-0.072-0.015-0.093c-0.675-0.961-0.675-0.96-1.774-0.563
			c-0.384,0.139-0.784,0.241-1.15,0.414c-0.38,0.179-0.557,0.031-0.738-0.287c-0.562-0.985-0.576-0.985,0.283-1.719
			c0.371-0.316,0.755-0.617,1.147-0.905c0.181-0.132,0.232-0.23,0.138-0.461c-0.396-0.942-0.384-0.938-1.407-0.759
			c-0.51,0.089-1.026,0.138-1.541,0.204c-0.047,0.006-0.128,0.023-0.136,0.007c-0.203-0.421-0.422-0.837-0.577-1.275
			c-0.039-0.108,0.093-0.359,0.212-0.427c0.629-0.356,1.271-0.692,1.927-0.998c0.272-0.128,0.317-0.283,0.265-0.548
			c-0.166-0.841-0.158-0.85-1.003-0.936c-0.562-0.057-1.127-0.096-1.69-0.127c-0.26-0.015-0.382-0.096-0.416-0.385
			c-0.151-1.298-0.163-1.297,1.102-1.649c0.228-0.063,0.456-0.117,0.684-0.177c0.932-0.246,1.004-0.34,0.862-1.3
			c-0.018-0.117-0.197-0.258-0.331-0.301c-0.673-0.215-1.354-0.409-2.033-0.595c-0.298-0.081-0.39-0.244-0.357-0.547
			c0.129-1.213,0.121-1.216,1.317-1.305c0.562-0.042,1.127-0.073,1.687-0.109c0.022-0.031,0.052-0.053,0.058-0.08
			c0.252-1.144,0.25-1.143-0.78-1.688c-0.403-0.213-0.816-0.414-1.192-0.668c-0.123-0.083-0.145-0.32-0.208-0.487
			c-0.005-0.01,0.012-0.028,0.018-0.043c0.339-1.181,0.34-1.185,1.564-1.029c0.467,0.06,0.929,0.163,1.396,0.203
			c0.134,0.012,0.339-0.094,0.41-0.209c0.164-0.263,0.268-0.564,0.407-0.878c-0.612-0.52-1.21-1.05-1.835-1.545
			c-0.298-0.235-0.315-0.425-0.122-0.745c0.609-1.004,0.6-1.016,1.698-0.609c0.427,0.157,0.851,0.324,1.267,0.507
			c0.237,0.104,0.396,0.094,0.541-0.149c0.151-0.255,0.348-0.484,0.547-0.755c-0.489-0.636-0.974-1.289-1.485-1.918
			c-0.225-0.276-0.208-0.467,0.034-0.724c0.818-0.869,0.812-0.88,1.833-0.236c0.464,0.293,0.919,0.601,1.399,0.917
			c0.322-0.28,0.641-0.556,0.958-0.833c-0.359-0.751-0.704-1.49-1.066-2.219c-0.134-0.268-0.127-0.438,0.149-0.624
			c1.188-0.794,0.794-0.916,1.883,0.103c0.321,0.301,0.633,0.616,0.923,0.947c0.175,0.199,0.306,0.242,0.551,0.097
			c0.819-0.483,0.822-0.47,0.586-1.375c-0.134-0.516-0.229-1.043-0.377-1.555c-0.074-0.254-0.012-0.389,0.216-0.479
			c0.016-0.006,0.028-0.014,0.042-0.021c1.146-0.575,1.146-0.575,1.863,0.509c0.208,0.314,0.438,0.619,0.612,0.951
			c0.182,0.344,0.377,0.488,0.764,0.29c0.229-0.119,0.498-0.166,0.674-0.222c0-0.859,0.013-1.66-0.006-2.459
			c-0.007-0.32,0.074-0.465,0.42-0.532c1.205-0.233,1.204-0.25,1.649,0.895c0.147,0.38,0.312,0.757,0.417,1.149
			c0.098,0.356,0.306,0.433,0.625,0.375c0.155-0.028,0.312-0.065,0.468-0.063c0.274,0.003,0.379-0.126,0.421-0.389
			c0.101-0.633,0.227-1.263,0.345-1.894c0.032-0.168,0.079-0.333,0.128-0.537c0.461,0,0.917-0.02,1.368,0.014
			c0.111,0.009,0.276,0.181,0.302,0.302c0.145,0.691,0.282,1.386,0.358,2.086c0.035,0.32,0.136,0.445,0.441,0.456
			c0.281,0.01,0.562,0.051,0.892,0.083c0.276-0.674,0.553-1.354,0.837-2.031c0.267-0.633,0.271-0.632,0.919-0.481
			c1.017,0.234,1.014,0.234,0.94,1.274c-0.036,0.518-0.073,1.037-0.078,1.556c-0.001,0.116,0.125,0.237,0.204,0.348
			c0.021,0.031,0.085,0.033,0.13,0.048c0.844,0.285,0.84,0.283,1.331-0.456c0.297-0.445,0.61-0.878,0.904-1.325
			c0.153-0.234,0.309-0.288,0.587-0.174c1.165,0.477,1.17,0.466,0.865,1.677c-0.067,0.273-0.146,0.544-0.223,0.816
			c-0.075,0.269-0.152,0.537-0.234,0.824c0.368,0.219,0.718,0.427,1.104,0.656c0.558-0.536,1.133-1.064,1.68-1.623
			c0.302-0.307,0.549-0.311,0.875-0.04c1.029,0.851,0.936,0.441,0.394,1.606c-0.25,0.538-0.529,1.061-0.812,1.618
			c0.259,0.246,0.488,0.509,0.767,0.706c0.103,0.072,0.347,0.035,0.475-0.04c0.702-0.416,1.388-0.858,2.121-1.318
			c0.331,0.37,0.659,0.705,0.941,1.074c0.066,0.087,0.031,0.332-0.046,0.436C71.094,8.619,70.567,9.264,70.061,9.899z
			 M50.384,16.484c0.017-1.106-0.275-1.975-0.737-2.795c-0.708-1.259-1.429-2.512-2.118-3.78c-0.183-0.336-0.326-0.374-0.645-0.157
			c-1.293,0.886-2.445,1.913-3.397,3.166c-1.521,2.004-2.472,4.242-2.823,6.737c-0.058,0.401,0.035,0.603,0.469,0.568
			c0.125-0.01,0.251,0.002,0.377,0.004c1.258,0.021,2.515,0.048,3.771,0.057c0.578,0.005,1.163,0.028,1.732-0.052
			C49.024,19.949,50.387,18.351,50.384,16.484z M63.242,9.432c-0.279,0.503-0.52,0.959-0.78,1.402
			c-0.653,1.108-1.355,2.19-1.97,3.321c-1.649,3.038,0.232,6.229,3.688,6.271c1.522,0.019,3.048-0.012,4.571,0.001
			c0.67,0.006,0.678,0.016,0.606-0.681c-0.309-3.102-1.495-5.821-3.562-8.148C65.067,10.777,64.284,10.006,63.242,9.432z
			 M48.88,8.558c0.278,0.448,0.552,0.868,0.805,1.3c0.666,1.139,1.273,2.315,1.994,3.418c1.752,2.687,5.008,2.846,6.868,0.245
			c1.104-1.546,1.93-3.295,2.872-4.942C58.974,6.544,51.45,6.535,48.88,8.558z M47.034,33.271c0.342-0.621,0.649-1.184,0.963-1.744
			c0.644-1.152,1.37-2.266,1.912-3.464c0.681-1.506,0.594-3.016-0.536-4.323c-0.938-1.083-2.207-1.477-3.59-1.482
			c-1.559-0.006-3.115,0.066-4.674,0.082c-0.384,0.004-0.395,0.198-0.361,0.482c0.228,2.036,0.801,3.961,1.838,5.736
			C43.688,30.445,45.11,32.033,47.034,33.271z M48.896,34.261c2.782,2.004,10.713,1.943,12.487-0.047
			c-0.896-1.54-1.76-3.093-2.693-4.601c-1.707-2.757-5.002-2.956-6.928-0.356c-0.862,1.165-1.464,2.522-2.183,3.792
			C49.351,33.455,49.122,33.861,48.896,34.261z M69.512,22.247c-0.614,0-1.162,0-1.711,0c-1.461-0.001-2.926-0.074-4.382,0.013
			c-1.782,0.106-3.237,1.454-3.528,3.15c-0.208,1.212,0.075,2.346,0.685,3.4c0.744,1.292,1.512,2.573,2.246,3.872
			c0.182,0.319,0.336,0.284,0.588,0.108c2.042-1.42,3.646-3.224,4.733-5.464C68.911,25.745,69.433,24.09,69.512,22.247z
			 M59.462,21.287c-0.005-2.438-1.969-4.407-4.402-4.415c-2.433-0.008-4.417,1.997-4.411,4.456c0.006,2.496,1.97,4.379,4.57,4.384
			C57.5,25.715,59.466,23.666,59.462,21.287z"/>
		<path d="M101.099,64.378c-0.001,9.188-5.945,17.422-14.909,20.195c-8.021,2.481-15.312,0.881-21.574-4.771
			c-3.854-3.479-6.093-7.885-6.641-13.043c-0.729-6.858,1.436-12.756,6.354-17.596c3.016-2.968,6.645-4.814,10.786-5.686
			c8.991-1.891,18.46,2.296,23.086,10.232C100.146,57.05,101.099,60.555,101.099,64.378z M97.678,72.239
			c2.133-5.021,2.225-10.031,0.3-15.05c-0.841,0.105-1.625,0.259-2.415,0.301c-3.004,0.156-5.411-0.987-7.093-3.487
			c-1.466-2.176-1.669-4.592-1.044-7.094c0.101-0.396-0.009-0.509-0.341-0.642c-2.759-1.106-5.622-1.601-8.589-1.464
			c-2.01,0.093-3.961,0.492-5.859,1.158c-0.343,0.121-0.445,0.256-0.354,0.647c0.144,0.623,0.226,1.271,0.239,1.911
			c0.059,2.611-0.807,4.857-2.829,6.562c-1.919,1.616-4.174,2.11-6.628,1.762c-0.6-0.086-1.188-0.25-1.809-0.385
			c-2.16,5.084-2.229,10.168-0.207,15.308c1.38-0.357,2.705-0.584,4.092-0.363c2.167,0.346,3.966,1.303,5.257,3.082
			c1.631,2.252,1.979,4.768,1.315,7.432c-0.088,0.354-0.004,0.469,0.301,0.586c4.104,1.604,8.294,1.857,12.56,0.764
			c0.799-0.205,1.575-0.494,2.355-0.744C85.219,75.88,90.567,70.07,97.678,72.239z"/>
		<path fill="#FFFFFF" d="M30.983,69.71c-3.129,0.021-5.834-2.504-5.813-5.84c0.021-3.353,2.697-5.815,5.854-5.812
			c3.213,0.006,5.829,2.642,5.822,5.851C36.839,67.128,34.219,69.721,30.983,69.71z"/>
		<path fill="#FFFFFF" d="M41.904,79.585c-0.399-0.75-0.814-1.498-1.189-2.267c-0.047-0.096,0.075-0.35,0.188-0.438
			c2.178-1.726,3.772-3.888,4.862-6.431c0.684-1.594,1.075-3.266,1.246-5.006c0.982,0,1.948,0,2.906,0
			C50.625,69.438,45.429,78.591,41.904,79.585z"/>
		<path fill="#FFFFFF" d="M41.917,48.374c3.882,1.821,8.656,10.303,8.023,14.196c-0.962,0-1.929,0-2.831,0
			c-0.282-1.237-0.485-2.479-0.854-3.668c-0.938-3.049-2.695-5.565-5.138-7.62c-0.643-0.54-0.599-0.312-0.212-1.042
			C41.236,49.622,41.573,49.009,41.917,48.374z"/>
		<path fill="#FFFFFF" d="M24.336,79.048c4.578,1.888,9.047,1.804,13.516-0.219c0.51,0.803,1.009,1.588,1.508,2.373
			c-3.792,2.485-11.625,2.948-16.366,0.108C23.439,80.559,23.888,79.802,24.336,79.048z"/>
		<path fill="#FFFFFF" d="M39.439,46.825c-0.499,0.836-0.96,1.608-1.433,2.399c-4.594-2.131-9.197-2.21-13.864-0.211
			c-0.217-0.393-0.403-0.77-0.625-1.124c-0.222-0.353-0.479-0.683-0.76-1.079c2.938-1.482,6.013-2.082,9.229-1.939
			C34.597,44.987,37.076,45.632,39.439,46.825z"/>
		<path fill="#FFFFFF" d="M20.4,48.163c0.438,0.812,0.83,1.532,1.243,2.297c-1.956,1.399-3.552,3.123-4.769,5.192
			c-1.217,2.07-1.89,4.314-2.173,6.715c-0.856,0-1.699,0-2.604,0c0.252-2.622,0.973-5.077,2.201-7.381
			C15.764,52.239,17.79,49.993,20.4,48.163z"/>
		<path fill="#FFFFFF" d="M20.469,79.857c-0.993-0.416-1.699-1.119-2.417-1.795c-1.483-1.396-2.729-2.983-3.669-4.797
			c-0.101-0.193-0.128-0.477-0.076-0.688c0.312-1.306,0.655-2.601,0.989-3.9c1.104,3.63,3.202,6.595,6.358,8.849
			C21.263,78.294,20.871,79.066,20.469,79.857z"/>
		<path fill="#FFFFFF" d="M16.907,62.366c-0.522,0-0.989,0-1.503,0c0.582-4.718,2.757-8.46,6.574-11.283
			c0.244,0.45,0.474,0.875,0.714,1.321C19.375,54.915,17.462,58.232,16.907,62.366z"/>
		<path fill="#FFFFFF" d="M21.966,76.895c-3.895-2.902-6.05-6.715-6.584-11.502c0.525,0,1,0,1.329,0
			c0.435,1.481,0.741,2.914,1.271,4.258c0.886,2.24,2.327,4.11,4.243,5.593c0.338,0.263,0.411,0.485,0.165,0.843
			C22.23,76.314,22.126,76.583,21.966,76.895z"/>
		<path fill="#FFFFFF" d="M37.615,49.896c-0.239,0.396-0.464,0.769-0.69,1.146c-3.845-1.699-7.691-1.754-11.562-0.17
			c-0.056-0.063-0.102-0.104-0.134-0.156c-0.218-0.344-0.433-0.688-0.646-1.032C27.254,47.761,34.501,47.87,37.615,49.896z"/>
		<path fill="#FFFFFF" d="M24.705,78.438c0.25-0.427,0.479-0.814,0.729-1.24c3.778,1.521,7.545,1.488,11.299-0.113
			c0.097,0.146,0.186,0.271,0.269,0.404c0.142,0.225,0.277,0.451,0.454,0.736C33.217,80.141,28.998,80.198,24.705,78.438z"/>
		<path fill="#FFFFFF" d="M40.223,51.55c2.627,1.123,6.396,8.002,6.024,11.019c-0.398,0-0.801,0-1.222,0
			c-0.229-1.756-0.658-3.43-1.451-4.995c-0.913-1.802-2.137-3.358-3.698-4.642c-0.227-0.185-0.299-0.322-0.129-0.578
			c0.146-0.22,0.256-0.465,0.385-0.697C40.155,51.615,40.193,51.585,40.223,51.55z"/>
		<path fill="#FFFFFF" d="M45.029,65.37c0.431,0,0.832,0,1.293,0c-0.484,4.551-2.474,8.228-6.045,11.119
			c-0.112-0.207-0.216-0.392-0.313-0.576c-0.104-0.195-0.2-0.392-0.312-0.604C42.789,72.734,44.579,69.434,45.029,65.37z"/>
		<path fill="#FFFFFF" d="M6.383,83.079c-1.134,0.828-2.232,1.633-3.372,2.467c-0.696-1.334-1.36-2.608-2.056-3.938
			c1.204-0.48,2.387-0.953,3.614-1.443C5.155,81.104,5.748,82.057,6.383,83.079z"/>
		<path fill="#FFFFFF" d="M26.591,75.145c0.283-0.446,0.521-0.826,0.757-1.194c2.294,0.839,4.576,0.89,6.854,0.151
			c0.531-0.172,0.811-0.084,1.038,0.379c0.089,0.182,0.195,0.354,0.33,0.593C32.594,76.286,29.656,76.307,26.591,75.145z"/>
		<path fill="#FFFFFF" d="M35.753,53.139c-0.23,0.336-0.459,0.668-0.692,1.004c-0.66-0.181-1.296-0.394-1.949-0.524
			c-1.785-0.362-3.561-0.284-5.293,0.286c-0.408,0.137-0.646,0.066-0.835-0.297c-0.101-0.191-0.222-0.373-0.331-0.553
			C28.081,51.764,33.291,51.809,35.753,53.139z"/>
		<path fill="#FFFFFF" d="M19.249,65.4c0.504,0.082,0.911,0.148,1.29,0.213c0.459,2.603,1.61,4.746,3.58,6.438
			c0.091,0.08,0.18,0.277,0.144,0.369c-0.144,0.354-0.338,0.689-0.529,1.064C21.172,71.378,19.707,68.743,19.249,65.4z"/>
		<path fill="#FFFFFF" d="M38.511,73.305c-0.219-0.441-0.403-0.82-0.602-1.224c1.997-1.812,3.235-4.024,3.606-6.761
			c0.402-0.032,0.798-0.063,1.255-0.104C42.397,68.503,40.984,71.13,38.511,73.305z"/>
		<path fill="#FFFFFF" d="M23.957,54.55c0.172,0.38,0.333,0.732,0.455,1.002c-0.713,0.812-1.447,1.541-2.057,2.363
			c-0.912,1.231-1.488,2.631-1.753,4.151c-0.021,0.121-0.191,0.242-0.32,0.31c-0.103,0.056-0.246,0.028-0.372,0.032
			c-0.188,0.005-0.373,0.001-0.558,0.001C19.246,60.109,21.908,55.54,23.957,54.55z"/>
		<path fill="#FFFFFF" d="M9.9,79.867c-0.988,0.931-1.938,1.822-2.94,2.769c-0.595-0.967-1.147-1.866-1.706-2.772
			c0.987-0.609,1.969-1.217,2.981-1.844C8.755,78.596,9.3,79.2,9.9,79.867z"/>
		<path fill="#FFFFFF" d="M38.426,54.73c2.422,2.111,3.923,4.629,4.275,7.892c-0.404-0.056-0.718-0.062-1.006-0.149
			c-0.118-0.035-0.245-0.229-0.271-0.369c-0.326-1.797-1.062-3.398-2.223-4.808c-0.3-0.36-0.616-0.717-0.971-1.024
			c-0.304-0.265-0.354-0.504-0.146-0.838C38.21,55.234,38.292,55.011,38.426,54.73z"/>
		<path fill="#FFFFFF" d="M18.59,62.346c-0.333,0-0.625,0-0.971,0c0.54-3.857,2.333-6.927,5.406-9.306
			c0.169,0.306,0.312,0.562,0.476,0.854C20.762,56.057,19.103,58.85,18.59,62.346z"/>
		<path fill="#FFFFFF" d="M36.528,51.675c-0.021,0.056-0.037,0.115-0.067,0.166c-0.121,0.199-0.246,0.396-0.384,0.619
			c-3.249-1.367-6.517-1.428-9.839-0.123c-0.034-0.056-0.068-0.106-0.102-0.162c-0.13-0.213-0.259-0.428-0.388-0.644
			C28.874,50.014,33.527,50.077,36.528,51.675z"/>
		<path fill="#FFFFFF" d="M22.908,74.902c-3.072-2.413-4.837-5.543-5.321-9.459c0.239,0,0.44,0.015,0.641-0.004
			c0.271-0.022,0.352,0.115,0.383,0.354c0.299,2.222,1.107,4.235,2.497,5.996c0.522,0.664,1.12,1.274,1.731,1.858
			C23.434,74.214,23.462,74.186,22.908,74.902z"/>
		<path fill="#FFFFFF" d="M36.354,76.468c-3.497,1.486-6.978,1.529-10.528,0.119c0.078-0.155,0.141-0.287,0.211-0.412
			c0.067-0.12,0.145-0.237,0.238-0.393c3.198,1.237,6.394,1.223,9.598-0.06C36.034,75.975,36.184,76.206,36.354,76.468z"/>
		<path fill="#FFFFFF" d="M44.31,62.529c-0.829,0.117-0.824,0.117-0.946-0.567c-0.519-2.903-1.828-5.377-4.035-7.356
			c-0.581-0.521-0.582-0.521-0.068-1.265C42.171,55.729,43.841,58.773,44.31,62.529z"/>
		<path fill="#FFFFFF" d="M39.346,74.634c-0.462-0.688-0.472-0.7,0.045-1.182c2.249-2.101,3.606-4.656,4.017-7.713
			c0.016-0.123,0.057-0.242,0.098-0.408c0.126,0,0.265-0.004,0.401,0c0.121,0.004,0.243,0.019,0.419,0.028
			C43.895,69.128,42.25,72.189,39.346,74.634z"/>
		<path fill="#FFFFFF" d="M8.816,77.557c0.787-0.854,1.551-1.683,2.341-2.539c0.345,0.258,0.739,0.534,1.104,0.847
			c0.076,0.062,0.102,0.298,0.046,0.392c-0.604,1.021-1.23,2.028-1.888,3.1C9.816,78.677,9.307,78.105,8.816,77.557z"/>
		<path fill="#FFFFFF" d="M14.24,65.247c-0.256,1.629-0.698,3.125-1.234,4.619c-0.463-0.773-1.023-3.869-0.859-4.619
			C12.82,65.247,13.486,65.247,14.24,65.247z"/>
		<path fill="#FFFFFF" d="M27.877,54.521c1.901-0.762,4.663-0.69,6.783,0.181c-0.304,0.394-0.646,0.577-1.155,0.428
			c-1.587-0.471-3.187-0.448-4.789-0.071C28.281,55.159,28.022,54.993,27.877,54.521z"/>
		<path fill="#FFFFFF" d="M24.466,56.489c0.296,0.467,0.229,0.799-0.146,1.178c-1.002,1.008-1.716,2.213-2.098,3.582
			c-0.155,0.56-0.383,0.928-0.995,0.935C21.198,60.622,22.927,57.562,24.466,56.489z"/>
		<path fill="#FFFFFF" d="M21.155,65.663c0.462,0.185,0.848,0.276,0.985,0.758c0.437,1.509,1.19,2.838,2.315,3.938
			c0.364,0.355,0.185,0.707,0.083,1.142C22.724,69.962,21.646,68.048,21.155,65.663z"/>
		<path fill="#FFFFFF" d="M37.684,56.536c1.718,1.575,2.781,3.465,3.191,5.78c-0.574-0.11-0.878-0.342-1.016-0.879
			c-0.343-1.346-1.01-2.541-1.957-3.557C37.519,57.473,37.399,57.087,37.684,56.536z"/>
		<path fill="#FFFFFF" d="M37.84,71.212c-0.266-0.455-0.32-0.801,0.057-1.209c0.987-1.063,1.682-2.315,2.012-3.733
			c0.121-0.521,0.457-0.64,0.968-0.777C40.51,67.788,39.47,69.63,37.84,71.212z"/>
		<path fill="#FFFFFF" d="M34.321,73.327c-2.153,0.719-4.272,0.741-6.429,0.062c0.324-0.524,0.709-0.625,1.288-0.484
			c1.316,0.32,2.66,0.294,3.967-0.064C33.697,72.688,34.035,72.792,34.321,73.327z"/>
		<path fill="#FFFFFF" d="M22.823,61.542c-0.021-0.744,1.061-2.662,1.883-3.342C24.881,59.105,23.77,61.077,22.823,61.542z"/>
		<path fill="#FFFFFF" d="M33.347,72.193c-1.373,0.355-2.688,0.447-4.039,0.136C29.986,71.677,32.297,71.591,33.347,72.193z"/>
		<path fill="#FFFFFF" d="M24.802,69.884c-0.971-0.969-1.616-2.086-2.038-3.389C23.863,67.126,24.952,68.923,24.802,69.884z"/>
		<path fill="#FFFFFF" d="M37.55,69.497c-0.032-1.246,0.957-3.136,1.736-3.365C39.259,66.93,38.445,68.525,37.55,69.497z"/>
		<path fill="#FFFFFF" d="M29.159,55.673c1.266-0.33,2.528-0.332,3.786,0.069C31.682,56.087,30.42,56.098,29.159,55.673z"/>
		<path fill="#FFFFFF" d="M14.097,70.997c-0.286-0.056-0.482-0.093-0.729-0.14c0.421-1.256,0.832-2.483,1.243-3.711
			c0.037,0.006,0.075,0.012,0.112,0.019C14.517,68.425,14.311,69.688,14.097,70.997z"/>
		<path fill="#FFFFFF" d="M37.781,58.55c0.5,0.896,1,1.796,1.5,2.69C38.298,60.932,37.412,59.702,37.781,58.55z"/>
		<path fill="#FFFFFF" d="M12.485,75.085c-0.306-0.231-0.611-0.468-0.949-0.726c0.105-0.17,0.209-0.334,0.341-0.547
			c0.24,0.435,0.456,0.82,0.671,1.209C12.527,75.044,12.506,75.064,12.485,75.085z"/>
		<path fill="#FFFFFF" d="M50.384,16.484c0.004,1.866-1.359,3.464-3.372,3.747c-0.569,0.08-1.154,0.057-1.732,0.052
			c-1.257-0.009-2.514-0.037-3.771-0.057c-0.126-0.002-0.252-0.014-0.377-0.004c-0.434,0.035-0.524-0.167-0.469-0.568
			c0.353-2.495,1.301-4.733,2.823-6.737c0.952-1.253,2.104-2.28,3.397-3.166c0.317-0.217,0.462-0.179,0.645,0.157
			c0.689,1.269,1.41,2.521,2.118,3.78C50.108,14.51,50.4,15.378,50.384,16.484z"/>
		<path fill="#FFFFFF" d="M63.242,9.432c1.042,0.575,1.824,1.346,2.554,2.167c2.067,2.327,3.256,5.046,3.562,8.148
			c0.069,0.696,0.062,0.687-0.606,0.681c-1.523-0.014-3.049,0.017-4.571-0.001c-3.454-0.042-5.338-3.232-3.688-6.271
			c0.612-1.13,1.314-2.212,1.97-3.321C62.724,10.391,62.963,9.936,63.242,9.432z"/>
		<path fill="#FFFFFF" d="M48.88,8.558c2.569-2.023,10.094-2.013,12.539,0.021c-0.942,1.647-1.768,3.396-2.872,4.942
			c-1.86,2.601-5.116,2.441-6.868-0.245c-0.721-1.103-1.328-2.279-1.994-3.418C49.432,9.425,49.158,9.005,48.88,8.558z"/>
		<path fill="#FFFFFF" d="M47.034,33.271c-1.925-1.238-3.347-2.826-4.449-4.713c-1.038-1.774-1.611-3.7-1.838-5.736
			c-0.032-0.284-0.021-0.478,0.361-0.482c1.559-0.016,3.116-0.088,4.674-0.082c1.384,0.005,2.653,0.399,3.59,1.482
			c1.13,1.307,1.217,2.817,0.536,4.323c-0.542,1.198-1.271,2.312-1.912,3.464C47.685,32.087,47.376,32.65,47.034,33.271z"/>
		<path fill="#FFFFFF" d="M48.896,34.261c0.227-0.4,0.455-0.807,0.685-1.213c0.719-1.27,1.319-2.627,2.183-3.792
			c1.925-2.6,5.221-2.401,6.928,0.356c0.936,1.508,1.797,3.062,2.693,4.601C59.609,36.204,51.678,36.266,48.896,34.261z"/>
		<path fill="#FFFFFF" d="M69.512,22.247c-0.079,1.844-0.602,3.498-1.369,5.078c-1.09,2.24-2.691,4.043-4.733,5.464
			c-0.252,0.176-0.406,0.211-0.588-0.108c-0.734-1.298-1.502-2.579-2.246-3.872c-0.607-1.054-0.893-2.188-0.685-3.4
			c0.291-1.696,1.746-3.044,3.528-3.15c1.456-0.086,2.921-0.014,4.382-0.013C68.35,22.248,68.897,22.247,69.512,22.247z"/>
		<path fill="#FFFFFF" d="M59.462,21.287c0.004,2.379-1.962,4.429-4.243,4.425c-2.602-0.005-4.564-1.889-4.57-4.384
			c-0.005-2.459,1.979-4.464,4.411-4.456C57.493,16.879,59.457,18.85,59.462,21.287z"/>
		<path fill="#FFFFFF" d="M97.678,72.239c-7.11-2.169-12.46,3.643-10.748,10.282c-0.78,0.25-1.559,0.539-2.355,0.744
			c-4.266,1.096-8.453,0.842-12.56-0.764c-0.305-0.117-0.389-0.23-0.301-0.586c0.662-2.664,0.313-5.18-1.315-7.432
			c-1.291-1.779-3.09-2.736-5.257-3.082c-1.387-0.221-2.712,0.006-4.092,0.363c-2.021-5.14-1.953-10.224,0.207-15.308
			c0.621,0.135,1.209,0.299,1.809,0.385c2.454,0.351,4.709-0.146,6.628-1.762c2.022-1.705,2.888-3.951,2.829-6.562
			c-0.016-0.641-0.098-1.288-0.239-1.911c-0.092-0.394,0.013-0.526,0.354-0.647c1.898-0.666,3.852-1.065,5.859-1.158
			c2.967-0.137,5.83,0.355,8.589,1.464c0.332,0.133,0.439,0.245,0.341,0.642c-0.625,2.502-0.422,4.918,1.044,7.094
			c1.682,2.5,4.089,3.646,7.093,3.487c0.79-0.042,1.574-0.192,2.415-0.301C99.902,62.208,99.811,67.221,97.678,72.239z
			 M73.102,52.732c4.354,0,8.601,0,12.946,0c-2.203-2.123-4.335-4.174-6.474-6.233C77.411,48.583,75.295,50.62,73.102,52.732z
			 M67.959,70.757c0-4.164,0-8.224,0-12.368c-2.214,2.094-4.366,4.129-6.541,6.187C63.604,66.641,65.745,68.665,67.959,70.757z
			 M97.608,64.727c-2.14-2.064-4.249-4.105-6.404-6.189c0,4.148,0,8.193,0,12.359C93.384,68.794,95.481,66.773,97.608,64.727z
			 M85.935,76.938c-4.277,0-8.438,0-12.72,0c2.174,2.092,4.26,4.104,6.36,6.127C81.699,81.018,83.777,79.016,85.935,76.938z"/>
		<path d="M73.102,52.732c2.192-2.112,4.311-4.149,6.475-6.233c2.139,2.061,4.271,4.11,6.474,6.233
			C81.701,52.732,77.457,52.732,73.102,52.732z"/>
		<path d="M67.959,70.757c-2.214-2.092-4.354-4.116-6.541-6.184c2.175-2.058,4.327-4.093,6.541-6.188
			C67.959,62.534,67.959,66.593,67.959,70.757z"/>
		<path d="M97.608,64.727c-2.127,2.049-4.226,4.067-6.404,6.17c0-4.166,0-8.211,0-12.359C93.359,60.62,95.47,62.661,97.608,64.727z"
			/>
		<path d="M85.935,76.938c-2.157,2.078-4.234,4.08-6.357,6.127c-2.103-2.023-4.188-4.035-6.36-6.127
			C77.495,76.938,81.656,76.938,85.935,76.938z"/>
	</g>
</g>
<g>
	<g>
		<path id="SVGID_1_" d="M93.571,94.104v0.777h-4.672v-0.777h3.114v-0.779h-2.336v-0.778h-0.778v-0.778h0.778v-0.778h3.894v0.778
			h-2.336v0.778h2.336v0.778h0.778v0.779H93.571L93.571,94.104z M96.685,93.323v0.778H99.8v0.778h-3.894v-0.778h-0.778v-2.336h0.778
			v-0.779H99.8v0.779h0.778v1.558H96.685L96.685,93.323z M99.021,91.768h-2.336v0.777h2.336V91.768L99.021,91.768z"/>
	</g>
	<g>
		<defs>
			<path id="SVGID_2_" d="M93.571,94.104v0.777h-4.672v-0.777h3.114v-0.779h-2.336v-0.778h-0.778v-0.778h0.778v-0.778h3.894v0.778
				h-2.336v0.778h2.336v0.778h0.778v0.779H93.571L93.571,94.104z M96.685,93.323v0.778H99.8v0.778h-3.894v-0.778h-0.778v-2.336
				h0.778v-0.779H99.8v0.779h0.778v1.558H96.685L96.685,93.323z M99.021,91.768h-2.336v0.777h2.336V91.768L99.021,91.768z"/>
		</defs>
		<use xlink:href="#SVGID_2_"  overflow="visible"/>
		<clipPath id="SVGID_4_">
			<use xlink:href="#SVGID_2_"  overflow="visible"/>
		</clipPath>
		<g clip-path="url(#SVGID_4_)">
		</g>
	</g>
</g>
<g>
	<g>
		<polygon id="SVGID_3_" points="86.203,94.879 87.76,94.879 87.76,93.32 86.203,93.32 		"/>
	</g>
	<g>
		<defs>
			<rect id="SVGID_6_" x="86.203" y="93.32" width="1.557" height="1.559"/>
		</defs>
		<use xlink:href="#SVGID_6_"  overflow="visible"/>
		<clipPath id="SVGID_8_">
			<use xlink:href="#SVGID_6_"  overflow="visible"/>
		</clipPath>
		<g clip-path="url(#SVGID_8_)">
		</g>
	</g>
</g>
<g>
	<g>
		<polygon id="SVGID_5_" points="25.515,89.574 25.515,90.354 26.302,90.354 26.302,94.246 25.515,94.246 25.515,95.023 
			28.662,95.023 28.662,94.246 27.876,94.246 27.876,89.574 		"/>
	</g>
	<g>
		<defs>
			<polygon id="SVGID_10_" points="25.515,89.574 25.515,90.354 26.302,90.354 26.302,94.246 25.515,94.246 25.515,95.023 
				28.662,95.023 28.662,94.246 27.876,94.246 27.876,89.574 			"/>
		</defs>
		<use xlink:href="#SVGID_10_"  overflow="visible"/>
		<clipPath id="SVGID_12_">
			<use xlink:href="#SVGID_10_"  overflow="visible"/>
		</clipPath>
		<g clip-path="url(#SVGID_12_)">
		</g>
	</g>
</g>
<g>
	<g>
		<polygon id="SVGID_7_" points="21.65,89.574 21.65,90.354 22.437,90.354 22.437,94.246 21.65,94.246 21.65,95.023 24.797,95.023 
			24.797,94.246 24.01,94.246 24.01,89.574 		"/>
	</g>
	<g>
		<defs>
			<polygon id="SVGID_13_" points="21.65,89.574 21.65,90.354 22.437,90.354 22.437,94.246 21.65,94.246 21.65,95.023 
				24.797,95.023 24.797,94.246 24.01,94.246 24.01,89.574 			"/>
		</defs>
		<use xlink:href="#SVGID_13_"  overflow="visible"/>
		<clipPath id="SVGID_14_">
			<use xlink:href="#SVGID_13_"  overflow="visible"/>
		</clipPath>
		<g clip-path="url(#SVGID_14_)">
		</g>
	</g>
</g>
<g>
	<g>
		<path id="SVGID_9_" d="M14.568,94.248v0.779H9.847v-0.779H9.06v-2.336h0.787v-0.779h3.935v0.779h0.786v0.777h-1.572v-0.777h-2.36
			v2.336H14.568L14.568,94.248z M20.075,94.248v0.779h-3.935v-0.779h-0.787v-2.336h0.787v-0.779h3.935v0.779h0.786v2.336H20.075
			L20.075,94.248z M19.288,91.912h-2.36v2.336h2.36V91.912L19.288,91.912z"/>
	</g>
	<g>
		<defs>
			<path id="SVGID_15_" d="M14.568,94.248v0.779H9.847v-0.779H9.06v-2.336h0.787v-0.779h3.935v0.779h0.786v0.777h-1.572v-0.777
				h-2.36v2.336H14.568L14.568,94.248z M20.075,94.248v0.779h-3.935v-0.779h-0.787v-2.336h0.787v-0.779h3.935v0.779h0.786v2.336
				H20.075L20.075,94.248z M19.288,91.912h-2.36v2.336h2.36V91.912L19.288,91.912z"/>
		</defs>
		<use xlink:href="#SVGID_15_"  overflow="visible"/>
		<clipPath id="SVGID_16_">
			<use xlink:href="#SVGID_15_"  overflow="visible"/>
		</clipPath>
		<g clip-path="url(#SVGID_16_)">
		</g>
	</g>
</g>
<g>
	<g>
		<path id="SVGID_11_" d="M29.995,95.042v-0.778h-0.787v-2.336h0.787v-0.779h4.72v3.895L29.995,95.042L29.995,95.042z
			 M33.142,91.928h-2.359v2.336h2.359V91.928L33.142,91.928z M40.223,94.264v0.778h-4.721v-5.45h1.573v1.557h3.146v0.779h0.787
			v2.336H40.223L40.223,94.264z M39.436,91.928h-2.359v2.336h2.359V91.928L39.436,91.928z M46.517,94.264v0.778h-3.934v-0.778
			h-0.787v-2.336h0.787v-0.779h3.934v0.779h0.787v2.336H46.517L46.517,94.264z M45.73,91.928H43.37v2.336h2.359V91.928L45.73,91.928
			z M52.024,92.706v-0.778h-2.359v3.114H48.09v-3.894h4.721v0.778h0.787v0.778L52.024,92.706L52.024,92.706z M55.172,95.042v-0.778
			h-0.787v-2.336h0.787v-0.779h4.72v3.895L55.172,95.042L55.172,95.042z M58.318,91.928h-2.359v2.336h2.359V91.928L58.318,91.928z
			 M66.186,93.484v0.779h-0.787v0.777h-2.359v-0.777h-0.787v-2.337h-1.573v-0.778h1.573V90.37h1.574v0.778h1.572v0.778h-1.572v2.337
			h0.785v-0.779H66.186L66.186,93.484z M71.693,94.264v0.778H67.76v-0.778h-0.787v-2.336h0.787v-0.779h3.934v0.779h0.787v2.336
			H71.693L71.693,94.264z M70.907,91.928h-2.36v2.336h2.36V91.928L70.907,91.928z M77.201,92.706v-0.778h-2.36v3.114h-1.574v-3.894
			h4.721v0.778h0.787v0.778L77.201,92.706L77.201,92.706z M84.282,95.042v0.778h-3.936v-0.778h3.147v-0.778h-3.147v-0.777h-0.786
			v-2.338h1.573v2.338h2.36v-2.338h1.572v3.895L84.282,95.042L84.282,95.042z"/>
	</g>
	<g>
		<defs>
			<path id="SVGID_17_" d="M29.995,95.042v-0.778h-0.787v-2.336h0.787v-0.779h4.72v3.895L29.995,95.042L29.995,95.042z
				 M33.142,91.928h-2.359v2.336h2.359V91.928L33.142,91.928z M40.223,94.264v0.778h-4.721v-5.45h1.573v1.557h3.146v0.779h0.787
				v2.336H40.223L40.223,94.264z M39.436,91.928h-2.359v2.336h2.359V91.928L39.436,91.928z M46.517,94.264v0.778h-3.934v-0.778
				h-0.787v-2.336h0.787v-0.779h3.934v0.779h0.787v2.336H46.517L46.517,94.264z M45.73,91.928H43.37v2.336h2.359V91.928
				L45.73,91.928z M52.024,92.706v-0.778h-2.359v3.114H48.09v-3.894h4.721v0.778h0.787v0.778L52.024,92.706L52.024,92.706z
				 M55.172,95.042v-0.778h-0.787v-2.336h0.787v-0.779h4.72v3.895L55.172,95.042L55.172,95.042z M58.318,91.928h-2.359v2.336h2.359
				V91.928L58.318,91.928z M66.186,93.484v0.779h-0.787v0.777h-2.359v-0.777h-0.787v-2.337h-1.573v-0.778h1.573V90.37h1.574v0.778
				h1.572v0.778h-1.572v2.337h0.785v-0.779H66.186L66.186,93.484z M71.693,94.264v0.778H67.76v-0.778h-0.787v-2.336h0.787v-0.779
				h3.934v0.779h0.787v2.336H71.693L71.693,94.264z M70.907,91.928h-2.36v2.336h2.36V91.928L70.907,91.928z M77.201,92.706v-0.778
				h-2.36v3.114h-1.574v-3.894h4.721v0.778h0.787v0.778L77.201,92.706L77.201,92.706z M84.282,95.042v0.778h-3.936v-0.778h3.147
				v-0.778h-3.147v-0.777h-0.786v-2.338h1.573v2.338h2.36v-2.338h1.572v3.895L84.282,95.042L84.282,95.042z"/>
		</defs>
		<use xlink:href="#SVGID_17_"  overflow="visible"/>
		<clipPath id="SVGID_18_">
			<use xlink:href="#SVGID_17_"  overflow="visible"/>
		</clipPath>
		<g clip-path="url(#SVGID_18_)">
		</g>
	</g>
</g>
</svg>
