<?xml version="1.0" encoding="utf-8"?>
<!-- Generator: Adobe Illustrator 16.0.0, SVG Export Plug-In . SVG Version: 6.00 Build 0)  -->
<!DOCTYPE svg PUBLIC "-//W3C//DTD SVG 1.1//EN" "http://www.w3.org/Graphics/SVG/1.1/DTD/svg11.dtd">
<svg version="1.1" id="Layer_1" xmlns="http://www.w3.org/2000/svg" xmlns:xlink="http://www.w3.org/1999/xlink" x="0px" y="0px"
	 width="400px" height="31.625px" viewBox="0 0 400 31.625" enable-background="new 0 0 400 31.625" xml:space="preserve">
<g>
	<g>
		<path fill-rule="evenodd" clip-rule="evenodd" d="M19.371,19.142h9.42C27.937,33.391,6.128,29.863,3.474,17.669
			C1.61,9.105,9.993,1.388,17.898,2.656c4.48,0.719,7.395,2.773,10.304,5.004l2.06-2.06C20.82-6.094-5.744,1.74,1.119,20.908
			c4.869,13.599,31.416,14.586,30.909-4.71H19.371V19.142z M71.475,11.194c0.491,0.588,0.981,1.177,1.472,1.766v0.589
			c4.7-3.923,6.447-9.421,13.835-10.892c14.273-2.841,18.471,17.157,9.42,23.55c-6.288,4.441-13.873,1.183-17.957-2.944
			C69.275,14.201,67.6,0.056,49.397,0.007c-9.214,4.495-18.881,13.366-9.42,25.611c8.345,10.798,24.781,3.761,28.849-5.889
			c0.196-0.196,0.393-0.392,0.589-0.588c-0.393-0.59-0.785-1.178-1.178-1.767c-0.294-0.197-0.588-0.393-0.883-0.589
			c-4.12,6.591-13.176,16.326-22.961,9.125c-8.172-6.013-4.43-19.689,3.827-22.666c14.751-5.32,23.862,21.123,32.97,26.493
			c8.849,5.217,19.357-1.354,22.079-7.947C112.526-0.647,78.847-7.126,71.475,11.194z M243.097,5.012
			c0.59-1.222,1.157-1.485,2.355-2.061c3.565-0.098,5.458,1.162,6.476,3.533c0.589-0.294,1.177-0.589,1.767-0.883
			c0.295-0.393,0.588-0.785,0.883-1.178c-2.996-2.408-3.85-4.563-9.715-4.416c-18.012,11.306,13.762,17.329,5.888,26.199
			c-0.871,1.612-2.669,2.234-5.005,2.354c-2.766-1.577-3.702-3.104-5.887-5.004c-0.49,0.393-0.981,0.785-1.473,1.178
			c-0.195,0.098-0.392,0.196-0.588,0.294c3.369,6.888,15.689,9.018,17.368-0.883C256.747,14.832,239.521,12.27,243.097,5.012z
			 M110.333,0.596v29.733c10.325,0.238,18.999,0.498,22.961-5.594c1.588-2.441,2.274-6.398,2.061-9.715
			C134.495,1.698,124.841,0.237,110.333,0.596z M132.412,17.375c-0.607,3.359-1.136,5.9-3.238,7.653
			c-3.373,2.812-9.505,2.847-15.896,2.649V3.54C124.526,3.203,134.488,5.882,132.412,17.375z M150.074,3.54h6.476v26.789h2.944V3.54
			h6.771V0.596h-16.19V3.54z M170.386,30.329h2.649V0.596h-2.649V30.329z M208.066,0.596c-4.022,8.045-8.047,16.094-12.069,24.139
			c-0.196,0.098-0.392,0.196-0.588,0.294c-3.925-7.947-7.851-15.896-11.775-23.844c-0.098-0.196-0.196-0.392-0.294-0.589
			c-1.472,9.91-2.944,19.823-4.416,29.733h2.65c0.981-6.869,1.962-13.739,2.943-20.607V9.133h0.294
			c3.336,6.965,6.673,13.934,10.009,20.901c0.491,0.099,0.981,0.196,1.472,0.295c3.334-6.771,6.673-13.543,10.009-20.313V9.427
			c1.729,2.274,3.07,17.037,3.238,20.902h2.944c-1.473-9.715-2.944-19.431-4.417-29.144V0.596z M218.37,30.329h17.074v-2.65h-14.131
			V15.904h14.131v-2.944h-14.131V3.54h14.131V0.596H218.37V30.329z M300.5,0.596c-3.826,8.045-7.653,16.094-11.48,24.139
			c-0.196,0.098-0.394,0.196-0.589,0.294c-3.925-8.046-7.85-16.093-11.775-24.139c-0.196-0.098-0.392-0.196-0.588-0.294
			c-1.473,9.812-2.944,19.626-4.417,29.438v0.295h2.944c0.883-7.065,1.768-14.132,2.65-21.196
			c3.629,7.064,7.261,14.13,10.892,21.196h0.588c3.435-6.869,6.869-13.739,10.304-20.607c0.196-0.098,0.393-0.197,0.589-0.295
			c0.981,6.77,1.963,13.542,2.943,20.312c0.636,0.644,1.269,0.629,2.649,0.59c-1.374-9.91-2.747-19.823-4.121-29.733H300.5z
			 M311.393,30.329h16.778v-2.65h-13.834V15.904h13.834v-2.944h-13.834V3.54h14.129V0.596h-17.073V30.329z M333.766,0.596v29.733
			c9.815,0.234,18.317,0.482,22.371-5.005c1.954-2.645,3.182-7.349,2.356-11.775C356.268,1.625,348.134,0.236,333.766,0.596z
			 M352.017,25.324c-3.405,2.558-9.446,2.544-15.602,2.354V3.54c5.229-0.156,10.872-0.189,14.129,1.766
			C356.178,8.687,358.051,20.792,352.017,25.324z M364.38,30.329h2.65V0.596h-2.65V30.329z M385.575,0.596
			c-4.61,9.812-9.223,19.626-13.834,29.438v0.295h3.237c1.472-3.238,2.944-6.477,4.415-9.715h12.658
			c1.57,3.238,3.142,6.477,4.71,9.715H400C398.555,25.983,388.27,2.093,385.575,0.596z M380.866,17.964
			c1.668-3.631,3.337-7.262,5.004-10.893c1.669,3.631,3.337,7.262,5.005,10.893H380.866z"/>
	</g>
</g>
</svg>
