<svg xmlns="http://www.w3.org/2000/svg" viewBox="0 0 1912.5 225"><defs><style>  .a{fill:none;}.b{fill:black;}</style></defs><path class="a" d="M1248.8 135H1170v45h78.8a22.5 22.5 0 0 0 0-45Z"></path><path class="a" d="M1260 67.5A22.5 22.5 0 0 0 1237.5 45H1170V90h67.5A22.5 22.5 0 0 0 1260 67.5Z"></path><polygon class="b" points="1035 153.6 927.5 0 877.5 0 877.5 225 922.5 225 922.5 71.4 1030 225 1080 225 1080 0 1035 0 1035 153.6"></polygon><polygon class="b" points="1373 0 1318 0 1417.5 142.1 1417.5 225 1462.5 225 1462.5 127.9 1373 0"></polygon><path class="b" d="M1292.7 106.3A67.5 67.5 0 0 0 1237.5 0H1125V225h123.8a67.5 67.5 0 0 0 43.9-118.7ZM1170 45h67.5a22.5 22.5 0 0 1 0 45H1170Zm78.8 135H1170V135h78.8a22.5 22.5 0 0 1 0 45Z"></path><polygon class="b" points="1912.5 45 1912.5 0 1755 0 1755 225 1912.5 225 1912.5 180 1800 180 1800 135 1890 135 1890 90 1800 90 1800 45 1912.5 45"></polygon><polygon class="b" points="675 225 832.5 225 832.5 180 720 180 720 135 810 135 810 90 720 90 720 45 832.5 45 832.5 0 675 0 675 225"></polygon><polygon class="b" points="472.5 225 630 225 630 180 517.5 180 517.5 135 607.5 135 607.5 90 517.5 90 517.5 45 630 45 630 0 472.5 0 472.5 225"></polygon><path class="b" d="M112.5 135h45v27.8a67.5 67.5 0 1 1 2.7-98L192 33A112.5 112.5 0 1 0 202.5 180h0V90h-90Z"></path><polygon class="b" points="1620 0 1575 0 1561.5 0 1530 45 1597.5 45 1597.5 225 1642.5 225 1642.5 45 1710 45 1710 0 1642.5 0 1620 0"></polygon><path class="b" d="M427.5 78.8A78.8 78.8 0 0 0 348.8 0H247.5V225h45V45h56.3a33.8 33.8 0 0 1 0 67.5H293.2L371.9 225h54.9l-50.7-72.4A78.9 78.9 0 0 0 427.5 78.8Z"></path></svg>
