<?xml version="1.0" encoding="UTF-8" standalone="no"?>
<svg width="1600px" height="278px" viewBox="0 0 1600 278" version="1.1" xmlns="http://www.w3.org/2000/svg" xmlns:xlink="http://www.w3.org/1999/xlink" xmlns:sketch="http://www.bohemiancoding.com/sketch/ns">
    <!-- Generator: Sketch 3.5 (25232) - http://www.bohemiancoding.com/sketch -->
    <title>2_1_large_color</title>
    <desc>Created with Sketch.</desc>
    <defs></defs>
    <g id="Page-1" stroke="none" stroke-width="1" fill="none" fill-rule="evenodd" sketch:type="MSPage">
        <g id="Group-5" sketch:type="MSLayerGroup">
            <g id="Group-6-Copy" transform="translate(335.832930, 67.090052)" fill="#222222" sketch:type="MSShapeGroup">
                <path d="M42.2191854,78.1267206 C64.2675064,78.1267206 68.9281271,85.6554155 68.9281271,102.684607 L68.9281271,105.014917 C68.9281271,117.024978 68.9281271,126.704729 71.0791828,132.082368 L89.004647,132.082368 C87.0328459,126.704729 87.2121006,116.128705 87.2121006,107.524482 L87.2121006,102.146843 C87.2121006,80.4570309 78.2493685,72.928336 68.9281271,70.418771 C80.2211695,67.0129328 89.5424109,57.3331821 89.5424109,41.0210097 C89.5424109,21.6615083 75.7398035,7.5003916 49.927135,7.5003916 L0.0943445485,7.5003916 L0.0943445485,132.082368 L18.378318,132.082368 L18.378318,78.1267206 L42.2191854,78.1267206 Z M18.378318,22.9162908 L46.1627876,22.9162908 C62.2957053,22.9162908 70.5414189,30.0864765 70.5414189,42.6343014 C70.5414189,56.0783996 62.8334693,62.890076 44.5494958,62.890076 L18.378318,62.890076 L18.378318,22.9162908 Z M183.982822,89.7782723 C184.341332,87.2687073 184.341332,85.1176516 184.341332,82.2495773 C184.341332,62.1730574 174.482326,38.6906993 144.726056,38.6906993 C116.583077,38.6906993 102.780469,60.0220017 102.780469,87.447962 C102.780469,111.109575 114.79053,134.233424 143.650528,134.233424 C169.463196,134.233424 179.142947,118.100506 182.72804,106.448954 L164.98183,106.448954 C162.293011,112.902121 157.811645,119.713798 144.188292,119.713798 C129.310156,119.713798 120.705934,106.986718 120.526679,89.7782723 L183.982822,89.7782723 Z M121.064443,77.7682113 C122.49848,62.890076 129.130902,52.3140521 144.546801,52.3140521 C159.424936,52.3140521 166.415867,63.6070946 166.595122,77.7682113 L121.064443,77.7682113 Z M257.271186,103.939389 C253.865348,113.977649 247.591435,119.893052 236.656902,119.893052 C221.778767,119.893052 213.353799,106.807463 213.353799,86.3724341 C213.353799,66.2959142 221.958021,53.2103253 237.194666,53.2103253 C249.742491,53.2103253 255.299385,60.5597657 257.271186,69.5224978 L274.658886,69.5224978 C273.583358,58.0502007 264.620626,38.6906993 237.553175,38.6906993 C210.127215,38.6906993 195.24908,60.9182749 195.24908,86.910198 C195.24908,115.770195 210.664979,134.233424 236.298393,134.233424 C260.318515,134.233424 270.894539,119.534543 274.658886,103.939389 L257.271186,103.939389 Z M327.51222,38.6906993 C299.727751,38.6906993 283.953342,59.4842378 283.953342,86.5516887 C283.953342,113.977649 299.907006,134.233424 326.436693,134.233424 C354.579671,134.233424 369.816316,112.902121 369.816316,86.1931795 C369.816316,57.6916914 353.145634,38.6906993 327.51222,38.6906993 L327.51222,38.6906993 Z M326.795202,53.2103253 C342.92812,53.2103253 351.890852,66.2959142 351.890852,86.5516887 C351.890852,106.628209 342.92812,119.713798 327.153711,119.713798 C311.558557,119.713798 302.058061,105.91119 302.058061,86.3724341 C302.058061,65.9374049 310.662284,53.2103253 326.795202,53.2103253 L326.795202,53.2103253 Z M385.922449,132.082368 L403.489404,132.082368 L403.489404,88.7027445 C403.489404,65.2203863 415.32021,56.4369089 433.962693,56.0783996 L433.962693,38.6906993 C418.726048,39.0492086 408.150024,46.9364129 403.489404,58.9464739 C403.489404,50.880015 403.310149,43.35132 402.95164,40.841755 L385.743194,40.841755 C385.743194,46.2193943 385.922449,53.5688346 385.922449,65.5788956 L385.922449,132.082368 Z M505.100001,0.688715204 L505.100001,49.8044871 C502.590436,44.7853572 495.42025,38.6906993 480.004351,38.6906993 C454.550192,38.6906993 438.955038,59.3049832 438.955038,87.447962 C438.955038,115.232431 453.474664,134.233424 476.957022,134.233424 C491.655903,134.233424 500.618635,128.855784 505.100001,119.713798 C505.100001,123.119636 505.45851,129.572803 505.817019,132.082368 L522.84621,132.082368 C522.666956,123.29889 522.666956,114.873922 522.666956,106.448954 L522.666956,0.688715204 L505.100001,0.688715204 Z M457.239011,86.910198 C457.239011,65.5788956 466.560253,53.38958 482.155407,53.38958 C501.873417,53.38958 505.637765,65.9374049 505.637765,85.2969063 C505.637765,104.118644 501.514908,119.534543 480.900624,119.534543 C467.098017,119.534543 457.239011,108.062246 457.239011,86.910198 L457.239011,86.910198 Z M619.796187,89.7782723 C620.154696,87.2687073 620.154696,85.1176516 620.154696,82.2495773 C620.154696,62.1730574 610.295691,38.6906993 580.53942,38.6906993 C552.396441,38.6906993 538.593834,60.0220017 538.593834,87.447962 C538.593834,111.109575 550.603895,134.233424 579.463892,134.233424 C605.276561,134.233424 614.956311,118.100506 618.541404,106.448954 L600.795195,106.448954 C598.106375,112.902121 593.625009,119.713798 580.001656,119.713798 C565.123521,119.713798 556.519298,106.986718 556.340043,89.7782723 L619.796187,89.7782723 Z M556.877807,77.7682113 C558.311844,62.890076 564.944266,52.3140521 580.360165,52.3140521 C595.238301,52.3140521 602.229232,63.6070946 602.408486,77.7682113 L556.877807,77.7682113 Z M697.028152,0.688715204 L697.028152,49.8044871 C694.518587,44.7853572 687.348402,38.6906993 671.932502,38.6906993 C646.478343,38.6906993 630.883189,59.3049832 630.883189,87.447962 C630.883189,115.232431 645.402815,134.233424 668.885173,134.233424 C683.584054,134.233424 692.546786,128.855784 697.028152,119.713798 C697.028152,123.119636 697.386662,129.572803 697.745171,132.082368 L714.774362,132.082368 C714.595107,123.29889 714.595107,114.873922 714.595107,106.448954 L714.595107,0.688715204 L697.028152,0.688715204 Z M649.167163,86.910198 C649.167163,65.5788956 658.488404,53.38958 674.083558,53.38958 C693.801569,53.38958 697.565916,65.9374049 697.565916,85.2969063 C697.565916,104.118644 693.443059,119.534543 672.828776,119.534543 C659.026168,119.534543 649.167163,108.062246 649.167163,86.910198 L649.167163,86.910198 Z M781.045009,132.082368 L799.149728,132.082368 L799.149728,77.409702 L858.30376,77.409702 L858.30376,61.8145481 L799.149728,61.8145481 L799.149728,23.2748001 L862.247362,23.2748001 L862.247362,7.5003916 L781.045009,7.5003916 L781.045009,132.082368 Z M948.083551,40.841755 L930.516596,40.841755 L930.516596,88.5234898 C930.516596,110.571811 924.421938,119.176034 908.647529,119.176034 C894.307158,119.176034 890.722065,108.60001 890.722065,96.948458 L890.722065,40.841755 L873.15511,40.841755 L873.15511,100.712805 C873.15511,125.808455 887.316227,134.233424 903.449145,134.233424 C917.251752,134.233424 925.855975,128.855784 930.516596,118.996779 C930.516596,124.195164 930.69585,129.752057 931.05436,132.082368 L948.262805,132.082368 C948.262805,126.166965 948.083551,114.336158 948.083551,105.552681 L948.083551,40.841755 Z M961.142355,54.8236171 L976.558254,54.8236171 L976.558254,110.213302 C976.558254,125.629201 982.652912,133.33715 997.710301,133.33715 C1002.19167,133.33715 1007.74856,133.157896 1011.87142,131.723859 L1011.87142,118.63827 C1009.54111,119.355288 1006.49378,119.355288 1004.34272,119.355288 C996.276264,119.355288 994.125209,115.232431 994.125209,106.628209 L994.125209,54.8236171 L1013.84322,54.8236171 L1013.84322,40.841755 L994.125209,40.841755 L994.125209,14.312068 L976.558254,14.312068 L976.558254,40.841755 L961.142355,40.841755 L961.142355,54.8236171 Z M1099.3209,40.841755 L1081.75394,40.841755 L1081.75394,88.5234898 C1081.75394,110.571811 1075.65929,119.176034 1059.88488,119.176034 C1045.54451,119.176034 1041.95941,108.60001 1041.95941,96.948458 L1041.95941,40.841755 L1024.39246,40.841755 L1024.39246,100.712805 C1024.39246,125.808455 1038.55357,134.233424 1054.68649,134.233424 C1068.4891,134.233424 1077.09332,128.855784 1081.75394,118.996779 C1081.75394,124.195164 1081.9332,129.752057 1082.29171,132.082368 L1099.50015,132.082368 C1099.50015,126.166965 1099.3209,114.336158 1099.3209,105.552681 L1099.3209,40.841755 Z M1121.70094,132.082368 L1139.2679,132.082368 L1139.2679,88.7027445 C1139.2679,65.2203863 1151.09871,56.4369089 1169.74119,56.0783996 L1169.74119,38.6906993 C1154.50454,39.0492086 1143.92852,46.9364129 1139.2679,58.9464739 C1139.2679,50.880015 1139.08864,43.35132 1138.73013,40.841755 L1121.52169,40.841755 C1121.52169,46.2193943 1121.70094,53.5688346 1121.70094,65.5788956 L1121.70094,132.082368 Z M1255.93589,89.7782723 C1256.29439,87.2687073 1256.29439,85.1176516 1256.29439,82.2495773 C1256.29439,62.1730574 1246.43539,38.6906993 1216.67912,38.6906993 C1188.53614,38.6906993 1174.73353,60.0220017 1174.73353,87.447962 C1174.73353,111.109575 1186.74359,134.233424 1215.60359,134.233424 C1241.41626,134.233424 1251.09601,118.100506 1254.6811,106.448954 L1236.93489,106.448954 C1234.24607,112.902121 1229.76471,119.713798 1216.14136,119.713798 C1201.26322,119.713798 1192.659,106.986718 1192.47974,89.7782723 L1255.93589,89.7782723 Z M1193.01751,77.7682113 C1194.45154,62.890076 1201.08397,52.3140521 1216.49986,52.3140521 C1231.378,52.3140521 1238.36893,63.6070946 1238.54819,77.7682113 L1193.01751,77.7682113 Z" id="Recorded-Future-Copy-2"></path>
            </g>
            <g id="Group-4-Copy-6" sketch:type="MSShapeGroup">
                <path d="M151.697219,114.23065 C151.683773,119.510343 147.402508,123.791175 142.11278,123.812714 C136.839187,123.812714 132.557922,119.510343 132.557922,114.23065 C132.563301,108.93211 136.839187,104.648586 142.123537,104.648586 C147.39444,104.648586 151.683773,108.940188 151.697219,114.23065" id="Fill-4" fill="#F9A225"></path>
                <path d="M148.247307,159.095983 C148.221071,166.702713 142.091717,172.866333 134.502994,172.856472 C126.91755,172.866333 120.76524,166.702713 120.76524,159.095983 C120.76524,151.508977 126.91755,145.325633 134.496435,145.338782 C142.091717,145.325633 148.247307,151.508977 148.247307,159.095983" id="Fill-5" fill="#F8A928"></path>
                <path d="M186.722887,161.608835 C186.722887,169.343194 180.459605,175.602213 172.739671,175.602213 C165.022925,175.602213 158.772392,169.343194 158.75008,161.608835 C158.772392,153.880862 165.032487,147.593103 172.739671,147.593103 C180.459605,147.593103 186.732449,153.880862 186.722887,161.608835" id="Fill-6" fill="#F38023"></path>
                <path d="M18.2204626,154.949155 C18.2204626,159.301226 14.7029572,162.830691 10.3702058,162.82366 C6.01988443,162.830691 2.50940703,159.301226 2.51643501,154.949155 C2.51643501,150.618178 6.01988443,147.099258 10.3702058,147.099258 C14.7029572,147.099258 18.2204626,150.618178 18.2204626,154.949155" id="Fill-7" fill="#96C172"></path>
                <path d="M78.3549364,160.51753 C78.3549364,166.633823 73.4384552,171.577602 67.3034246,171.592979 C61.2298981,171.577602 56.2711328,166.633823 56.2711328,160.51753 C56.2711328,154.424303 61.2298981,149.480524 67.3034246,149.480524 C73.4269231,149.480524 78.3549364,154.424303 78.3549364,160.51753" id="Fill-8" fill="#E3D54A"></path>
                <path d="M116.162907,183.546734 C116.162907,188.579682 112.111928,192.64082 107.072075,192.64764 C102.06632,192.64082 98.0051125,188.579682 98.0051125,183.546734 C98.0051125,178.517197 102.06632,174.466288 107.072075,174.466288 C112.098289,174.466288 116.162907,178.517197 116.162907,183.546734" id="Fill-9" fill="#F1BC32"></path>
                <path d="M68.6681904,76.1542912 C68.6681904,80.373078 65.2763537,83.7808164 61.0682106,83.7808164 C56.8667313,83.7574529 53.4549035,80.3830909 53.4549035,76.1542912 C53.4549035,71.938842 56.8667313,68.5477918 61.0682106,68.5477918 C65.2763537,68.5477918 68.6681904,71.938842 68.6681904,76.1542912" id="Fill-10" fill="#DAD250"></path>
                <path d="M73.7708909,201.952025 C73.7708909,205.490363 70.9261247,208.348466 67.3967143,208.348466 C63.8728929,208.328871 61.0113599,205.498761 61.0113599,201.952025 C61.0113599,198.416487 63.8728929,195.572381 67.3967143,195.572381 C70.9261247,195.572381 73.7708909,198.416487 73.7708909,201.952025" id="Fill-10" fill="#D4C543"></path>
                <path d="M55.9772637,117.174363 C55.9913058,121.787341 52.2631337,125.533192 47.632758,125.515639 C43.0339769,125.515639 39.2917628,121.787341 39.2917628,117.174363 C39.2917628,112.550852 43.0339769,108.808512 47.632758,108.808512 C52.2631337,108.808512 55.9913058,112.550852 55.9772637,117.174363" id="Fill-11" fill="#C5CD5B"></path>
                <path d="M152.117348,43.6760979 C152.117348,48.6987331 148.062339,52.7631024 143.036619,52.7631024 C138.032878,52.7557593 133.959554,48.7097477 133.959554,43.6760979 C133.974206,38.6608058 138.032878,34.5817504 143.036619,34.5817504 C148.062339,34.5817504 152.117348,38.6608058 152.117348,43.6760979" id="Fill-12" fill="#F9A225"></path>
                <path d="M26.4637413,195.756807 C26.4351523,199.133254 23.6865209,201.911448 20.3211832,201.911448 C16.943593,201.911448 14.1949616,199.133254 14.1949616,195.756807 C14.2112982,192.372164 16.943593,189.626751 20.3211832,189.626751 C23.7028575,189.626751 26.4637413,192.372164 26.4637413,195.756807" id="Fill-13" fill="#8FB569"></path>
                <path d="M99.6014188,230.690621 C99.6014188,234.488349 96.5458051,237.568191 92.7364981,237.568191 C88.9420422,237.568191 85.8604391,234.488349 85.8604391,230.690621 C85.8604391,226.859416 88.9420422,223.809331 92.7364981,223.809331 C96.5458051,223.809331 99.6162699,226.874294 99.6014188,230.690621" id="Fill-14" fill="#D4B031"></path>
                <path d="M141.615042,218.265619 C141.615042,223.157983 137.664229,227.119483 132.774434,227.119483 C127.912986,227.119483 123.947999,223.157983 123.947999,218.265619 C123.947999,213.387466 127.912986,209.429519 132.785064,209.429519 C137.664229,209.429519 141.615042,213.387466 141.615042,218.265619" id="Fill-15" fill="#DB9624"></path>
                <path d="M12.8813127,89.9379755 C12.8813127,93.4717195 10.0173119,96.3275872 6.48901327,96.3275872 C2.97011512,96.3275872 0.121781716,93.4717195 0.121781716,89.9379755 C0.121781716,86.4105081 2.97011512,83.5515021 6.48901327,83.5515021 C10.0173119,83.5515021 12.8813127,86.4042315 12.8813127,89.9379755" id="Fill-16" fill="#96C172"></path>
                <path d="M113.726073,81.7577725 C113.735989,87.4648986 109.121861,92.0769182 103.41039,92.0769182 C97.7385828,92.0769182 93.1145392,87.4549731 93.1145392,81.747847 C93.1145392,76.0374124 97.7154461,71.4386268 103.41039,71.4386268 C109.121861,71.4386268 113.735989,76.0539548 113.726073,81.7577725" id="Fill-17" fill="#F9C435"></path>
                <path d="M168.73089,80.4142616 C168.740495,87.8806277 162.705073,93.9274229 155.228834,93.9178096 C147.771806,93.9178096 141.739586,87.8710144 141.739586,80.3918305 C141.739586,72.9318733 147.771806,66.891487 155.228834,66.891487 C162.705073,66.891487 168.73089,72.9446911 168.73089,80.4142616" id="Fill-18" fill="#F79521"></path>
                <path d="M112.010496,41.0280033 C112.010496,45.0929509 108.72504,48.4044328 104.656795,48.4044328 C100.592314,48.4044328 97.2880406,45.0929509 97.2880406,41.0091667 C97.2880406,36.9630558 100.592314,33.6440392 104.656795,33.6628759 C108.72504,33.6440392 112.029313,36.9630558 112.010496,41.0280033" id="Fill-19" fill="#F9C235"></path>
                <path d="M157.078336,261.40467 C157.078336,264.792888 154.323336,267.575929 150.930498,267.583638 C147.560714,267.575929 144.809556,264.812161 144.809556,261.435507 C144.824926,258.031872 147.560714,255.298941 150.930498,255.298941 C154.323336,255.298941 157.078336,258.031872 157.078336,261.40467" id="Fill-20" fill="#C07619"></path>
                <path d="M168.196826,17.483128 C168.196826,21.2791139 165.116043,24.37995 161.30775,24.37995 C157.540287,24.37995 154.455792,21.2791139 154.455792,17.4675067 C154.455792,13.6832368 157.518016,10.5824006 161.30775,10.621454 C165.116043,10.5824006 168.196826,13.6832368 168.196826,17.483128" id="Fill-21" fill="#F68B22"></path>
                <path d="M195.861475,226.840571 C195.861475,234.293679 189.827143,240.358526 182.340221,240.409706 C174.907691,240.358526 168.870159,234.332064 168.870159,226.872559 C168.895756,219.435444 174.907691,213.383392 182.340221,213.383392 C189.827143,213.370597 195.861475,219.435444 195.861475,226.840571" id="Fill-22" fill="#CE611F"></path>
                <path d="M195.738557,121.093002 C195.738557,128.963121 189.367755,135.340018 181.495471,135.340018 C173.661935,135.330322 167.274988,128.963121 167.274988,121.083305 C167.284675,113.226115 173.661935,106.839521 181.495471,106.839521 C189.367755,106.839521 195.738557,113.226115 195.738557,121.093002" id="Fill-23" fill="#F17325"></path>
                <path d="M170.863615,194.939772 C170.88166,200.655158 166.262029,205.267955 160.584934,205.267955 C154.886186,205.267955 150.266554,200.655158 150.252117,194.939772 C150.266554,189.235231 154.900622,184.629664 160.584934,184.629664 C166.262029,184.629664 170.88166,189.235231 170.863615,194.939772" id="Fill-24" fill="#E88620"></path>
                <path d="M115.625541,125.876473 C115.632484,131.571113 111.0263,136.202568 105.340597,136.202568 C99.6375382,136.202568 95.0244127,131.59196 95.0139993,125.876473 C95.0244127,120.185308 99.6375382,115.564277 105.340597,115.564277 C111.0263,115.564277 115.632484,120.185308 115.625541,125.876473" id="Fill-25" fill="#F9C335"></path>
                <path d="M242.000929,140.36891 C242.000929,151.653022 232.870847,160.819269 221.640845,160.761371 C210.359106,160.819269 201.259457,151.653022 201.268587,140.36891 C201.259457,129.090891 210.37128,119.976448 221.640845,119.976448 C232.870847,119.976448 242.000929,129.090891 242.000929,140.36891" id="Fill-26" fill="#E6452A"></path>
                <path d="M193.048029,44.8743669 C193.048029,52.7426881 186.688978,59.1293536 178.808319,59.1103173 C170.946681,59.1103173 164.59397,52.7426881 164.58446,44.8743669 C164.58446,36.9901822 170.934001,30.6098621 178.808319,30.6098621 C186.688978,30.6098621 193.048029,36.9901822 193.048029,44.8743669" id="Fill-27" fill="#F27925"></path>
                <path d="M220.612649,187.020973 C220.612649,195.588509 213.714094,202.501114 205.168164,202.501114 C196.639247,202.501114 189.706666,195.588509 189.695324,187.020973 C189.706666,178.450594 196.627905,171.543677 205.168164,171.543677 C213.714094,171.543677 220.612649,178.467656 220.612649,187.020973" id="Fill-28" fill="#E05426"></path>
                <path d="M220.564046,85.7011486 C220.574969,95.2039702 212.87097,102.883322 203.383663,102.907926 C193.890894,102.907926 186.219667,95.2039702 186.211474,85.7011486 C186.219667,76.2229315 193.890894,68.5107739 203.391856,68.5107739 C212.860046,68.5107739 220.564046,76.2010608 220.564046,85.7011486" id="Fill-29" fill="#EA5728"></path>
                <path d="M208.839654,11.1319554 C208.839654,17.1073951 204.001154,21.9441644 198.046606,21.9441644 C192.095492,21.9441644 187.256992,17.1073951 187.246691,11.1113148 C187.246691,5.15307555 192.08519,0.299105793 198.036304,0.323186437 C204.021758,0.299105793 208.863692,5.15307555 208.839654,11.1319554" id="Fill-31" fill="#EC6127"></path>
                <path d="M207.223814,267.603715 C207.223814,273.318528 202.599806,277.937619 196.89839,277.970426 C191.223173,277.937619 186.612264,273.351334 186.612264,267.63324 C186.622089,261.944671 191.213349,257.332141 196.89839,257.332141 C202.599806,257.32558 207.223814,261.944671 207.223814,267.603715" id="Fill-32" fill="#B2491D"></path>
                <path d="M273.199365,163.476465 C259.783629,163.503556 248.911686,152.606753 248.911686,139.178401 C248.911686,125.741018 259.783629,114.802073 273.199365,114.829164 C286.627115,114.802073 297.496054,125.741018 297.496054,139.178401 C297.496054,152.606753 286.627115,163.503556 273.199365,163.476465 Z" id="Fill-34" fill="#1876B6"></path>
                <g>
                    <path d="M151.697219,114.23065 C151.683773,119.510343 147.402508,123.791175 142.11278,123.812714 C136.839187,123.812714 132.557922,119.510343 132.557922,114.23065 C132.563301,108.93211 136.839187,104.648586 142.123537,104.648586 C147.39444,104.648586 151.683773,108.940188 151.697219,114.23065" id="Fill-4" fill="#F9A225"></path>
                    <path d="M148.247307,159.095983 C148.221071,166.702713 142.091717,172.866333 134.502994,172.856472 C126.91755,172.866333 120.76524,166.702713 120.76524,159.095983 C120.76524,151.508977 126.91755,145.325633 134.496435,145.338782 C142.091717,145.325633 148.247307,151.508977 148.247307,159.095983" id="Fill-5" fill="#F8A928"></path>
                    <path d="M186.722887,161.608835 C186.722887,169.343194 180.459605,175.602213 172.739671,175.602213 C165.022925,175.602213 158.772392,169.343194 158.75008,161.608835 C158.772392,153.880862 165.032487,147.593103 172.739671,147.593103 C180.459605,147.593103 186.732449,153.880862 186.722887,161.608835" id="Fill-6" fill="#F38023"></path>
                    <path d="M18.2204626,154.949155 C18.2204626,159.301226 14.7029572,162.830691 10.3702058,162.82366 C6.01988443,162.830691 2.50940703,159.301226 2.51643501,154.949155 C2.51643501,150.618178 6.01988443,147.099258 10.3702058,147.099258 C14.7029572,147.099258 18.2204626,150.618178 18.2204626,154.949155" id="Fill-7" fill="#96C172"></path>
                    <path d="M78.3549364,160.51753 C78.3549364,166.633823 73.4384552,171.577602 67.3034246,171.592979 C61.2298981,171.577602 56.2711328,166.633823 56.2711328,160.51753 C56.2711328,154.424303 61.2298981,149.480524 67.3034246,149.480524 C73.4269231,149.480524 78.3549364,154.424303 78.3549364,160.51753" id="Fill-8" fill="#E3D54A"></path>
                    <path d="M116.162907,183.546734 C116.162907,188.579682 112.111928,192.64082 107.072075,192.64764 C102.06632,192.64082 98.0051125,188.579682 98.0051125,183.546734 C98.0051125,178.517197 102.06632,174.466288 107.072075,174.466288 C112.098289,174.466288 116.162907,178.517197 116.162907,183.546734" id="Fill-9" fill="#F1BC32"></path>
                    <path d="M68.6681904,76.1542912 C68.6681904,80.373078 65.2763537,83.7808164 61.0682106,83.7808164 C56.8667313,83.7574529 53.4549035,80.3830909 53.4549035,76.1542912 C53.4549035,71.938842 56.8667313,68.5477918 61.0682106,68.5477918 C65.2763537,68.5477918 68.6681904,71.938842 68.6681904,76.1542912" id="Fill-10" fill="#DAD250"></path>
                    <path d="M73.7708909,201.952025 C73.7708909,205.490363 70.9261247,208.348466 67.3967143,208.348466 C63.8728929,208.328871 61.0113599,205.498761 61.0113599,201.952025 C61.0113599,198.416487 63.8728929,195.572381 67.3967143,195.572381 C70.9261247,195.572381 73.7708909,198.416487 73.7708909,201.952025" id="Fill-10" fill="#D4C543"></path>
                    <path d="M55.9772637,117.174363 C55.9913058,121.787341 52.2631337,125.533192 47.632758,125.515639 C43.0339769,125.515639 39.2917628,121.787341 39.2917628,117.174363 C39.2917628,112.550852 43.0339769,108.808512 47.632758,108.808512 C52.2631337,108.808512 55.9913058,112.550852 55.9772637,117.174363" id="Fill-11" fill="#C5CD5B"></path>
                    <path d="M152.117348,43.6760979 C152.117348,48.6987331 148.062339,52.7631024 143.036619,52.7631024 C138.032878,52.7557593 133.959554,48.7097477 133.959554,43.6760979 C133.974206,38.6608058 138.032878,34.5817504 143.036619,34.5817504 C148.062339,34.5817504 152.117348,38.6608058 152.117348,43.6760979" id="Fill-12" fill="#F9A225"></path>
                    <path d="M26.4637413,195.756807 C26.4351523,199.133254 23.6865209,201.911448 20.3211832,201.911448 C16.943593,201.911448 14.1949616,199.133254 14.1949616,195.756807 C14.2112982,192.372164 16.943593,189.626751 20.3211832,189.626751 C23.7028575,189.626751 26.4637413,192.372164 26.4637413,195.756807" id="Fill-13" fill="#8FB569"></path>
                    <path d="M99.6014188,230.690621 C99.6014188,234.488349 96.5458051,237.568191 92.7364981,237.568191 C88.9420422,237.568191 85.8604391,234.488349 85.8604391,230.690621 C85.8604391,226.859416 88.9420422,223.809331 92.7364981,223.809331 C96.5458051,223.809331 99.6162699,226.874294 99.6014188,230.690621" id="Fill-14" fill="#D4B031"></path>
                    <path d="M141.615042,218.265619 C141.615042,223.157983 137.664229,227.119483 132.774434,227.119483 C127.912986,227.119483 123.947999,223.157983 123.947999,218.265619 C123.947999,213.387466 127.912986,209.429519 132.785064,209.429519 C137.664229,209.429519 141.615042,213.387466 141.615042,218.265619" id="Fill-15" fill="#DB9624"></path>
                    <path d="M12.8813127,89.9379755 C12.8813127,93.4717195 10.0173119,96.3275872 6.48901327,96.3275872 C2.97011512,96.3275872 0.121781716,93.4717195 0.121781716,89.9379755 C0.121781716,86.4105081 2.97011512,83.5515021 6.48901327,83.5515021 C10.0173119,83.5515021 12.8813127,86.4042315 12.8813127,89.9379755" id="Fill-16" fill="#96C172"></path>
                    <path d="M113.726073,81.7577725 C113.735989,87.4648986 109.121861,92.0769182 103.41039,92.0769182 C97.7385828,92.0769182 93.1145392,87.4549731 93.1145392,81.747847 C93.1145392,76.0374124 97.7154461,71.4386268 103.41039,71.4386268 C109.121861,71.4386268 113.735989,76.0539548 113.726073,81.7577725" id="Fill-17" fill="#F9C435"></path>
                    <path d="M168.73089,80.4142616 C168.740495,87.8806277 162.705073,93.9274229 155.228834,93.9178096 C147.771806,93.9178096 141.739586,87.8710144 141.739586,80.3918305 C141.739586,72.9318733 147.771806,66.891487 155.228834,66.891487 C162.705073,66.891487 168.73089,72.9446911 168.73089,80.4142616" id="Fill-18" fill="#F79521"></path>
                    <path d="M112.010496,41.0280033 C112.010496,45.0929509 108.72504,48.4044328 104.656795,48.4044328 C100.592314,48.4044328 97.2880406,45.0929509 97.2880406,41.0091667 C97.2880406,36.9630558 100.592314,33.6440392 104.656795,33.6628759 C108.72504,33.6440392 112.029313,36.9630558 112.010496,41.0280033" id="Fill-19" fill="#F9C235"></path>
                    <path d="M157.078336,261.40467 C157.078336,264.792888 154.323336,267.575929 150.930498,267.583638 C147.560714,267.575929 144.809556,264.812161 144.809556,261.435507 C144.824926,258.031872 147.560714,255.298941 150.930498,255.298941 C154.323336,255.298941 157.078336,258.031872 157.078336,261.40467" id="Fill-20" fill="#C07619"></path>
                    <path d="M168.196826,17.483128 C168.196826,21.2791139 165.116043,24.37995 161.30775,24.37995 C157.540287,24.37995 154.455792,21.2791139 154.455792,17.4675067 C154.455792,13.6832368 157.518016,10.5824006 161.30775,10.621454 C165.116043,10.5824006 168.196826,13.6832368 168.196826,17.483128" id="Fill-21" fill="#F68B22"></path>
                    <path d="M195.861475,226.840571 C195.861475,234.293679 189.827143,240.358526 182.340221,240.409706 C174.907691,240.358526 168.870159,234.332064 168.870159,226.872559 C168.895756,219.435444 174.907691,213.383392 182.340221,213.383392 C189.827143,213.370597 195.861475,219.435444 195.861475,226.840571" id="Fill-22" fill="#CE611F"></path>
                    <path d="M195.738557,121.093002 C195.738557,128.963121 189.367755,135.340018 181.495471,135.340018 C173.661935,135.330322 167.274988,128.963121 167.274988,121.083305 C167.284675,113.226115 173.661935,106.839521 181.495471,106.839521 C189.367755,106.839521 195.738557,113.226115 195.738557,121.093002" id="Fill-23" fill="#F17325"></path>
                    <path d="M170.863615,194.939772 C170.88166,200.655158 166.262029,205.267955 160.584934,205.267955 C154.886186,205.267955 150.266554,200.655158 150.252117,194.939772 C150.266554,189.235231 154.900622,184.629664 160.584934,184.629664 C166.262029,184.629664 170.88166,189.235231 170.863615,194.939772" id="Fill-24" fill="#E88620"></path>
                    <path d="M115.625541,125.876473 C115.632484,131.571113 111.0263,136.202568 105.340597,136.202568 C99.6375382,136.202568 95.0244127,131.59196 95.0139993,125.876473 C95.0244127,120.185308 99.6375382,115.564277 105.340597,115.564277 C111.0263,115.564277 115.632484,120.185308 115.625541,125.876473" id="Fill-25" fill="#F9C335"></path>
                    <path d="M242.000929,140.36891 C242.000929,151.653022 232.870847,160.819269 221.640845,160.761371 C210.359106,160.819269 201.259457,151.653022 201.268587,140.36891 C201.259457,129.090891 210.37128,119.976448 221.640845,119.976448 C232.870847,119.976448 242.000929,129.090891 242.000929,140.36891" id="Fill-26" fill="#E6452A"></path>
                    <path d="M193.048029,44.8743669 C193.048029,52.7426881 186.688978,59.1293536 178.808319,59.1103173 C170.946681,59.1103173 164.59397,52.7426881 164.58446,44.8743669 C164.58446,36.9901822 170.934001,30.6098621 178.808319,30.6098621 C186.688978,30.6098621 193.048029,36.9901822 193.048029,44.8743669" id="Fill-27" fill="#F27925"></path>
                    <path d="M220.612649,187.020973 C220.612649,195.588509 213.714094,202.501114 205.168164,202.501114 C196.639247,202.501114 189.706666,195.588509 189.695324,187.020973 C189.706666,178.450594 196.627905,171.543677 205.168164,171.543677 C213.714094,171.543677 220.612649,178.467656 220.612649,187.020973" id="Fill-28" fill="#E05426"></path>
                    <path d="M220.564046,85.7011486 C220.574969,95.2039702 212.87097,102.883322 203.383663,102.907926 C193.890894,102.907926 186.219667,95.2039702 186.211474,85.7011486 C186.219667,76.2229315 193.890894,68.5107739 203.391856,68.5107739 C212.860046,68.5107739 220.564046,76.2010608 220.564046,85.7011486" id="Fill-29" fill="#EA5728"></path>
                    <path d="M208.839654,11.1319554 C208.839654,17.1073951 204.001154,21.9441644 198.046606,21.9441644 C192.095492,21.9441644 187.256992,17.1073951 187.246691,11.1113148 C187.246691,5.15307555 192.08519,0.299105793 198.036304,0.323186437 C204.021758,0.299105793 208.863692,5.15307555 208.839654,11.1319554" id="Fill-31" fill="#EC6127"></path>
                    <path d="M207.223814,267.603715 C207.223814,273.318528 202.599806,277.937619 196.89839,277.970426 C191.223173,277.937619 186.612264,273.351334 186.612264,267.63324 C186.622089,261.944671 191.213349,257.332141 196.89839,257.332141 C202.599806,257.32558 207.223814,261.944671 207.223814,267.603715" id="Fill-32" fill="#B2491D"></path>
                    <path d="M273.199365,163.476465 C259.783629,163.503556 248.911686,152.606753 248.911686,139.178401 C248.911686,125.741018 259.783629,114.802073 273.199365,114.829164 C286.627115,114.802073 297.496054,125.741018 297.496054,139.178401 C297.496054,152.606753 286.627115,163.503556 273.199365,163.476465 Z" id="Fill-34" fill="#1876B6"></path>
                    <path d="M266.9229,182.724216 C266.9229,193.326987 258.356339,201.944597 247.786652,201.883609 C237.186522,201.944597 228.635182,193.326987 228.644315,182.724216 C228.635182,172.118396 237.207831,163.555675 247.786652,163.555675 C258.356339,163.555675 266.9229,172.118396 266.9229,182.724216" id="Fill-35" fill="#336C9D"></path>
                    <path d="M237.365522,51.6176326 C237.365522,59.4827769 231.000131,65.869439 223.132153,65.84723 C215.273684,65.84723 208.911463,59.4827769 208.901953,51.6176326 C208.901953,43.7366249 215.251494,37.3467901 223.132153,37.3467901 C231.000131,37.3467901 237.365522,43.7366249 237.365522,51.6176326" id="Fill-36" fill="#D04A38"></path>
                    <path d="M236.288523,226.542801 C236.288523,234.432464 229.9355,240.799394 222.075731,240.799394 C214.215962,240.799394 207.83445,234.432464 207.824954,226.542801 C207.83445,218.662654 214.209631,212.298897 222.0694,212.298897 C229.9355,212.298897 236.288523,218.681689 236.288523,226.542801" id="Fill-37" fill="#B63E2E"></path>
                    <path d="M247.760809,114.4218 C237.183998,114.4218 228.636741,105.838756 228.627613,95.2454888 C228.636741,84.6826797 237.183998,76.0935443 247.769938,76.0935443 C258.322407,76.0935443 266.906177,84.6613592 266.906177,95.2454888 C266.924434,105.838756 258.343706,114.391342 247.760809,114.4218 Z" id="Fill-38" fill="#3E6D9C"></path>
                </g>
                <path d="M266.9229,182.724216 C266.9229,193.326987 258.356339,201.944597 247.786652,201.883609 C237.186522,201.944597 228.635182,193.326987 228.644315,182.724216 C228.635182,172.118396 237.207831,163.555675 247.786652,163.555675 C258.356339,163.555675 266.9229,172.118396 266.9229,182.724216" id="Fill-35" fill="#336C9D"></path>
                <path d="M237.365522,51.6176326 C237.365522,59.4827769 231.000131,65.869439 223.132153,65.84723 C215.273684,65.84723 208.911463,59.4827769 208.901953,51.6176326 C208.901953,43.7366249 215.251494,37.3467901 223.132153,37.3467901 C231.000131,37.3467901 237.365522,43.7366249 237.365522,51.6176326" id="Fill-36" fill="#D04A38"></path>
                <path d="M236.288523,226.542801 C236.288523,234.432464 229.9355,240.799394 222.075731,240.799394 C214.215962,240.799394 207.83445,234.432464 207.824954,226.542801 C207.83445,218.662654 214.209631,212.298897 222.0694,212.298897 C229.9355,212.298897 236.288523,218.681689 236.288523,226.542801" id="Fill-37" fill="#B63E2E"></path>
                <path d="M247.760809,114.4218 C237.183998,114.4218 228.636741,105.838756 228.627613,95.2454888 C228.636741,84.6826797 237.183998,76.0935443 247.769938,76.0935443 C258.322407,76.0935443 266.906177,84.6613592 266.906177,95.2454888 C266.924434,105.838756 258.343706,114.391342 247.760809,114.4218 Z" id="Fill-38" fill="#3E6D9C"></path>
            </g>
        </g>
    </g>
</svg>