<?xml version="1.0" encoding="utf-8"?>
<!-- Generator: Adobe Illustrator 16.0.0, SVG Export Plug-In . SVG Version: 6.00 Build 0)  -->
<!DOCTYPE svg PUBLIC "-//W3C//DTD SVG 1.1//EN" "http://www.w3.org/Graphics/SVG/1.1/DTD/svg11.dtd">
<svg version="1.1" id="Layer_1" xmlns="http://www.w3.org/2000/svg" xmlns:xlink="http://www.w3.org/1999/xlink" x="0px" y="0px"
	 width="492.35px" height="232.55px" viewBox="0 0 492.35 232.55" enable-background="new 0 0 492.35 232.55" xml:space="preserve">
<g>
	<path fill="#0F685A" d="M67.5,9.375c0.117-1.992,0.488-3.593,1.113-4.805c0.625-1.21,1.416-2.158,2.373-2.842
		c0.957-0.683,2.031-1.143,3.223-1.377C75.4,0.117,76.582,0,77.754,0c1.055,0,1.992,0.117,2.812,0.352s1.513,0.655,2.08,1.26
		c0.566,0.606,0.996,1.417,1.289,2.432c0.293,1.016,0.439,2.305,0.439,3.867c0,10.821-0.645,20.879-1.934,30.176
		c-1.289,9.297-3.105,17.745-5.449,25.342c-2.344,7.598-5.156,14.336-8.438,20.215c-3.281,5.879-6.905,10.811-10.869,14.795
		c-3.965,3.984-8.232,7.011-12.803,9.082c-4.57,2.07-9.297,3.105-14.18,3.105c-5.859,0-10.762-1.182-14.707-3.545
		c-3.946-2.364-7.1-5.557-9.463-9.58c-2.364-4.023-4.043-8.681-5.039-13.975C0.498,78.233,0,72.656,0,66.797
		c0-4.648,0.302-9.355,0.908-14.121c0.605-4.765,1.377-9.404,2.314-13.916s2.001-8.789,3.193-12.832
		C7.607,21.885,8.789,18.243,9.961,15c0.742-2.265,1.494-4.023,2.256-5.273c0.762-1.25,1.513-2.177,2.256-2.783
		c0.742-0.605,1.484-0.976,2.227-1.113c0.742-0.136,1.503-0.205,2.285-0.205c1.484,0,2.802,0.069,3.955,0.205
		c1.152,0.137,2.119,0.401,2.9,0.791c0.781,0.391,1.367,0.948,1.758,1.67c0.39,0.723,0.586,1.69,0.586,2.9v0.469
		c-0.079,0.469-0.137,0.977-0.176,1.523c-0.04,0.547-0.157,1.153-0.352,1.816c-0.469,1.446-1.104,3.389-1.904,5.83
		c-0.801,2.442-1.67,5.235-2.607,8.379c-0.938,3.145-1.895,6.533-2.871,10.166c-0.977,3.633-1.856,7.354-2.637,11.162
		c-0.782,3.809-1.417,7.598-1.904,11.367C15.244,65.674,15,69.258,15,72.656c0,3.516,0.293,6.788,0.879,9.814
		c0.586,3.028,1.572,5.654,2.959,7.881c1.386,2.227,3.193,3.975,5.42,5.244c2.227,1.27,4.98,1.904,8.262,1.904
		c2.539,0,4.951-0.693,7.236-2.08c2.285-1.386,4.433-3.34,6.445-5.859c2.011-2.52,3.906-5.537,5.684-9.053
		c1.777-3.516,3.408-7.383,4.893-11.602c1.484-4.219,2.822-8.72,4.014-13.506c1.191-4.785,2.236-9.727,3.135-14.824
		c0.898-5.098,1.65-10.283,2.256-15.557C66.787,19.746,67.226,14.531,67.5,9.375z"/>
	<path fill="#0F685A" d="M106.758,90.82c3.945,0,7.539-0.39,10.781-1.172c3.242-0.781,6.182-1.835,8.818-3.164
		c2.637-1.328,5.02-2.88,7.148-4.658c2.129-1.777,4.053-3.681,5.771-5.713l0.645,13.418c-1.25,1.523-2.764,2.999-4.541,4.424
		c-1.777,1.426-3.721,2.676-5.83,3.75c-2.109,1.075-4.326,1.934-6.65,2.578s-4.619,0.967-6.885,0.967
		c-0.273,0-0.615-0.039-1.025-0.117c-0.41-0.078-1.123-0.214-2.139-0.41c-1.016-0.195-2.471-0.458-4.365-0.791
		c-1.895-0.332-4.463-0.732-7.705-1.201v1.055c0,7.109-0.596,13.564-1.787,19.365c-1.192,5.801-2.783,10.752-4.775,14.854
		s-4.277,7.266-6.855,9.492s-5.254,3.34-8.027,3.34c-2.227,0-4.082-0.547-5.566-1.641c-1.484-1.094-2.666-2.569-3.545-4.424
		c-0.879-1.856-1.503-4.024-1.875-6.504c-0.371-2.481-0.557-5.108-0.557-7.881c0-1.602,0.254-3.409,0.762-5.42
		c0.508-2.012,1.192-4.122,2.051-6.328c0.86-2.208,1.827-4.453,2.9-6.738c1.075-2.285,2.177-4.502,3.311-6.65
		c2.656-5,5.684-10.156,9.082-15.469c0.429-3.047,0.869-6.171,1.318-9.375c0.449-3.203,1.015-6.308,1.699-9.316
		c0.683-3.007,1.542-5.859,2.578-8.555c1.035-2.695,2.363-5.039,3.984-7.031c1.621-1.992,3.564-3.574,5.83-4.746
		c2.265-1.172,5-1.758,8.203-1.758c2.382,0,4.609,0.322,6.679,0.967s3.887,1.69,5.449,3.135c1.562,1.446,2.793,3.311,3.691,5.596
		s1.348,5.088,1.348,8.408c0,2.657-0.391,5.225-1.172,7.705c-0.781,2.481-2.002,4.854-3.662,7.119
		c-1.66,2.266-3.77,4.385-6.328,6.357c-2.559,1.973-5.596,3.741-9.111,5.303L106.758,90.82z M78.984,127.09
		c0,0.312,0.068,0.82,0.205,1.523c0.136,0.703,0.361,1.406,0.674,2.109c0.312,0.703,0.722,1.328,1.23,1.875
		c0.507,0.546,1.132,0.82,1.875,0.82c0.664,0,1.21-0.362,1.641-1.084c0.429-0.723,0.781-1.69,1.055-2.9
		c0.273-1.211,0.469-2.578,0.586-4.102s0.214-3.086,0.293-4.688c0.078-1.602,0.126-3.164,0.146-4.688
		c0.019-1.523,0.068-2.891,0.146-4.102c0.117-2.109,0.205-3.896,0.264-5.361s0.107-2.686,0.146-3.662
		c0.039-1.094,0.078-2.011,0.117-2.754c-0.743,1.289-1.465,2.783-2.168,4.482s-1.368,3.466-1.992,5.303
		c-0.625,1.835-1.192,3.671-1.699,5.508c-0.508,1.835-0.948,3.545-1.318,5.127c-0.372,1.582-0.665,2.949-0.879,4.102
		C79.091,125.751,78.984,126.582,78.984,127.09z M99.375,84.902c2.344-1.172,4.365-2.48,6.064-3.926
		c1.699-1.445,3.164-2.988,4.394-4.629c1.23-1.641,2.236-3.34,3.018-5.098s1.406-3.554,1.875-5.391
		c0.195-0.859,0.322-1.865,0.381-3.018c0.059-1.152-0.059-2.236-0.352-3.252c-0.293-1.015-0.801-1.884-1.523-2.607
		c-0.723-0.722-1.729-1.084-3.018-1.084c-1.445,0-2.715,0.401-3.808,1.201c-1.094,0.801-2.042,1.885-2.842,3.252
		c-0.801,1.368-1.465,2.988-1.992,4.863s-0.958,3.887-1.289,6.035c-0.333,2.149-0.567,4.385-0.703,6.709
		C99.443,80.284,99.375,82.598,99.375,84.902z"/>
	<path fill="#0F685A" d="M150.996,101.25c-3.595,0-6.748-0.664-9.463-1.992c-2.716-1.328-4.99-3.105-6.826-5.332
		c-1.837-2.227-3.223-4.805-4.16-7.734s-1.406-5.977-1.406-9.141c0-2.265,0.234-4.629,0.703-7.09s1.162-4.873,2.08-7.236
		c0.917-2.363,2.051-4.619,3.398-6.768c1.348-2.148,2.909-4.033,4.688-5.654c1.777-1.621,3.759-2.91,5.947-3.867
		c2.188-0.957,4.59-1.436,7.207-1.436c2.227,0,4.286,0.342,6.182,1.025c1.895,0.684,3.516,1.631,4.863,2.842
		c1.348,1.211,2.402,2.647,3.164,4.307c0.762,1.661,1.143,3.448,1.143,5.361c0,1.329-0.176,2.637-0.527,3.926
		s-0.87,2.452-1.553,3.486c-0.684,1.036-1.515,1.866-2.49,2.49c-0.977,0.625-2.071,0.938-3.281,0.938
		c-1.837,0-3.038-0.488-3.604-1.465c-0.566-0.976-0.85-2.324-0.85-4.043c0-0.703,0.029-1.445,0.088-2.227
		c0.059-0.781,0.088-1.484,0.088-2.109c0-0.938-0.098-1.718-0.293-2.344c-0.196-0.625-0.625-0.938-1.289-0.938
		c-1.603,0-2.969,0.381-4.102,1.143c-1.134,0.762-2.101,1.758-2.9,2.988c-0.801,1.23-1.436,2.618-1.904,4.16
		c-0.469,1.543-0.841,3.076-1.113,4.6c-0.273,1.523-0.449,2.979-0.527,4.365c-0.079,1.387-0.117,2.549-0.117,3.486
		c0,1.406,0.126,2.871,0.381,4.395c0.254,1.523,0.732,2.92,1.436,4.189c0.703,1.27,1.66,2.325,2.871,3.164
		c1.21,0.84,2.773,1.26,4.688,1.26c1.875,0,3.945-0.576,6.211-1.729c2.265-1.152,4.541-2.607,6.826-4.365s4.462-3.691,6.533-5.801
		c2.07-2.109,3.847-4.102,5.332-5.977l4.043,6.797c-2.93,4.18-6.094,7.91-9.492,11.191c-1.445,1.406-3.018,2.774-4.717,4.102
		c-1.699,1.329-3.478,2.51-5.332,3.545c-1.855,1.036-3.789,1.875-5.801,2.52C155.106,100.928,153.066,101.25,150.996,101.25z"/>
	<path fill="#0F685A" d="M211.992,57.363c1.133,2.266,1.982,4.658,2.549,7.178c0.565,2.52,0.85,4.932,0.85,7.236
		c0,2.305-0.255,4.629-0.762,6.973c-0.508,2.344-1.24,4.61-2.197,6.797c-0.958,2.188-2.13,4.239-3.516,6.152
		c-1.387,1.915-2.969,3.574-4.746,4.98c-1.778,1.406-3.721,2.52-5.83,3.34s-4.356,1.23-6.738,1.23c-3.438,0-6.378-0.751-8.818-2.256
		c-2.441-1.503-4.444-3.466-6.006-5.889c-1.562-2.421-2.705-5.156-3.428-8.203c-0.724-3.047-1.084-6.132-1.084-9.258
		c0-4.296,0.645-8.31,1.934-12.041c1.289-3.73,3.135-6.973,5.537-9.727s5.341-4.922,8.818-6.504
		c3.477-1.582,7.383-2.373,11.719-2.373c3.711,0,7.187,0.577,10.43,1.729c3.242,1.153,6.278,2.695,9.111,4.629
		c2.832,1.934,5.469,4.151,7.91,6.65c2.44,2.5,4.717,5.079,6.826,7.734l-1.113,8.262c-1.055-1.406-2.481-2.93-4.277-4.57
		c-1.797-1.641-3.701-3.242-5.713-4.805c-2.013-1.562-3.994-3.037-5.947-4.424c-1.954-1.386-3.633-2.549-5.039-3.486L211.992,57.363
		z M193.886,90c1.327,0,2.616-0.674,3.867-2.021c1.25-1.348,2.344-3.047,3.281-5.098s1.689-4.316,2.256-6.797
		c0.565-2.48,0.85-4.853,0.85-7.119c0-1.796-0.138-3.466-0.41-5.01c-0.273-1.542-0.684-2.88-1.23-4.014
		c-0.548-1.132-1.251-2.031-2.109-2.695c-0.859-0.664-1.896-0.996-3.105-0.996c-1.603,0-3.126,0.684-4.57,2.051
		c-1.445,1.368-2.716,3.116-3.809,5.244c-1.094,2.129-1.954,4.482-2.578,7.061c-0.625,2.578-0.938,5.059-0.938,7.441
		c0,1.641,0.155,3.184,0.469,4.629c0.312,1.446,0.8,2.706,1.465,3.779c0.664,1.075,1.543,1.934,2.637,2.578
		C191.053,89.678,192.363,90,193.886,90z"/>
	<path fill="#0F685A" d="M251.543,90.293c0-0.507,0.037-1.23,0.117-2.168c0.078-0.938,0.195-2.011,0.352-3.223
		c0.154-1.21,0.33-2.49,0.527-3.838c0.195-1.348,0.389-2.685,0.586-4.014c0.43-3.125,0.957-6.484,1.582-10.078h-0.879
		c-0.469,0.586-1.006,1.465-1.611,2.637c-0.607,1.172-1.457,2.891-2.549,5.156c-1.094,2.266-2.49,5.206-4.189,8.818
		c-1.7,3.614-3.897,8.135-6.592,13.564c-0.782,1.602-1.69,2.686-2.725,3.252c-1.035,0.567-2.178,0.85-3.428,0.85
		c-1.603,0-2.892-0.341-3.867-1.025c-0.977-0.683-1.729-1.601-2.256-2.754c-0.527-1.152-0.879-2.461-1.055-3.926
		s-0.264-2.978-0.264-4.541c0-1.601,0.097-3.496,0.293-5.684c0.195-2.187,0.448-4.492,0.762-6.914
		c0.312-2.421,0.674-4.893,1.084-7.412s0.84-4.931,1.289-7.236c0.448-2.304,0.908-4.414,1.377-6.328
		c0.469-1.914,0.898-3.476,1.289-4.688c0.39-1.25,0.762-2.246,1.113-2.988c0.352-0.742,0.752-1.318,1.201-1.729
		c0.448-0.41,0.986-0.683,1.611-0.82c0.624-0.136,1.426-0.205,2.402-0.205c1.484,0,2.646,0.049,3.486,0.146
		c0.84,0.098,1.465,0.333,1.875,0.703c0.41,0.372,0.653,0.908,0.732,1.611c0.078,0.703,0.117,1.661,0.117,2.871
		c0,0.665-0.029,1.426-0.088,2.285c-0.059,0.86-0.146,1.778-0.264,2.754c-0.117,0.977-0.244,1.983-0.381,3.018
		c-0.138,1.036-0.284,2.042-0.439,3.018c-0.352,2.305-0.724,4.688-1.113,7.148l0.645,0.703c0.078-0.117,0.498-0.859,1.26-2.227
		c0.762-1.367,1.699-3.007,2.813-4.922c1.113-1.914,2.314-3.916,3.604-6.006c1.289-2.089,2.52-3.935,3.691-5.537
		c1.133-1.601,2.334-2.93,3.604-3.984c1.268-1.055,2.783-1.582,4.541-1.582c1.641,0,3.047,0.479,4.219,1.436
		c1.172,0.958,1.758,2.314,1.758,4.072c0,1.523-0.098,2.969-0.293,4.336c-0.197,1.368-0.439,2.695-0.732,3.984
		s-0.596,2.549-0.908,3.779c-0.314,1.23-0.607,2.49-0.879,3.779c-0.197,0.899-0.314,1.465-0.352,1.699
		c-0.039,0.234-0.059,0.391-0.059,0.469l0.645,0.703c0.078-0.117,0.527-0.85,1.348-2.197s1.824-2.978,3.018-4.893
		c1.191-1.914,2.461-3.926,3.809-6.035s2.607-3.964,3.779-5.566c1.133-1.562,2.264-2.88,3.398-3.955
		c1.133-1.074,2.52-1.611,4.16-1.611c1.836,0,3.389,0.479,4.658,1.436c1.268,0.958,1.904,2.314,1.904,4.072
		c0,2.695-0.139,5.254-0.41,7.676c-0.273,2.422-0.586,4.805-0.938,7.148s-0.666,4.717-0.938,7.119
		c-0.273,2.402-0.41,4.951-0.41,7.646c0,2.109,0.271,3.829,0.82,5.156c0.547,1.329,1.209,1.992,1.992,1.992
		c0.82,0,1.678-0.176,2.578-0.527c0.898-0.352,1.816-0.8,2.754-1.348c0.938-0.546,1.854-1.181,2.754-1.904
		c0.898-0.722,1.758-1.474,2.578-2.256c1.912-1.796,3.809-3.828,5.684-6.094l0.996,13.828c-1.721,1.368-3.428,2.783-5.127,4.248
		s-3.496,2.793-5.391,3.984c-1.896,1.192-3.977,2.168-6.24,2.93c-2.266,0.762-4.826,1.143-7.676,1.143
		c-1.406,0-2.588-0.458-3.545-1.377c-0.959-0.917-1.729-2.197-2.314-3.838s-1.006-3.574-1.26-5.801
		c-0.256-2.227-0.381-4.648-0.381-7.266c0-2.461,0.088-5.068,0.264-7.822s0.418-5.537,0.732-8.35h-0.879L265.02,97.09
		c-1.018,1.641-2.148,2.745-3.398,3.311c-1.252,0.567-2.695,0.85-4.336,0.85c-1.252,0-2.248-0.341-2.988-1.025
		c-0.742-0.683-1.318-1.562-1.729-2.637c-0.41-1.074-0.684-2.256-0.82-3.545C251.609,92.754,251.543,91.504,251.543,90.293z"/>
	<path fill="#0F685A" d="M339.668,88.77c-1.406,1.289-3.156,2.666-5.244,4.131c-2.09,1.465-4.346,2.812-6.768,4.043
		c-2.424,1.23-4.893,2.256-7.412,3.076s-4.914,1.23-7.178,1.23c-2.031,0-3.742-0.283-5.127-0.85
		c-1.387-0.566-2.512-1.357-3.369-2.373c-0.859-1.015-1.475-2.256-1.846-3.721c-0.373-1.465-0.557-3.076-0.557-4.834
		c0-2.461,0.283-5.322,0.85-8.584c0.564-3.261,1.26-6.64,2.08-10.137c0.82-3.496,1.689-6.982,2.607-10.459
		c0.916-3.476,1.729-6.68,2.432-9.609c0.271-1.015,0.82-1.884,1.641-2.607c0.82-0.722,1.748-1.308,2.783-1.758
		c1.033-0.449,2.109-0.781,3.223-0.996C318.896,45.108,319.9,45,320.801,45c1.641,0,2.754,0.303,3.34,0.908
		c0.586,0.606,0.879,1.417,0.879,2.432c0,0.86-0.197,2.1-0.586,3.721c-0.391,1.622-0.879,3.457-1.465,5.508
		s-1.211,4.258-1.875,6.621c-0.666,2.364-1.289,4.727-1.875,7.09c-0.586,2.364-1.076,4.668-1.465,6.914
		c-0.391,2.247-0.586,4.268-0.586,6.064c0,1.758,0.195,3.155,0.586,4.189c0.389,1.036,1.191,1.553,2.402,1.553
		c1.406,0,2.967-0.488,4.688-1.465c1.719-0.976,3.457-2.158,5.215-3.545c1.758-1.386,3.477-2.822,5.156-4.307
		c1.678-1.484,3.164-2.754,4.453-3.809V88.77z M313.477,28.535c0-0.898,0.195-1.914,0.586-3.047
		c0.389-1.132,1.025-2.197,1.904-3.193s2.051-1.835,3.516-2.52c1.465-0.683,3.289-1.025,5.479-1.025
		c1.367,0,2.656,0.157,3.867,0.469c1.209,0.313,2.264,0.791,3.164,1.436c0.898,0.645,1.611,1.494,2.139,2.549
		s0.791,2.305,0.791,3.75c0,1.329-0.215,2.618-0.645,3.867c-0.432,1.25-1.113,2.364-2.051,3.34
		c-0.938,0.977-2.119,1.768-3.545,2.373c-1.428,0.606-3.135,0.908-5.127,0.908c-3.438,0-5.977-0.81-7.617-2.432
		C314.297,33.389,313.477,31.23,313.477,28.535z"/>
	<path fill="#0F685A" d="M335.508,89.004c0-2.578,0.154-5.556,0.469-8.936c0.312-3.378,0.703-6.816,1.172-10.312
		c0.469-3.496,0.996-6.865,1.582-10.107c0.586-3.242,1.15-6.015,1.699-8.32c0.43-1.796,1.26-3.3,2.49-4.512
		c1.23-1.21,2.9-1.816,5.01-1.816s3.574,0.645,4.395,1.934s1.23,3.008,1.23,5.156c0,0.586-0.059,1.377-0.176,2.373
		s-0.264,2.09-0.439,3.281c-0.176,1.192-0.361,2.422-0.557,3.691c-0.197,1.27-0.381,2.442-0.557,3.516
		c-0.176,1.075-0.322,2.012-0.439,2.812c-0.117,0.801-0.176,1.338-0.176,1.611h1.172c0.234-0.429,0.605-1.123,1.113-2.08
		c0.506-0.957,1.092-2.06,1.758-3.311c0.664-1.25,1.377-2.568,2.139-3.955c0.762-1.386,1.473-2.714,2.139-3.984
		c0.664-1.269,1.268-2.392,1.816-3.369c0.547-0.976,0.957-1.699,1.23-2.168c1.25-2.109,2.674-3.554,4.277-4.336
		c1.602-0.781,3.377-1.172,5.332-1.172c1.953,0,3.506,0.82,4.658,2.461c1.15,1.641,1.729,3.907,1.729,6.797
		c0,0.43-0.088,1.153-0.264,2.168c-0.176,1.016-0.402,2.227-0.674,3.633c-0.273,1.406-0.578,2.95-0.908,4.629
		c-0.332,1.68-0.637,3.398-0.908,5.156c-0.273,1.758-0.498,3.497-0.674,5.215c-0.176,1.719-0.264,3.301-0.264,4.746
		c0,2.422,0.301,4.415,0.908,5.977c0.605,1.563,1.553,2.344,2.842,2.344c0.586,0,1.26-0.176,2.021-0.527s1.582-0.81,2.461-1.377
		c0.879-0.566,1.777-1.22,2.695-1.963c0.916-0.742,1.824-1.503,2.725-2.285c2.07-1.835,4.238-3.906,6.504-6.211l0.996,13.125
		l-2.93,2.227c-1.604,1.211-3.232,2.422-4.893,3.633c-1.662,1.211-3.391,2.295-5.186,3.252c-1.797,0.958-3.672,1.739-5.625,2.344
		c-1.955,0.606-4.006,0.908-6.152,0.908c-2.148,0-3.955-1.553-5.42-4.658s-2.197-7.646-2.197-13.623
		c0-2.344,0.154-4.873,0.469-7.588c0.312-2.714,0.703-5.634,1.172-8.76h-0.938L348.984,97.09c-0.783,1.602-1.662,2.695-2.637,3.281
		c-0.977,0.586-2.109,0.879-3.398,0.879c-1.604,0-2.893-0.341-3.867-1.025c-0.977-0.683-1.729-1.601-2.256-2.754
		c-0.527-1.152-0.879-2.461-1.055-3.926S335.508,90.567,335.508,89.004z"/>
	<path fill="#0F685A" d="M414.023,95.098c-2.109,1.875-4.307,3.389-6.592,4.541c-2.285,1.153-4.504,1.729-6.65,1.729
		c-1.875,0-3.701-0.381-5.479-1.143c-1.779-0.762-3.35-1.855-4.717-3.281c-1.369-1.425-2.461-3.164-3.281-5.215
		s-1.23-4.365-1.23-6.943c0-2.93,0.41-5.937,1.23-9.023c0.82-3.085,1.953-6.103,3.398-9.053c1.443-2.949,3.154-5.732,5.127-8.35
		c1.971-2.617,4.131-4.902,6.475-6.855c2.344-1.953,4.812-3.505,7.412-4.658c2.598-1.152,5.244-1.729,7.939-1.729
		c0.898,0,1.602,0.176,2.109,0.527c0.506,0.352,0.928,0.752,1.26,1.201c0.33,0.45,0.652,0.889,0.967,1.318
		c0.312,0.43,0.703,0.743,1.172,0.938c0.469,0.196,0.945,0.322,1.436,0.381c0.488,0.059,0.986,0.088,1.494,0.088
		c0.43,0,0.869-0.009,1.318-0.029c0.447-0.019,0.887-0.029,1.318-0.029c0.586,0,1.133,0.059,1.641,0.176
		c0.506,0.117,0.957,0.372,1.348,0.762c0.389,0.391,0.693,0.938,0.908,1.641c0.213,0.703,0.322,1.661,0.322,2.871
		c0,1.016-0.08,2.383-0.234,4.102c-0.156,1.719-0.373,3.633-0.645,5.742c-0.273,2.109-0.578,4.346-0.908,6.709
		c-0.332,2.364-0.674,4.678-1.025,6.943c-0.82,5.391-1.758,11.153-2.812,17.285c1.172-0.664,2.439-1.484,3.809-2.461
		c1.367-0.976,2.891-2.285,4.57-3.926c1.678-1.641,3.553-3.701,5.625-6.182c2.07-2.48,4.395-5.576,6.973-9.287l2.812,13.008
		c-0.703,1.211-1.611,2.452-2.725,3.721c-1.113,1.27-2.344,2.54-3.691,3.809c-1.348,1.27-2.754,2.5-4.219,3.691
		c-1.465,1.192-2.9,2.314-4.307,3.369c-3.32,2.5-6.895,4.922-10.723,7.266c-0.742,4.179-1.621,8.251-2.637,12.217
		c-1.018,3.964-2.219,7.676-3.604,11.133c-1.387,3.457-2.969,6.63-4.746,9.521c-1.779,2.89-3.789,5.371-6.035,7.441
		c-2.248,2.07-4.756,3.681-7.529,4.834c-2.775,1.152-5.84,1.729-9.199,1.729c-1.328,0-2.764-0.137-4.307-0.41
		c-1.545-0.274-2.969-0.82-4.277-1.641s-2.393-1.992-3.252-3.516s-1.289-3.555-1.289-6.094c0-1.758,0.449-3.741,1.348-5.947
		c0.898-2.208,2.129-4.532,3.691-6.973c1.561-2.442,3.418-4.98,5.566-7.617c2.146-2.637,4.482-5.264,7.002-7.881
		c2.52-2.618,5.156-5.196,7.91-7.734c2.754-2.54,5.537-4.961,8.35-7.266L414.023,95.098z M392.402,144.375
		c1.641,0,3.193-0.479,4.658-1.436c1.465-0.958,2.812-2.217,4.043-3.779c1.23-1.563,2.352-3.34,3.369-5.332
		c1.016-1.992,1.912-4.034,2.695-6.123c0.781-2.09,1.443-4.131,1.992-6.123c0.547-1.992,0.975-3.77,1.289-5.332
		c-1.523,1.015-3.076,2.227-4.658,3.633s-3.127,2.919-4.629,4.541c-1.504,1.621-2.93,3.291-4.277,5.01
		c-1.348,1.718-2.529,3.369-3.545,4.951c-1.018,1.582-1.816,3.056-2.402,4.424c-0.586,1.367-0.879,2.5-0.879,3.398
		C390.059,143.652,390.84,144.375,392.402,144.375z M401.074,82.266c0,0.977,0.066,1.924,0.205,2.842
		c0.137,0.918,0.381,1.739,0.732,2.461c0.352,0.723,0.82,1.309,1.406,1.758c0.586,0.45,1.326,0.674,2.227,0.674
		c1.443,0,2.754-0.625,3.926-1.875c1.172-1.25,2.188-2.754,3.047-4.512c0.857-1.758,1.553-3.574,2.08-5.449s0.869-3.437,1.025-4.688
		l3.574-17.227c-1.604,0-3.164,0.401-4.688,1.201c-1.523,0.801-2.959,1.885-4.307,3.252c-1.348,1.368-2.588,2.93-3.721,4.688
		c-1.135,1.758-2.109,3.604-2.93,5.537s-1.457,3.877-1.904,5.83C401.299,78.711,401.074,80.547,401.074,82.266z"/>
</g>
<g>
	<path fill="#29114A" d="M145.884,110.792c6.562,0,12.312,0.889,17.256,2.666c4.941,1.778,9.053,4.141,12.334,7.09
		c3.281,2.95,5.75,6.338,7.412,10.166c1.66,3.829,2.49,7.793,2.49,11.895c0,3.829-0.742,7.617-2.227,11.367
		c-1.486,3.75-3.721,7.207-6.709,10.371s-6.76,5.899-11.309,8.203c-4.551,2.305-9.895,3.926-16.025,4.863
		c-0.117,2.852-0.215,5.469-0.293,7.852c-0.039,1.016-0.08,2.032-0.117,3.047c-0.039,1.016-0.068,1.944-0.088,2.783
		c-0.021,0.84-0.039,1.573-0.059,2.197c-0.021,0.625-0.029,1.055-0.029,1.289c-0.08,2.735-0.402,5.577-0.967,8.525
		c-0.566,2.95-1.387,5.83-2.461,8.643c-1.076,2.812-2.383,5.479-3.926,7.998c-1.545,2.52-3.34,4.726-5.391,6.621
		c-2.051,1.894-4.346,3.398-6.885,4.512c-2.541,1.114-5.312,1.67-8.32,1.67c-3.203,0-6.064-0.83-8.584-2.491
		c-2.52-1.661-4.728-3.896-6.622-6.709c-1.895-2.812-3.497-6.054-4.805-9.727c-1.309-3.671-2.373-7.509-3.193-11.514
		c-0.82-4.003-1.417-8.037-1.787-12.1c-0.372-4.062-0.557-7.89-0.557-11.484c0-6.171,0.566-12.129,1.699-17.871
		c1.132-5.742,2.754-11.123,4.863-16.143c2.109-5.019,4.667-9.599,7.676-13.74c3.008-4.14,6.395-7.695,10.167-10.664
		c3.77-2.968,7.871-5.263,12.305-6.885C136.166,111.603,140.882,110.792,145.884,110.792z M110.728,177.003
		c0,1.602,0.008,3.76,0.029,6.475c0.02,2.715,0.125,5.616,0.322,8.701c0.195,3.086,0.506,6.211,0.938,9.375
		c0.43,3.164,1.062,6.026,1.904,8.584c0.84,2.559,1.895,4.649,3.164,6.27c1.268,1.621,2.861,2.432,4.775,2.432
		c1.992,0,3.691-0.694,5.098-2.08s2.578-3.183,3.516-5.391c0.938-2.207,1.678-4.707,2.227-7.5c0.547-2.792,0.957-5.596,1.23-8.408
		c0.271-2.812,0.447-5.498,0.527-8.057c0.078-2.558,0.117-4.736,0.117-6.533v-2.754c-3.244-1.289-5.793-2.421-7.646-3.398
		c-1.855-0.976-3.252-1.914-4.189-2.812c-0.938-0.898-1.533-1.846-1.787-2.842c-0.256-0.996-0.381-2.158-0.381-3.486
		c0-0.703,0.02-1.396,0.059-2.08c0.037-0.683,0.146-1.289,0.322-1.816s0.43-0.957,0.762-1.289c0.33-0.332,0.791-0.498,1.377-0.498
		c0.389,0,0.752,0.079,1.084,0.234c0.33,0.157,0.752,0.372,1.26,0.645c1.289,0.703,2.461,1.28,3.516,1.729
		c1.055,0.45,1.953,0.811,2.695,1.084c0.857,0.313,1.641,0.547,2.344,0.703c0-0.507,0.008-1.513,0.029-3.018
		c0.02-1.503,0.137-3.223,0.352-5.156c0.213-1.934,0.576-3.955,1.084-6.064c0.506-2.109,1.25-4.043,2.227-5.801
		c0.975-1.758,2.246-3.212,3.809-4.365c1.561-1.152,3.494-1.729,5.801-1.729c0.703,0,1.426,0.069,2.168,0.205
		c0.74,0.137,1.414,0.391,2.021,0.762c0.605,0.372,1.113,0.87,1.523,1.494c0.41,0.625,0.615,1.426,0.615,2.402
		c0,0.274-0.01,0.459-0.029,0.557c-0.021,0.098-0.029,0.225-0.029,0.381l-3.574,15.059l-0.527,4.629
		c3.828-0.586,7.127-1.523,9.902-2.812c2.773-1.289,5.068-2.812,6.885-4.57s3.164-3.691,4.043-5.801s1.318-4.277,1.318-6.504
		c0-2.187-0.42-4.424-1.26-6.709c-0.842-2.285-2.295-4.365-4.365-6.24c-2.072-1.875-4.844-3.417-8.32-4.629
		c-3.479-1.21-7.852-1.816-13.125-1.816c-3.947,0-7.521,0.752-10.723,2.256c-3.203,1.504-6.057,3.545-8.555,6.123
		c-2.5,2.578-4.668,5.586-6.504,9.023c-1.838,3.438-3.35,7.1-4.541,10.986c-1.193,3.887-2.072,7.891-2.637,12.012
		C111.011,169.083,110.728,173.097,110.728,177.003z"/>
	<path fill="#29114A" d="M242.974,203.253c-0.899,1.25-2.101,2.715-3.604,4.395c-1.504,1.68-3.193,3.281-5.068,4.805
		s-3.888,2.812-6.035,3.867c-2.148,1.055-4.298,1.582-6.445,1.582c-2.578,0-4.727-0.83-6.445-2.49
		c-1.72-1.66-3.203-4.072-4.453-7.236c-0.938,1.094-2.09,2.208-3.457,3.34c-1.368,1.133-2.862,2.159-4.482,3.076
		c-1.621,0.918-3.311,1.67-5.068,2.256s-3.516,0.879-5.273,0.879c-1.875,0-3.701-0.381-5.479-1.143
		c-1.778-0.762-3.35-1.855-4.717-3.281c-1.368-1.425-2.461-3.164-3.281-5.215s-1.23-4.365-1.23-6.943c0-2.93,0.41-5.937,1.23-9.023
		c0.82-3.085,1.953-6.103,3.398-9.053c1.444-2.949,3.154-5.732,5.127-8.35c1.972-2.617,4.131-4.902,6.475-6.855
		c2.344-1.953,4.813-3.505,7.412-4.658c2.598-1.152,5.244-1.729,7.939-1.729c0.898,0,1.602,0.176,2.109,0.527
		c0.507,0.352,0.928,0.752,1.26,1.201c0.331,0.45,0.653,0.889,0.967,1.318c0.312,0.43,0.703,0.743,1.172,0.938
		c0.469,0.196,0.946,0.322,1.436,0.381c0.488,0.059,0.986,0.088,1.494,0.088c0.43,0,0.869-0.009,1.318-0.029
		c0.448-0.019,0.888-0.029,1.318-0.029c0.586,0,1.133,0.059,1.641,0.176c0.507,0.117,0.957,0.372,1.348,0.762
		c0.39,0.391,0.693,0.938,0.908,1.641c0.214,0.703,0.322,1.661,0.322,2.871c0,1.875-0.196,3.955-0.586,6.24
		c-0.391,2.285-0.82,4.629-1.289,7.031s-0.899,4.805-1.289,7.207c-0.391,2.402-0.586,4.678-0.586,6.826
		c0,1.836,0.166,3.272,0.498,4.307c0.331,1.036,1.045,1.553,2.139,1.553c0.82,0,1.679-0.205,2.578-0.615
		c0.898-0.41,1.807-0.947,2.725-1.611c0.917-0.664,1.836-1.416,2.754-2.256c0.917-0.839,1.787-1.708,2.607-2.607
		c1.913-2.109,3.847-4.492,5.801-7.148L242.974,203.253z M192.935,198.624c0,0.977,0.067,1.924,0.205,2.842
		c0.137,0.918,0.381,1.739,0.732,2.461c0.352,0.723,0.82,1.309,1.406,1.758c0.586,0.45,1.327,0.674,2.227,0.674
		c1.444,0,2.754-0.625,3.926-1.875c1.172-1.25,2.188-2.754,3.047-4.512c0.858-1.758,1.553-3.574,2.08-5.449s0.869-3.437,1.025-4.688
		l3.574-17.227c-1.603,0-3.164,0.401-4.688,1.201c-1.523,0.801-2.959,1.885-4.307,3.252c-1.348,1.368-2.588,2.93-3.721,4.688
		c-1.134,1.758-2.109,3.604-2.93,5.537s-1.456,3.877-1.904,5.83C193.16,195.07,192.935,196.906,192.935,198.624z"/>
	<path fill="#29114A" d="M236.06,205.362c0-1.718,0.097-3.721,0.293-6.006c0.195-2.285,0.459-4.697,0.791-7.236
		c0.331-2.539,0.723-5.127,1.172-7.764c0.448-2.637,0.928-5.146,1.436-7.529c0.507-2.382,1.016-4.57,1.523-6.562
		c0.507-1.992,1.016-3.633,1.523-4.922c0.312-0.859,0.624-1.542,0.938-2.051c0.312-0.507,0.674-0.908,1.084-1.201
		s0.917-0.488,1.524-0.586c0.605-0.097,1.355-0.146,2.256-0.146c1.016,0,1.807,0.049,2.373,0.146
		c0.564,0.098,0.986,0.333,1.26,0.703c0.271,0.372,0.439,0.908,0.498,1.611s0.088,1.661,0.088,2.871c0,1.446,0,3.193,0,5.244
		s0.037,4.072,0.117,6.064h0.645c0.781-1.562,1.66-3.311,2.637-5.244c0.975-1.934,2.109-3.74,3.398-5.42
		c1.289-1.679,2.754-3.095,4.395-4.248c1.641-1.152,3.535-1.729,5.684-1.729c0.74,0,1.465,0.127,2.168,0.381
		c0.703,0.254,1.318,0.615,1.846,1.084s0.945,1.045,1.26,1.729c0.312,0.684,0.469,1.456,0.469,2.314
		c0,0.665-0.098,1.592-0.293,2.783c-0.197,1.192-0.41,2.442-0.645,3.75c-0.234,1.309-0.449,2.578-0.645,3.809
		c-0.197,1.23-0.293,2.256-0.293,3.076c0,1.406,0.137,2.578,0.41,3.516c0.271,0.938,0.635,1.69,1.084,2.256
		c0.447,0.567,0.957,0.967,1.523,1.201c0.564,0.234,1.162,0.352,1.787,0.352c1.758,0,3.574-0.39,5.449-1.172
		c1.875-0.781,3.594-1.66,5.156-2.637c1.836-1.132,3.633-2.421,5.391-3.867l-0.879,13.711c-1.018,0.665-2.168,1.406-3.457,2.227
		s-2.666,1.592-4.131,2.314c-1.465,0.723-2.988,1.329-4.57,1.816c-1.582,0.489-3.193,0.732-4.834,0.732
		c-2.93,0-5.295-0.595-7.09-1.787c-1.797-1.191-3.223-2.754-4.277-4.688s-1.838-4.102-2.344-6.504
		c-0.508-2.402-0.918-4.834-1.23-7.295h-0.938l-10.488,29.238c-0.549,1.523-1.064,2.783-1.553,3.779
		c-0.49,0.996-0.988,1.807-1.494,2.432c-0.508,0.625-1.055,1.065-1.641,1.318c-0.586,0.254-1.231,0.381-1.934,0.381
		c-1.603,0-2.892-0.341-3.867-1.025c-0.977-0.683-1.729-1.601-2.256-2.754c-0.527-1.152-0.879-2.461-1.055-3.926
		S236.06,206.925,236.06,205.362z"/>
	<path fill="#29114A" d="M335.436,204.483c-3.75,2.188-7.09,4.102-10.02,5.742s-5.537,3.008-7.822,4.102
		c-2.285,1.094-4.316,1.915-6.094,2.461c-1.779,0.547-3.391,0.82-4.834,0.82c-2.969,0-5.588-0.898-7.852-2.695
		c-2.266-1.796-4.16-4.384-5.684-7.764c-1.523-3.378-2.666-7.471-3.428-12.275s-1.143-10.214-1.143-16.23
		c0-2.344,0.096-4.843,0.293-7.5c0.195-2.656,0.469-5.292,0.82-7.91c-1.172-0.156-2.08-0.302-2.725-0.439
		c-0.645-0.136-1.328-0.273-2.051-0.41c-0.725-0.136-1.641-0.283-2.754-0.439c-1.113-0.156-2.725-0.352-4.834-0.586
		c-0.938-0.117-1.66-0.341-2.168-0.674c-0.508-0.332-0.879-0.722-1.113-1.172c-0.234-0.449-0.371-0.917-0.41-1.406
		c-0.039-0.488-0.059-0.908-0.059-1.26c0-0.781,0.381-1.377,1.143-1.787s1.738-0.712,2.93-0.908
		c1.191-0.195,2.498-0.302,3.926-0.322c1.426-0.019,2.791-0.009,4.102,0.029c1.309,0.04,2.48,0.069,3.516,0.088
		c1.033,0.02,1.748-0.009,2.139-0.088c1.055-5.273,2.393-10.38,4.014-15.322c1.619-4.941,3.436-9.335,5.449-13.184
		c2.012-3.847,4.209-6.933,6.592-9.258c2.381-2.324,4.883-3.486,7.5-3.486c1.678,0,3.213,0.469,4.6,1.406
		c1.385,0.938,2.568,2.188,3.545,3.75c0.975,1.563,1.729,3.389,2.256,5.479c0.527,2.09,0.791,4.268,0.791,6.533
		c0,1.915-0.273,3.936-0.82,6.064c-0.549,2.129-1.289,4.297-2.227,6.504c-0.938,2.208-2.043,4.444-3.311,6.709
		c-1.27,2.266-2.607,4.512-4.014,6.738c0.352,0.04,0.938,0.069,1.758,0.088c0.82,0.02,1.766,0.049,2.842,0.088
		c1.074,0.04,2.234,0.088,3.486,0.146c1.25,0.059,2.461,0.108,3.633,0.146c1.172,0.04,2.264,0.079,3.281,0.117
		c1.016,0.04,1.854,0.079,2.52,0.117c0.781,0.04,1.348,0.43,1.699,1.172c0.352,0.743,0.527,1.68,0.527,2.812
		c0,1.368-0.391,2.481-1.172,3.34c-0.783,0.86-1.641,1.289-2.578,1.289h-22.5c-1.135,1.563-2.277,3.096-3.428,4.6
		c-1.152,1.504-2.219,2.862-3.193,4.072c-0.156,2.422-0.293,4.805-0.41,7.148c-0.039,1.016-0.08,2.061-0.117,3.135
		c-0.039,1.075-0.08,2.139-0.117,3.193c-0.039,1.055-0.068,2.071-0.088,3.047c-0.021,0.977-0.029,1.875-0.029,2.695
		c0,2.109,0.195,3.887,0.586,5.332c0.389,1.446,0.957,2.627,1.699,3.545c0.74,0.918,1.648,1.582,2.725,1.992
		c1.074,0.41,2.275,0.615,3.604,0.615c0.82,0,1.846-0.195,3.076-0.586c1.23-0.39,2.578-0.927,4.043-1.611
		c1.465-0.683,3.008-1.494,4.629-2.432c1.619-0.938,3.223-1.963,4.805-3.076s3.096-2.285,4.541-3.516
		c1.443-1.23,2.754-2.49,3.926-3.779V204.483z M316.686,130.304c0-0.429-0.029-0.908-0.088-1.436s-0.186-1.025-0.381-1.494
		c-0.197-0.469-0.498-0.859-0.908-1.172c-0.41-0.312-0.988-0.469-1.729-0.469c-1.018,0-2.043,0.899-3.076,2.695
		c-1.035,1.797-2.031,4.092-2.988,6.885c-0.959,2.793-1.855,5.87-2.695,9.229c-0.842,3.36-1.611,6.621-2.314,9.785
		c0.586,0.079,1.172,0.146,1.758,0.205s1.191,0.127,1.816,0.205c1.172-1.992,2.393-4.15,3.662-6.475
		c1.268-2.324,2.41-4.609,3.428-6.855c1.016-2.246,1.854-4.345,2.52-6.299C316.354,133.156,316.686,131.554,316.686,130.304z"/>
	<path fill="#29114A" d="M333.619,205.362c0-2.578,0.154-5.556,0.469-8.936c0.312-3.378,0.703-6.816,1.172-10.312
		c0.469-3.496,0.996-6.865,1.582-10.107c0.586-3.242,1.15-6.015,1.699-8.32c0.43-1.796,1.26-3.3,2.49-4.512
		c1.23-1.21,2.9-1.816,5.01-1.816s3.574,0.645,4.395,1.934s1.23,3.008,1.23,5.156c0,0.586-0.059,1.377-0.176,2.373
		s-0.264,2.09-0.439,3.281c-0.176,1.192-0.361,2.422-0.557,3.691c-0.197,1.27-0.381,2.442-0.557,3.516
		c-0.176,1.075-0.322,2.012-0.439,2.812c-0.117,0.801-0.176,1.338-0.176,1.611h1.172c0.234-0.429,0.605-1.123,1.113-2.08
		c0.506-0.957,1.092-2.06,1.758-3.311c0.664-1.25,1.377-2.568,2.139-3.955c0.762-1.386,1.473-2.714,2.139-3.984
		c0.664-1.269,1.268-2.392,1.816-3.369c0.547-0.976,0.957-1.699,1.23-2.168c1.25-2.109,2.674-3.554,4.277-4.336
		c1.602-0.781,3.377-1.172,5.332-1.172c1.953,0,3.506,0.82,4.658,2.461c1.15,1.641,1.729,3.907,1.729,6.797
		c0,0.43-0.088,1.153-0.264,2.168c-0.176,1.016-0.402,2.227-0.674,3.633c-0.273,1.406-0.578,2.95-0.908,4.629
		c-0.332,1.68-0.637,3.398-0.908,5.156c-0.273,1.758-0.498,3.497-0.674,5.215c-0.176,1.719-0.264,3.301-0.264,4.746
		c0,2.422,0.301,4.415,0.908,5.977c0.605,1.563,1.553,2.344,2.842,2.344c0.586,0,1.26-0.176,2.021-0.527s1.582-0.81,2.461-1.377
		c0.879-0.566,1.777-1.22,2.695-1.963c0.916-0.742,1.824-1.503,2.725-2.285c2.07-1.835,4.238-3.906,6.504-6.211l0.996,13.125
		l-2.93,2.227c-1.604,1.211-3.232,2.422-4.893,3.633c-1.662,1.211-3.391,2.295-5.186,3.252c-1.797,0.958-3.672,1.739-5.625,2.344
		c-1.955,0.606-4.006,0.908-6.152,0.908c-2.148,0-3.955-1.553-5.42-4.658s-2.197-7.646-2.197-13.623
		c0-2.344,0.154-4.873,0.469-7.588c0.312-2.714,0.703-5.634,1.172-8.76h-0.938l-15.352,30.469c-0.783,1.602-1.662,2.695-2.637,3.281
		c-0.977,0.586-2.109,0.879-3.398,0.879c-1.604,0-2.893-0.341-3.867-1.025c-0.977-0.683-1.729-1.601-2.256-2.754
		c-0.527-1.152-0.879-2.461-1.055-3.926S333.619,206.925,333.619,205.362z"/>
	<path fill="#29114A" d="M407.74,217.608c-3.672,0-6.885-0.664-9.639-1.992c-2.754-1.328-5.049-3.115-6.885-5.361
		c-1.838-2.246-3.215-4.843-4.131-7.793c-0.918-2.949-1.377-6.044-1.377-9.287c0-2.187,0.213-4.501,0.645-6.943
		c0.43-2.441,1.084-4.834,1.963-7.178s1.982-4.58,3.311-6.709c1.326-2.128,2.879-4.003,4.658-5.625
		c1.777-1.621,3.77-2.91,5.977-3.867c2.205-0.957,4.658-1.436,7.354-1.436c2.188,0,4.219,0.352,6.094,1.055s3.506,1.69,4.893,2.959
		c1.385,1.27,2.469,2.803,3.252,4.6c0.781,1.797,1.172,3.809,1.172,6.035c0,2.422-0.596,4.844-1.787,7.266
		c-1.193,2.422-2.842,4.708-4.951,6.855c-2.109,2.149-4.621,4.063-7.529,5.742c-2.91,1.68-6.064,2.988-9.463,3.926
		c0.586,1.055,1.162,1.934,1.729,2.637c0.564,0.703,1.143,1.25,1.729,1.641c0.586,0.391,1.201,0.665,1.846,0.82
		c0.645,0.157,1.338,0.234,2.08,0.234c2.344,0,4.812-0.469,7.412-1.406c2.598-0.938,5.127-2.109,7.588-3.516s4.783-2.939,6.973-4.6
		c2.188-1.66,4.043-3.232,5.566-4.717l7.559,7.852c-3.438,3.555-7.09,6.7-10.957,9.434c-1.68,1.172-3.486,2.325-5.42,3.457
		c-1.934,1.133-3.965,2.139-6.094,3.018c-2.131,0.879-4.336,1.582-6.621,2.109S410.084,217.608,407.74,217.608z M399.947,190.069
		c1.406,0,2.938-0.361,4.6-1.084c1.66-0.722,3.201-1.65,4.629-2.783c1.426-1.132,2.627-2.363,3.604-3.691
		c0.975-1.328,1.465-2.617,1.465-3.867c0-1.758-0.322-3.203-0.967-4.336c-0.645-1.132-1.436-1.699-2.373-1.699
		c-1.68,0-3.115,0.313-4.307,0.938c-1.193,0.625-2.189,1.436-2.988,2.432c-0.801,0.996-1.445,2.129-1.934,3.398
		c-0.49,1.27-0.859,2.549-1.113,3.838c-0.256,1.289-0.42,2.54-0.498,3.75C399.984,188.175,399.947,189.21,399.947,190.069z"/>
	<path fill="#29114A" d="M434.049,205.362c0-1.718,0.096-3.721,0.293-6.006c0.195-2.285,0.459-4.697,0.791-7.236
		c0.33-2.539,0.723-5.127,1.172-7.764c0.447-2.637,0.928-5.146,1.436-7.529c0.506-2.382,1.016-4.57,1.523-6.562
		c0.506-1.992,1.016-3.633,1.523-4.922c0.312-0.859,0.623-1.542,0.938-2.051c0.312-0.507,0.674-0.908,1.084-1.201
		s0.916-0.488,1.523-0.586c0.605-0.097,1.355-0.146,2.256-0.146c1.016,0,1.807,0.049,2.373,0.146
		c0.564,0.098,0.986,0.333,1.26,0.703c0.271,0.372,0.439,0.908,0.498,1.611s0.088,1.661,0.088,2.871c0,1.446,0,3.193,0,5.244
		s0.037,4.072,0.117,6.064h0.645c0.781-1.562,1.66-3.311,2.637-5.244c0.975-1.934,2.109-3.74,3.398-5.42
		c1.289-1.679,2.754-3.095,4.395-4.248c1.641-1.152,3.535-1.729,5.684-1.729c0.74,0,1.465,0.127,2.168,0.381
		c0.703,0.254,1.318,0.615,1.846,1.084s0.945,1.045,1.26,1.729c0.312,0.684,0.469,1.456,0.469,2.314
		c0,0.665-0.098,1.592-0.293,2.783c-0.197,1.192-0.41,2.442-0.645,3.75c-0.234,1.309-0.449,2.578-0.645,3.809
		c-0.197,1.23-0.293,2.256-0.293,3.076c0,1.406,0.137,2.578,0.41,3.516c0.271,0.938,0.635,1.69,1.084,2.256
		c0.447,0.567,0.957,0.967,1.523,1.201c0.564,0.234,1.162,0.352,1.787,0.352c1.758,0,3.574-0.39,5.449-1.172
		c1.875-0.781,3.594-1.66,5.156-2.637c1.836-1.132,3.633-2.421,5.391-3.867l-0.879,13.711c-1.018,0.665-2.168,1.406-3.457,2.227
		s-2.666,1.592-4.131,2.314c-1.465,0.723-2.988,1.329-4.57,1.816c-1.582,0.489-3.193,0.732-4.834,0.732
		c-2.93,0-5.295-0.595-7.09-1.787c-1.797-1.191-3.223-2.754-4.277-4.688s-1.838-4.102-2.344-6.504
		c-0.508-2.402-0.918-4.834-1.23-7.295H458.6l-10.488,29.238c-0.549,1.523-1.064,2.783-1.553,3.779
		c-0.49,0.996-0.988,1.807-1.494,2.432c-0.508,0.625-1.055,1.065-1.641,1.318c-0.586,0.254-1.23,0.381-1.934,0.381
		c-1.604,0-2.893-0.341-3.867-1.025c-0.977-0.683-1.729-1.601-2.256-2.754c-0.527-1.152-0.879-2.461-1.055-3.926
		S434.049,206.925,434.049,205.362z"/>
</g>
</svg>
