<?xml version="1.0" encoding="UTF-8"?>
<svg width="1106px" height="681px" viewBox="0 0 1106 681" version="1.1" xmlns="http://www.w3.org/2000/svg" xmlns:xlink="http://www.w3.org/1999/xlink">
    <!-- Generator: Sketch 48.2 (47327) - http://www.bohemiancoding.com/sketch -->
    <title>Logo White</title>
    <desc>Created with Sketch.</desc>
    <defs>
        <path d="M165.754,668.312 L182.207,668.312 C179.957,677.828 175.668,685.141 169.34,690.25 C162.824,695.313 155.113,697.844 146.207,697.844 C138.145,697.656 131.418,695.688 126.027,691.937 C120.543,688.328 116.559,684.156 114.074,679.422 C113.324,677.875 112.645,676.398 112.035,674.992 C111.473,673.539 111.004,671.711 110.629,669.508 C109.926,665.383 109.574,657.461 109.574,645.742 C109.574,633.836 109.926,625.867 110.629,621.836 C111.379,617.805 112.527,614.547 114.074,612.062 C116.559,607.328 120.543,603.109 126.027,599.406 C131.418,595.656 138.145,593.734 146.207,593.641 C156.098,593.734 164.16,596.664 170.395,602.43 C176.629,608.242 180.566,615.437 182.207,624.016 L165.754,624.016 C164.488,619.891 162.191,616.375 158.863,613.469 C155.395,610.703 151.176,609.273 146.207,609.18 C142.551,609.273 139.41,610 136.785,611.359 C134.113,612.766 131.957,614.523 130.316,616.633 C128.301,618.836 126.965,621.672 126.309,625.141 C125.559,628.797 125.184,635.664 125.184,645.742 C125.184,655.82 125.559,662.641 126.309,666.203 C126.965,669.766 128.301,672.648 130.316,674.852 C131.957,676.961 134.113,678.672 136.785,679.984 C139.41,681.531 142.551,682.305 146.207,682.305 C154.926,682.305 161.441,677.641 165.754,668.312 Z M203.84,697 L203.84,624.016 L218.535,624.016 L218.535,631.75 L218.816,631.75 C223.645,625.984 229.973,623.102 237.801,623.102 C243.66,623.195 248.77,625.07 253.129,628.727 L242.441,641.453 C239.348,639.016 236.137,637.797 232.809,637.797 C229.059,637.797 225.848,639.016 223.176,641.453 C220.176,643.844 218.629,647.711 218.535,653.055 L218.535,697 L203.84,697 Z M325.879,666.063 L280.387,666.063 C280.387,671.922 282.074,676.375 285.449,679.422 C288.59,682.516 292.715,684.063 297.824,684.063 C303.777,684.063 309.098,681.695 313.785,676.961 L324.402,686.031 C316.949,694 308.184,697.937 298.105,697.844 C294.262,697.844 290.512,697.281 286.855,696.156 C285.027,695.547 283.246,694.727 281.512,693.695 C279.684,692.805 277.973,691.703 276.379,690.391 C273.285,687.672 270.777,683.875 268.855,679 C266.746,674.312 265.691,668.219 265.691,660.719 C265.691,653.5 266.605,647.5 268.434,642.719 C270.262,637.844 272.605,634 275.465,631.188 C278.371,628.328 281.629,626.266 285.238,625 C288.801,623.734 292.316,623.102 295.785,623.102 C304.129,623.195 311.184,625.937 316.949,631.328 C322.809,636.813 325.785,644.359 325.879,653.969 L325.879,666.063 Z M280.387,653.969 L311.184,653.969 C310.996,648.297 309.473,644.008 306.613,641.102 C303.801,638.336 300.191,636.953 295.785,636.953 C291.379,636.953 287.77,638.336 284.957,641.102 C282.191,644.008 280.668,648.297 280.387,653.969 Z M391.598,697 L391.598,690.531 L391.316,690.531 C389.957,693.016 387.848,694.844 384.988,696.016 C382.176,697.234 378.285,697.844 373.316,697.844 C365.16,697.75 358.879,695.594 354.473,691.375 C349.832,687.25 347.512,681.977 347.512,675.555 C347.512,669.414 349.527,664.328 353.559,660.297 C357.59,656.172 363.496,654.062 371.277,653.969 L391.598,653.969 L391.598,646.305 C391.691,639.883 386.699,636.766 376.621,636.953 C372.965,636.953 370.082,637.328 367.973,638.078 C365.77,638.969 364.035,640.469 362.77,642.578 L351.238,633.789 C356.816,626.477 365.043,622.914 375.918,623.102 C385.106,623.008 392.441,624.742 397.926,628.305 C403.41,631.961 406.199,638.242 406.293,647.148 L406.293,697 L391.598,697 Z M391.598,671.336 L391.598,666.063 L374.02,666.063 C365.488,666.25 361.27,669.18 361.363,674.852 C361.363,677.336 362.465,679.445 364.668,681.18 C366.777,683.102 370.27,684.063 375.145,684.063 C381.285,684.156 385.621,683.43 388.152,681.883 C390.449,680.336 391.598,676.82 391.598,671.336 Z M438.121,624.016 L438.121,601.797 L452.816,601.797 L452.816,624.016 L463.504,624.016 L463.504,635.195 L452.816,635.195 L452.816,677.734 C452.723,681.438 454.457,683.242 458.02,683.148 L463.504,683.148 L463.504,697 L455.84,697 C450.684,697 446.465,695.406 443.184,692.219 C439.809,689.172 438.121,684.766 438.121,679 L438.121,635.195 L430.809,635.195 L430.809,624.016 L438.121,624.016 Z M489.707,697 L489.707,624.016 L504.402,624.016 L504.402,697 L489.707,697 Z M489.707,609.18 L489.707,594.485 L504.402,594.485 L504.402,609.18 L489.707,609.18 Z M552.262,697 L525.473,624.016 L541.012,624.016 L558.168,675.133 L558.449,675.133 L575.535,624.016 L591.145,624.016 L564.355,697 L552.262,697 Z M667.48,666.063 L621.988,666.063 C621.988,671.922 623.676,676.375 627.051,679.422 C630.191,682.516 634.316,684.063 639.426,684.063 C645.379,684.063 650.699,681.695 655.387,676.961 L666.004,686.031 C658.551,694 649.785,697.937 639.707,697.844 C635.863,697.844 632.113,697.281 628.457,696.156 C626.629,695.547 624.848,694.727 623.113,693.695 C621.285,692.805 619.574,691.703 617.98,690.391 C614.887,687.672 612.379,683.875 610.457,679 C608.348,674.312 607.293,668.219 607.293,660.719 C607.293,653.5 608.207,647.5 610.035,642.719 C611.863,637.844 614.207,634 617.066,631.188 C619.973,628.328 623.23,626.266 626.84,625 C630.402,623.734 633.918,623.102 637.387,623.102 C645.731,623.195 652.785,625.937 658.551,631.328 C664.41,636.813 667.387,644.359 667.48,653.969 L667.48,666.063 Z M621.988,653.969 L652.785,653.969 C652.598,648.297 651.074,644.008 648.215,641.102 C645.402,638.336 641.793,636.953 637.387,636.953 C632.98,636.953 629.371,638.336 626.559,641.102 C623.793,644.008 622.27,648.297 621.988,653.969 Z M742.738,697 L742.738,594.484 L758.277,594.484 L758.277,682.305 L808.199,682.305 L808.199,697 L742.738,697 Z M829.902,660.438 C829.902,652.75 830.535,646.844 831.801,642.719 C833.113,638.687 835.129,635.289 837.848,632.523 C839.863,630.086 842.676,627.906 846.285,625.984 C849.848,624.156 854.418,623.195 859.996,623.102 C865.762,623.195 870.426,624.156 873.988,625.984 C877.504,627.906 880.223,630.086 882.145,632.523 C885.051,635.289 887.113,638.687 888.332,642.719 C889.504,646.844 890.09,652.75 890.09,660.438 C890.09,668.125 889.504,673.984 888.332,678.016 C887.113,682.047 885.051,685.539 882.145,688.492 C881.207,689.57 880.059,690.625 878.699,691.656 C877.48,692.828 875.91,693.836 873.988,694.68 C870.426,696.695 865.762,697.75 859.996,697.844 C854.418,697.75 849.848,696.695 846.285,694.68 C842.676,692.852 839.863,690.789 837.848,688.492 C835.129,685.539 833.113,682.047 831.801,678.016 C830.535,673.984 829.902,668.125 829.902,660.438 Z M875.395,660.578 C875.395,655.375 875.16,651.578 874.691,649.187 C874.223,646.891 873.262,644.875 871.809,643.141 C870.73,641.5 869.137,640.211 867.027,639.273 C865.012,638.289 862.668,637.797 859.996,637.797 C857.512,637.797 855.215,638.289 853.105,639.273 C851.09,640.211 849.449,641.5 848.184,643.141 C846.918,644.875 846.004,646.891 845.441,649.187 C844.879,651.578 844.598,655.328 844.598,660.438 C844.598,665.5 844.879,669.203 845.441,671.547 C846.004,673.938 846.918,676.047 848.184,677.875 C849.449,679.281 851.09,680.523 853.105,681.602 C855.215,682.633 857.512,683.148 859.996,683.148 C862.668,683.148 865.012,682.633 867.027,681.602 C869.137,680.523 870.73,679.281 871.809,677.875 C873.262,676.047 874.223,673.938 874.691,671.547 C875.16,669.203 875.395,665.547 875.395,660.578 Z M913.902,660.438 C913.902,652.75 914.535,646.844 915.801,642.719 C917.113,638.687 919.129,635.289 921.848,632.523 C923.863,630.086 926.676,627.906 930.285,625.984 C933.848,624.156 938.418,623.195 943.996,623.102 C949.762,623.195 954.426,624.156 957.988,625.984 C961.504,627.906 964.223,630.086 966.145,632.523 C969.051,635.289 971.113,638.687 972.332,642.719 C973.504,646.844 974.09,652.75 974.09,660.438 C974.09,668.125 973.504,673.984 972.332,678.016 C971.113,682.047 969.051,685.539 966.145,688.492 C965.207,689.57 964.059,690.625 962.699,691.656 C961.48,692.828 959.91,693.836 957.988,694.68 C954.426,696.695 949.762,697.75 943.996,697.844 C938.418,697.75 933.848,696.695 930.285,694.68 C926.676,692.852 923.863,690.789 921.848,688.492 C919.129,685.539 917.113,682.047 915.801,678.016 C914.535,673.984 913.902,668.125 913.902,660.438 Z M959.395,660.578 C959.395,655.375 959.16,651.578 958.691,649.187 C958.223,646.891 957.262,644.875 955.809,643.141 C954.73,641.5 953.137,640.211 951.027,639.273 C949.012,638.289 946.668,637.797 943.996,637.797 C941.512,637.797 939.215,638.289 937.105,639.273 C935.09,640.211 933.449,641.5 932.184,643.141 C930.918,644.875 930.004,646.891 929.441,649.187 C928.879,651.578 928.598,655.328 928.598,660.438 C928.598,665.5 928.879,669.203 929.441,671.547 C930.004,673.938 930.918,676.047 932.184,677.875 C933.449,679.281 935.09,680.523 937.105,681.602 C939.215,682.633 941.512,683.148 943.996,683.148 C946.668,683.148 949.012,682.633 951.027,681.602 C953.137,680.523 954.73,679.281 955.809,677.875 C957.262,676.047 958.223,673.938 958.691,671.547 C959.16,669.203 959.395,665.547 959.395,660.578 Z M1001.488,726.531 L1001.488,624.016 L1016.184,624.016 L1016.184,631.609 C1021.059,626.172 1027.34,623.336 1035.027,623.102 C1043.98,623.336 1050.52,626.523 1054.645,632.664 C1056.66,634.961 1058.043,637.984 1058.793,641.734 C1059.496,645.438 1059.848,651.719 1059.848,660.578 C1059.848,669.203 1059.496,675.391 1058.793,679.141 C1058.043,682.891 1056.66,685.961 1054.645,688.352 C1052.629,691.164 1049.98,693.414 1046.699,695.102 C1043.465,696.836 1039.574,697.75 1035.027,697.844 C1031.277,697.844 1027.926,697.023 1024.973,695.383 C1021.785,693.883 1018.855,691.82 1016.184,689.195 L1016.184,726.531 L1001.488,726.531 Z M1030.598,683.148 C1034.066,683.148 1036.809,682.492 1038.824,681.18 C1040.84,679.82 1042.27,678.086 1043.113,675.977 C1044.051,673.773 1044.684,671.336 1045.012,668.664 C1045.105,666.039 1045.152,663.344 1045.152,660.578 C1045.152,657.672 1045.105,654.836 1045.012,652.07 C1044.684,649.305 1044.051,646.867 1043.113,644.758 C1042.27,642.555 1040.84,640.82 1038.824,639.555 C1036.809,638.383 1034.066,637.797 1030.598,637.797 C1027.316,637.797 1024.715,638.477 1022.793,639.836 C1020.777,641.195 1019.301,642.977 1018.363,645.18 C1017.473,647.383 1016.887,649.773 1016.605,652.352 C1016.324,655.07 1016.184,657.813 1016.184,660.578 C1016.184,663.156 1016.324,665.734 1016.605,668.312 C1016.887,671.031 1017.473,673.492 1018.363,675.695 C1019.301,677.898 1020.777,679.68 1022.793,681.039 C1024.715,682.445 1027.316,683.148 1030.598,683.148 Z" id="path-1"></path>
    </defs>
    <g id="Page-1" stroke="none" stroke-width="1" fill="none" fill-rule="evenodd">
        <g id="Logo-White" transform="translate(-40.000000, -46.000000)">
            <path d="M1141,250 C1141,359.898 1051.776,449 941.727,449 C817.182,449 692.636,349.5 593,250 C493.364,150.5 368.818,51 244.273,51 C134.224,51 45,140.102 45,250 C45,359.898 134.224,449 244.273,449 C368.818,449 493.364,349.5 593,250 C692.636,150.5 817.182,51 941.727,51 C1051.776,51 1141,140.102 1141,250 Z" id="Stroke-1" stroke="#000000" stroke-width="10"></path>
            <mask id="mask-2" fill="#FFFFFF">
                <use xlink:href="#path-1"></use>
            </mask>
            <g id="Clip-3"></g>
            <polygon id="Fill-2" fill="#000000" mask="url(#mask-2)" points="109.5 726.64 1059.9 726.64 1059.9 593.56 109.5 593.56"></polygon>
        </g>
    </g>
</svg>
