<?xml version="1.0" encoding="utf-8"?>
<!-- Generator: Adobe Illustrator 16.0.0, SVG Export Plug-In . SVG Version: 6.00 Build 0)  -->
<!DOCTYPE svg PUBLIC "-//W3C//DTD SVG 1.1//EN" "http://www.w3.org/Graphics/SVG/1.1/DTD/svg11.dtd">
<svg version="1.1" id="Layer_1" xmlns="http://www.w3.org/2000/svg" xmlns:xlink="http://www.w3.org/1999/xlink" x="0px" y="0px"
	 width="398.508px" height="93.42px" viewBox="0 0 398.508 93.42" enable-background="new 0 0 398.508 93.42" xml:space="preserve">
<g>
	<path fill="#221000" d="M0.188,0.068h34.853c0,0,28.74-2.429,28.74,21.761c0,24.186-24.776,22.368-29.506,22.368L0,44.15V33.448
		h35.57c0,0,15.622,0.72,15.622-11.619c0-11.917-10.559-11.082-16.004-11.082c-5.448,0-35.006,0-35.006,0L0.188,0.068z"/>
	<path fill="#221000" d="M59.093,52.176c5.295,3.174,10.062,8.887,10.062,18.236c0,24.186-24.79,22.822-29.52,22.822L0,93.268
		V82.553l40.669-0.007c0,0,15.794,0.206,15.896-12.134c0.07-8.479-5.323-14.932-10.474-18.236H59.093z"/>
</g>
<path fill="#221000" d="M100.18,52.176h14.899c0,6.721,0,16.425,0,21.158c0,6.942,4.167,9.219,8.294,9.219c4.128,0,36.99,0,40.725,0
	l0.059,10.867c-3.931,0-44.031,0-49.142,0c-5.111,0-14.836-3.309-14.836-17.109C100.18,61.039,100.18,52.176,100.18,52.176z"/>
<path fill="#221000" d="M164.205,33.514c-3.735,0-38.012-0.019-42.14-0.019s-7.05-0.4-7.05-5.135c0-0.741,0-11.506,0.072-12.333
	c0-4.968,2.558-5.28,6.686-5.28c4.127,0,38.598,0,42.333,0l0.005-10.68c-3.931,0-48.028,0-48.028,0S100.18-0.994,100.18,16.014
	c0,5.932,0,11.656,0,11.868c0,15.272,11.397,16.268,16.507,16.268c5.111,0,43.492,0,47.425,0L164.205,33.514z"/>
<path fill="#221000" d="M270.792,0.092c-2.242,2.473-23.06,27.36-25.704,29.967c-4.397,4.336-12.281,3.413-18.665,3.413
	c-6.484,0-7.593-4.909-7.593-8.246c0-3.339-0.025-22.116-0.025-25.135h-14.827c0,3.178,0.055,29.249,0.055,33.38
	c0,3.284,1.541,10.716,14.744,10.716c2.483,0,25.177-0.037,25.436-0.039c3.273-0.024,8.195-1.993,13.852-8.679
	c1.673-1.978,25.846-31.059,29.771-35.379H270.792z"/>
<path fill="#221000" d="M256.198,58.869c-3.113-3.363-5.948-6.692-15.737-6.692c0,0-6.559,0-21.685,0
	c-10.849,0-14.708,7.87-14.708,12.003c0,4.132,0,25.921,0,29.1l14.771-0.048c0-3.019,0.026-21.717,0.026-25.056
	c0-3.336,0.979-5.223,7.465-5.223c6.385,0,5.389,0.034,6.108,0.029c6.106-0.04,9.53,0.217,12.685,3.361
	c2.632,2.62,24.263,24.278,26.748,26.894h16.998C284.701,88.773,257.958,60.77,256.198,58.869z"/>
<path fill="#221000" d="M380.43,0.124c-2.242,2.473-23.06,27.36-25.704,29.967c-4.397,4.336-12.281,3.413-18.665,3.413
	c-6.484,0-7.593-4.909-7.593-8.246c0-3.339-0.025-22.116-0.025-25.135h-14.827c0,3.178,0.055,29.249,0.055,33.38
	c0,3.284,1.541,10.716,14.744,10.716c2.483,0,25.177-0.037,25.436-0.039c3.273-0.023,8.195-1.993,13.852-8.679
	c1.673-1.978,25.846-31.059,29.771-35.379H380.43z"/>
<path fill="#221000" d="M365.836,58.9c-3.113-3.363-5.948-6.691-15.737-6.691c0,0-6.559,0-21.685,0
	c-10.849,0-14.708,7.869-14.708,12.003c0,4.132,0,25.92,0,29.1l14.771-0.049c0-3.018,0.026-21.716,0.026-25.056
	c0-3.336,0.979-5.223,7.465-5.223c6.385,0,5.389,0.034,6.108,0.029c6.106-0.04,9.53,0.217,12.685,3.361
	c2.632,2.619,24.263,24.279,26.748,26.894h16.998C394.339,88.806,367.596,60.801,365.836,58.9z"/>
</svg>
