<?xml version="1.0" encoding="utf-8"?>
<!-- Generator: Adobe Illustrator 16.0.0, SVG Export Plug-In . SVG Version: 6.00 Build 0)  -->
<!DOCTYPE svg PUBLIC "-//W3C//DTD SVG 1.1//EN" "http://www.w3.org/Graphics/SVG/1.1/DTD/svg11.dtd">
<svg version="1.1" id="Layer_1" xmlns="http://www.w3.org/2000/svg" xmlns:xlink="http://www.w3.org/1999/xlink" x="0px" y="0px"
	 width="430.04px" height="116.694px" viewBox="0 0 430.04 116.694" enable-background="new 0 0 430.04 116.694"
	 xml:space="preserve">
<g>
	<g>
		<path fill="#FF5000" d="M426.571,3.468v41.89h-49.891h-1.574l-1.033,1.181l-5.697,6.493l-0.023-4.225l-0.018-3.449h-3.451h-7.387
			V3.468H426.571 M430.04,0h-76.012v48.825h10.855l0.076,13.362l11.721-13.362h53.359V0L430.04,0z"/>
	</g>
	<g>
		<path fill="#FF5000" d="M366.13,11.228h1.967l0.666,7.435l3.506-7.435h1.625l1.365,7.239l2.555-7.239h2.084l-4.062,11.476h-1.762
			l-1.441-7.598l-3.586,7.598h-1.875L366.13,11.228z"/>
		<path fill="#FF5000" d="M386.192,20.22l1.834,0.95c-0.412,0.541-0.955,0.966-1.635,1.28c-0.678,0.314-1.432,0.471-2.258,0.471
			c-1.293,0-2.314-0.362-3.061-1.092c-0.748-0.728-1.121-1.695-1.121-2.901c0-1.379,0.467-2.545,1.4-3.498
			c0.934-0.956,2.061-1.432,3.381-1.432c0.799,0,1.504,0.175,2.127,0.521c0.621,0.35,1.111,0.857,1.471,1.521
			c0.357,0.667,0.537,1.389,0.537,2.169c0,0.245-0.023,0.531-0.076,0.856h-6.771c0.02,0.591,0.213,1.062,0.58,1.411
			s0.873,0.525,1.518,0.525C384.897,21.003,385.591,20.743,386.192,20.22z M386.724,17.538c-0.154-0.521-0.416-0.913-0.781-1.181
			c-0.363-0.268-0.803-0.402-1.316-0.402c-0.51,0-0.971,0.137-1.381,0.414c-0.41,0.276-0.725,0.666-0.936,1.169H386.724z"/>
		<path fill="#FF5000" d="M402.372,10.939h2.084l-1.631,11.764h-2.061l0.123-0.911c-0.451,0.421-0.875,0.714-1.268,0.88
			c-0.395,0.166-0.834,0.249-1.324,0.249c-1.125,0-2.018-0.413-2.682-1.239c-0.664-0.828-0.996-1.79-0.996-2.887
			c0-0.836,0.213-1.635,0.637-2.39c0.426-0.759,0.994-1.349,1.711-1.773c0.715-0.423,1.465-0.634,2.246-0.634
			c0.525,0,1.008,0.12,1.453,0.36c0.441,0.241,0.807,0.592,1.096,1.052L402.372,10.939z M398.792,21.064
			c0.514,0,0.959-0.113,1.342-0.344c0.381-0.229,0.701-0.586,0.959-1.074c0.26-0.488,0.387-0.986,0.387-1.494
			c0-0.673-0.193-1.213-0.582-1.623c-0.389-0.409-0.902-0.612-1.539-0.612c-0.742,0-1.373,0.272-1.891,0.818
			c-0.516,0.546-0.775,1.25-0.775,2.114c0,0.666,0.195,1.203,0.588,1.607S398.177,21.064,398.792,21.064z"/>
		<path fill="#FF5000" d="M410.056,13.998c0.754,0,1.439,0.175,2.057,0.521c0.615,0.35,1.094,0.844,1.438,1.482
			c0.342,0.64,0.516,1.356,0.516,2.154c0,1.321-0.471,2.445-1.41,3.373c-0.941,0.929-2.107,1.392-3.498,1.392
			c-1.203,0-2.168-0.364-2.887-1.095c-0.715-0.73-1.074-1.688-1.074-2.867c0-1.425,0.484-2.607,1.459-3.549
			C407.628,14.468,408.761,13.998,410.056,13.998z M409.911,15.972c-0.852,0-1.504,0.306-1.957,0.916
			c-0.457,0.61-0.684,1.272-0.684,1.986c0,0.634,0.188,1.145,0.557,1.531c0.371,0.388,0.865,0.583,1.484,0.583
			c0.879,0,1.545-0.295,2.006-0.886c0.459-0.591,0.689-1.266,0.689-2.025c0-0.624-0.195-1.13-0.584-1.521
			C411.032,16.166,410.53,15.972,409.911,15.972z"/>
		<path fill="#FF5000" d="M367.034,26.548h2.072l-0.43,3.153h1.316l-0.248,1.794h-1.314l-0.91,6.693h-2.076l0.912-6.693h-1.021
			l0.242-1.794h1.025L367.034,26.548z"/>
		<path fill="#FF5000" d="M377.64,29.701h2.088l-1.184,8.487h-2.062l0.125-0.912c-0.453,0.421-0.877,0.714-1.27,0.881
			c-0.395,0.165-0.836,0.248-1.324,0.248c-1.125,0-2.018-0.413-2.684-1.239c-0.662-0.828-0.994-1.79-0.994-2.887
			c0-0.836,0.211-1.635,0.637-2.39c0.422-0.759,0.996-1.348,1.711-1.771c0.715-0.426,1.465-0.638,2.246-0.638
			c0.525,0,1.008,0.121,1.449,0.361c0.445,0.24,0.811,0.592,1.1,1.052L377.64,29.701z M374.513,36.549
			c0.514,0,0.961-0.113,1.342-0.342c0.381-0.228,0.703-0.588,0.963-1.074c0.258-0.488,0.387-0.987,0.387-1.496
			c0-0.672-0.195-1.212-0.584-1.622c-0.391-0.409-0.904-0.614-1.541-0.614c-0.744,0-1.375,0.273-1.893,0.819
			c-0.52,0.546-0.777,1.25-0.777,2.114c0,0.666,0.197,1.203,0.588,1.607C373.39,36.346,373.896,36.549,374.513,36.549z"/>
		<path fill="#FF5000" d="M382.153,26.424h2.078l-1.607,11.765h-2.076L382.153,26.424z"/>
		<path fill="#FF5000" d="M390.981,35.703l1.834,0.951c-0.41,0.539-0.955,0.966-1.635,1.281c-0.678,0.313-1.432,0.47-2.258,0.47
			c-1.295,0-2.314-0.363-3.061-1.092c-0.746-0.728-1.121-1.694-1.121-2.902c0-1.378,0.467-2.544,1.4-3.497
			c0.934-0.955,2.061-1.433,3.383-1.433c0.795,0,1.504,0.175,2.125,0.522c0.623,0.35,1.111,0.857,1.471,1.521
			c0.359,0.666,0.539,1.39,0.539,2.168c0,0.245-0.025,0.531-0.078,0.857h-6.771c0.02,0.591,0.213,1.062,0.58,1.411
			s0.873,0.525,1.518,0.525C389.688,36.487,390.38,36.228,390.981,35.703z M391.513,33.023c-0.156-0.521-0.416-0.914-0.779-1.182
			c-0.365-0.269-0.803-0.402-1.32-0.402c-0.508,0-0.969,0.137-1.379,0.414c-0.41,0.276-0.723,0.666-0.936,1.17H391.513z"/>
		<path fill="#FF5000" d="M396.011,29.701h2.078l-0.117,0.86c0.797-0.72,1.625-1.08,2.482-1.08c0.734,0,1.338,0.233,1.805,0.699
			c0.469,0.466,0.705,1.054,0.705,1.762c0,0.333-0.047,0.829-0.135,1.49l-0.648,4.756h-2.08l0.637-4.642
			c0.061-0.48,0.092-0.84,0.092-1.078c0-0.342-0.098-0.605-0.295-0.792c-0.195-0.183-0.473-0.276-0.832-0.276
			c-0.35,0-0.699,0.121-1.051,0.363c-0.35,0.24-0.617,0.577-0.805,1.007c-0.188,0.429-0.361,1.233-0.518,2.413l-0.398,3.005h-2.078
			L396.011,29.701z"/>
		<path fill="#FF5000" d="M406.015,26.548h2.07l-0.428,3.153h1.316l-0.248,1.794h-1.314l-0.91,6.693h-2.076l0.912-6.693h-1.021
			l0.242-1.794h1.025L406.015,26.548z"/>
		<path fill="#FF5000" d="M415.032,30.886l-0.994,1.591c-0.254-0.379-0.521-0.658-0.805-0.837c-0.283-0.18-0.543-0.271-0.789-0.271
			c-0.188,0-0.346,0.054-0.477,0.157c-0.133,0.104-0.197,0.221-0.197,0.352c0,0.125,0.053,0.25,0.156,0.374
			c0.1,0.125,0.398,0.367,0.898,0.726c0.801,0.572,1.326,1.062,1.578,1.47c0.252,0.409,0.379,0.853,0.379,1.329
			c0,0.631-0.26,1.225-0.775,1.787c-0.52,0.562-1.268,0.843-2.25,0.843c-0.568,0-1.086-0.113-1.549-0.344
			c-0.467-0.229-0.984-0.646-1.557-1.256l1.287-1.496c0.58,0.771,1.219,1.153,1.91,1.153c0.275,0,0.496-0.066,0.66-0.199
			c0.162-0.133,0.246-0.29,0.246-0.471c0-0.146-0.062-0.296-0.189-0.448c-0.123-0.154-0.463-0.428-1.021-0.823
			c-0.645-0.459-1.088-0.852-1.332-1.178c-0.344-0.459-0.518-0.941-0.518-1.451c0-0.713,0.271-1.293,0.811-1.74
			c0.537-0.447,1.172-0.671,1.906-0.671c0.516,0,1.004,0.122,1.467,0.367C414.339,30.092,414.726,30.439,415.032,30.886z"/>
		<path fill="#FF5000" d="M417.569,35.785c0.357,0,0.664,0.127,0.922,0.38c0.258,0.257,0.385,0.565,0.385,0.93
			c0,0.36-0.127,0.667-0.385,0.924s-0.564,0.387-0.922,0.387c-0.365,0-0.674-0.13-0.93-0.387s-0.383-0.563-0.383-0.924
			c0-0.364,0.127-0.673,0.383-0.93C416.896,35.912,417.204,35.785,417.569,35.785z M417.927,26.424h2.145l-1.178,8.377h-2.145
			L417.927,26.424z"/>
	</g>
</g>
<path fill="#FF5000" d="M25.1,66.144c7.407,0,13.545,2.68,18.415,8.041c4.426,4.891,6.638,10.679,6.638,17.365
	c0,6.714-2.338,12.587-7.015,17.609s-10.69,7.534-18.038,7.534c-7.378,0-13.405-2.512-18.082-7.534C2.34,104.137,0,98.264,0,91.55
	c0-6.655,2.214-12.43,6.642-17.322C11.51,68.836,17.662,66.144,25.1,66.144z M25.078,72.198c-5.145,0-9.564,1.899-13.259,5.7
	c-3.695,3.798-5.544,8.395-5.544,13.785c0,3.476,0.843,6.716,2.528,9.721c1.686,3.003,3.961,5.326,6.829,6.959
	c2.867,1.637,6.016,2.452,9.445,2.452c3.427,0,6.576-0.815,9.445-2.452c2.867-1.633,5.143-3.956,6.828-6.959
	c1.685-3.005,2.528-6.245,2.528-9.721c0-5.391-1.855-9.987-5.566-13.785C34.604,74.097,30.191,72.198,25.078,72.198z"/>
<path fill="#FF5000" d="M104.966,48.823v66.635h-6.098v-8.267c-2.593,3.153-5.501,5.523-8.727,7.115
	c-3.226,1.591-6.755,2.388-10.584,2.388c-6.803,0-12.615-2.469-17.433-7.403c-4.816-4.932-7.223-10.935-7.223-18.006
	c0-6.921,2.429-12.841,7.291-17.762c4.859-4.921,10.708-7.379,17.541-7.379c3.948,0,7.518,0.839,10.715,2.519
	c3.197,1.679,6.003,4.196,8.419,7.553V48.823H104.966z M80.243,72.109c-3.442,0-6.621,0.844-9.534,2.538
	c-2.913,1.691-5.23,4.066-6.951,7.128c-1.722,3.061-2.582,6.297-2.582,9.711c0,3.382,0.868,6.619,2.604,9.709
	c1.735,3.088,4.068,5.493,6.997,7.215c2.926,1.721,6.066,2.582,9.423,2.582c3.384,0,6.591-0.853,9.62-2.56
	c3.031-1.706,5.364-4.015,6.996-6.928c1.633-2.914,2.45-6.194,2.45-9.845c0-5.56-1.832-10.211-5.495-13.946
	C90.106,73.976,85.598,72.109,80.243,72.109z"/>
<path fill="#FF5000" d="M161.53,48.823v66.635h-6.097v-8.267c-2.593,3.153-5.503,5.523-8.728,7.115
	c-3.227,1.591-6.753,2.388-10.583,2.388c-6.805,0-12.615-2.469-17.433-7.403c-4.816-4.932-7.224-10.935-7.224-18.006
	c0-6.921,2.431-12.841,7.291-17.762s10.708-7.379,17.541-7.379c3.948,0,7.52,0.839,10.717,2.519
	c3.195,1.679,6.002,4.196,8.418,7.553V48.823H161.53z M136.807,72.109c-3.44,0-6.62,0.844-9.533,2.538
	c-2.912,1.691-5.229,4.066-6.951,7.128c-1.721,3.061-2.581,6.297-2.581,9.711c0,3.382,0.869,6.619,2.603,9.709
	c1.736,3.088,4.069,5.493,6.997,7.215c2.927,1.721,6.068,2.582,9.424,2.582c3.382,0,6.591-0.853,9.621-2.56
	c3.029-1.706,5.361-4.015,6.995-6.928c1.632-2.914,2.45-6.194,2.45-9.845c0-5.56-1.831-10.211-5.496-13.946
	C146.672,73.976,142.163,72.109,136.807,72.109z"/>
<path fill="#FF5000" d="M168.417,67.38h11.809l9.668,27.352l10.4-27.352h7.223l10.211,27.043l9.684-27.043h11.883l-17.541,48.077
	h-7.646L203.854,88.06l-10.561,27.397h-7.555L168.417,67.38z"/>
<path fill="#FF5000" d="M264.081,66.144c4.535,0,8.799,1.133,12.791,3.402c3.992,2.267,7.105,5.344,9.346,9.233
	c2.238,3.89,3.359,8.088,3.359,12.594c0,4.537-1.129,8.778-3.383,12.727c-2.252,3.947-5.324,7.032-9.211,9.256
	c-3.891,2.224-8.176,3.338-12.857,3.338c-6.895,0-12.779-2.452-17.654-7.36c-4.875-4.902-7.312-10.859-7.312-17.871
	c0-7.514,2.754-13.772,8.264-18.779C252.253,68.323,257.804,66.144,264.081,66.144z M264.278,77.498
	c-3.748,0-6.869,1.303-9.361,3.913c-2.492,2.604-3.738,5.942-3.738,10.006c0,4.185,1.23,7.571,3.695,10.163
	c2.463,2.593,5.584,3.89,9.361,3.89c3.775,0,6.92-1.31,9.428-3.933c2.508-2.62,3.762-5.993,3.762-10.12
	c0-4.122-1.232-7.474-3.697-10.052C271.265,78.789,268.114,77.498,264.278,77.498z"/>
<path fill="#FF5000" d="M295.79,67.38h10.342v6.054c1.117-2.388,2.607-4.198,4.461-5.435c1.857-1.237,3.891-1.855,6.1-1.855
	c1.561,0,3.197,0.411,4.906,1.236l-3.758,10.383c-1.414-0.708-2.578-1.059-3.492-1.059c-1.855,0-3.422,1.148-4.703,3.445
	c-1.281,2.299-1.922,6.807-1.922,13.52l0.045,2.342v19.446H295.79V67.38z"/>
<path fill="#FF5000" d="M327.651,48.823h12.062v38.378l17.764-19.82h15.148l-20.711,23.041l23.188,25.036h-14.975l-20.414-22.159
	v22.159h-12.062V48.823z"/>
</svg>
