<?xml version="1.0" encoding="utf-8"?>
<!-- Generator: Adobe Illustrator 16.0.0, SVG Export Plug-In . SVG Version: 6.00 Build 0)  -->
<!DOCTYPE svg PUBLIC "-//W3C//DTD SVG 1.1//EN" "http://www.w3.org/Graphics/SVG/1.1/DTD/svg11.dtd">
<svg version="1.1" id="Layer_1" xmlns="http://www.w3.org/2000/svg" xmlns:xlink="http://www.w3.org/1999/xlink" x="0px" y="0px"
	 width="46.54px" height="61.998px" viewBox="0 2 46.54 61.998" enable-background="new 0 2 46.54 61.998" xml:space="preserve">
<g id="tKqH5z_1_">
	<g>
		<path fill="#FFFFFF" d="M0,45.297c0-0.404,0-0.812,0-1.219c0.069-0.229,0.177-0.457,0.202-0.691
			c0.318-3.025,1.314-5.83,2.77-8.479c0.497-0.902,1.113-1.738,1.509-2.352C6.11,35.781,7.737,39,9.364,42.219
			c-0.723,0-1.628,0-2.693,0c1.146,2.356,2.801,4.021,4.865,5.301c2.572,1.598,5.761,1.823,6.977-0.961
			c0.776-1.775,1.252-3.774,1.409-5.711c0.318-3.92,0.365-7.863,0.453-11.798c0.063-2.828,0.012-3.659,0.012-6.568
			c-0.316-0.021-0.711-0.063-1.107-0.073c-2.353-0.061-4.707-0.101-7.059-0.18c-0.367-0.013-0.897-0.073-1.064-0.312
			c-0.891-1.276-1.689-2.617-2.636-4.121c4.226,0,8.192,0,12.417,0c0-1.015-0.051-1.938,0.015-2.854
			c0.058-0.801-0.167-1.281-0.89-1.75c-2.455-1.594-3.347-4.692-2.233-7.397C18.682,3.722,20.38,2.651,22.417,2
			c0.73,0,1.462,0,2.193,0c0.023,0.032,0.043,0.087,0.074,0.095C27.245,2.79,29.008,4.338,29.471,7
			c0.486,2.788-0.529,4.996-2.971,6.522c-0.252,0.157-0.469,0.565-0.482,0.869c-0.059,1.12-0.023,2.245-0.023,3.494
			c4.195,0,8.174,0,12.316,0c-0.854,1.317-1.643,2.44-2.324,3.627c-0.418,0.729-0.928,0.966-1.756,0.948
			c-2.582-0.055-5.168-0.021-7.861-0.021c0,0.41-0.004,0.685,0,0.957c0.154,7.22,0.277,12.439,0.492,19.656
			c0.035,1.146,0.334,2.341,0.764,3.409c0.806,2.002,2.414,2.98,4.58,2.98c3.279-0.002,6.76-3.562,7.842-6.774
			c-1.045-0.213-2.084-0.424-3.303-0.671c3.195-2.605,4.76-6.057,6.271-9.872c0.807,1.387,1.621,2.478,2.104,3.696
			c0.613,1.56,0.959,3.226,1.42,4.845c0,1.058,0,2.112,0,3.168c-0.127,0.396-0.256,0.794-0.397,1.235
			c-0.836-0.4-1.634-0.782-2.435-1.168c-0.426,1.301-0.725,2.609-1.27,3.809c-2.156,4.747-6.178,8.268-10.932,9.762
			c-1.955,0.612-3.662,1.545-5.062,2.99c-1.069,1.107-2.004,2.348-3.003,3.537c-1.646-3.266-4.15-5.469-7.649-6.684
			c-3.733-1.297-7.048-4.393-9.468-7.56c-1.451-1.899-2.512-4.097-3.757-6.175C1.879,44.043,0.939,44.67,0,45.297z M23.532,4.862
			c-1.848-0.013-3.312,1.447-3.307,3.297c0.004,1.817,1.529,3.337,3.324,3.312c1.747-0.024,3.226-1.514,3.25-3.269
			C26.827,6.358,25.375,4.875,23.532,4.862z"/>
	</g>
</g>
</svg>
