<?xml version="1.0" encoding="utf-8"?>
<!-- Generator: Adobe Illustrator 16.0.0, SVG Export Plug-In . SVG Version: 6.00 Build 0)  -->
<!DOCTYPE svg PUBLIC "-//W3C//DTD SVG 1.1//EN" "http://www.w3.org/Graphics/SVG/1.1/DTD/svg11.dtd">
<svg version="1.1" id="Layer_1" xmlns="http://www.w3.org/2000/svg" xmlns:xlink="http://www.w3.org/1999/xlink" x="0px" y="0px"
	 width="204.271px" height="61.983px" viewBox="11.25 17.778 204.271 61.983" enable-background="new 11.25 17.778 204.271 61.983"
	 xml:space="preserve">
<g>
	<g>
		<g>
			<defs>
				<rect id="SVGID_1_" x="0" width="226.77" height="85.04"/>
			</defs>
			<clipPath id="SVGID_2_">
				<use xlink:href="#SVGID_1_"  overflow="visible"/>
			</clipPath>
			<path clip-path="url(#SVGID_2_)" fill="#FFFFFF" d="M19.231,44.954c0,0.73,0.214,1.387,0.642,1.965
				c0.428,0.576,0.995,1.111,1.699,1.604c0.705,0.494,1.506,0.965,2.398,1.408c0.896,0.443,1.812,0.9,2.749,1.373
				c0.939,0.473,1.855,0.977,2.749,1.516c0.896,0.539,1.694,1.146,2.4,1.822c0.705,0.68,1.271,1.443,1.698,2.299
				c0.429,0.854,0.643,1.83,0.643,2.932c0,0.998-0.161,1.918-0.484,2.756c-0.321,0.84-0.763,1.592-1.323,2.256
				c-0.562,0.668-1.226,1.257-1.99,1.767c-0.768,0.513-1.595,0.935-2.483,1.267c-0.888,0.334-1.82,0.586-2.799,0.758
				c-0.978,0.174-1.96,0.26-2.949,0.26c-1.388,0-2.737-0.17-4.049-0.51c-1.311-0.338-2.478-0.848-3.499-1.531
				s-1.841-1.539-2.457-2.564c-0.617-1.027-0.925-2.229-0.925-3.607c0-0.711,0.114-1.336,0.342-1.874
				c0.228-0.539,0.512-0.988,0.85-1.351c0.34-0.361,0.709-0.633,1.107-0.815c0.4-0.183,0.771-0.272,1.117-0.272
				c0.354,0,0.651,0.096,0.891,0.291c0.239,0.192,0.358,0.495,0.358,0.907c0,0.188-0.021,0.39-0.062,0.601
				c-0.045,0.211-0.09,0.44-0.138,0.69c-0.047,0.25-0.093,0.524-0.136,0.824c-0.043,0.301-0.063,0.627-0.063,0.983
				c0,0.775,0.178,1.447,0.531,2.016c0.354,0.566,0.825,1.033,1.412,1.398c0.588,0.365,1.264,0.639,2.026,0.816
				c0.767,0.178,1.558,0.268,2.378,0.268c0.967,0,1.933-0.117,2.898-0.352c0.967-0.232,1.832-0.578,2.6-1.031
				c0.767-0.455,1.389-1.014,1.866-1.674s0.716-1.418,0.716-2.271c0-0.789-0.214-1.492-0.642-2.115
				c-0.428-0.62-0.994-1.196-1.699-1.723c-0.705-0.527-1.509-1.022-2.407-1.49c-0.899-0.465-1.815-0.938-2.749-1.416
				c-0.934-0.477-1.849-0.979-2.744-1.506c-0.899-0.526-1.698-1.106-2.402-1.74c-0.703-0.633-1.268-1.34-1.693-2.122
				c-0.427-0.783-0.641-1.673-0.641-2.673c0-0.936,0.226-1.854,0.673-2.761c0.45-0.908,1.126-1.721,2.03-2.438
				c0.904-0.718,2.033-1.299,3.385-1.744c1.354-0.446,2.939-0.668,4.759-0.668c1.154,0,2.285,0.172,3.392,0.516
				c1.104,0.345,2.091,0.833,2.957,1.467c0.866,0.633,1.562,1.388,2.091,2.265c0.527,0.878,0.792,1.852,0.792,2.917
				c0,0.633-0.109,1.282-0.325,1.948c-0.217,0.666-0.562,1.361-1.042,2.082c-0.466,0.701-0.974,1.22-1.523,1.56
				c-0.549,0.341-1.047,0.509-1.49,0.509c-0.334,0-0.606-0.099-0.817-0.291c-0.211-0.193-0.314-0.484-0.314-0.871
				c0-0.289,0.064-0.631,0.2-1.023c0.136-0.395,0.364-0.846,0.689-1.355c0.303-0.486,0.528-0.943,0.672-1.371
				c0.147-0.428,0.22-0.824,0.22-1.188c0-0.565-0.151-1.062-0.46-1.488c-0.307-0.427-0.729-0.785-1.269-1.073
				c-0.54-0.289-1.19-0.504-1.947-0.648c-0.758-0.146-1.587-0.217-2.488-0.217c-1,0-1.869,0.114-2.607,0.342
				c-0.738,0.227-1.355,0.521-1.85,0.881c-0.493,0.361-0.86,0.765-1.101,1.208C19.349,44.083,19.231,44.518,19.231,44.954"/>
		</g>
	</g>
	<g>
		<g>
			<defs>
				<rect id="SVGID_3_" x="0" width="226.77" height="85.04"/>
			</defs>
			<clipPath id="SVGID_4_">
				<use xlink:href="#SVGID_3_"  overflow="visible"/>
			</clipPath>
			<path clip-path="url(#SVGID_4_)" fill="#FFFFFF" d="M51.72,63.065c-1.067,0.623-2.019,1.166-2.854,1.633
				c-0.834,0.469-1.576,0.855-2.229,1.166c-0.65,0.312-1.228,0.547-1.734,0.701c-0.506,0.154-0.965,0.232-1.376,0.232
				c-0.84,0-1.579-0.256-2.221-0.769c-0.642-0.51-1.178-1.245-1.606-2.207c-0.433-0.961-0.755-2.122-0.97-3.489
				c-0.218-1.367-0.323-2.904-0.323-4.615c0-0.666,0.027-1.377,0.081-2.133c0.057-0.756,0.133-1.506,0.231-2.25
				c-0.336-0.049-0.596-0.097-0.779-0.14c-0.186-0.043-0.381-0.088-0.588-0.131s-0.47-0.088-0.787-0.14
				c-0.318-0.049-0.779-0.11-1.385-0.186c-0.268-0.035-0.475-0.107-0.62-0.213c-0.145-0.105-0.251-0.229-0.317-0.371
				c-0.068-0.143-0.107-0.289-0.118-0.445c-0.012-0.153-0.017-0.287-0.017-0.397c0-0.174,0.108-0.31,0.326-0.399
				c0.218-0.092,0.496-0.162,0.837-0.207c0.342-0.045,0.715-0.072,1.122-0.078s0.8-0.002,1.173,0.01
				c0.374,0.01,0.71,0.02,1.005,0.023c0.297,0.006,0.499-0.002,0.61-0.023c0.301-1.496,0.68-2.943,1.14-4.346
				c0.462-1.4,0.977-2.647,1.549-3.737c0.57-1.091,1.193-1.966,1.87-2.626c0.676-0.659,1.386-0.988,2.129-0.988
				c0.479,0,0.915,0.133,1.309,0.4c0.396,0.266,0.73,0.62,1.01,1.065c0.277,0.444,0.491,0.962,0.643,1.556
				c0.149,0.594,0.225,1.212,0.225,1.856c0,0.532-0.077,1.095-0.231,1.688c-0.156,0.592-0.367,1.195-0.635,1.811
				c-0.267,0.613-0.58,1.234-0.941,1.865s-0.742,1.256-1.143,1.875c0.101-0.037,0.269-0.045,0.502-0.021
				c0.232,0.021,0.502,0.037,0.809,0.047c0.305,0.01,0.636,0.019,0.991,0.025c0.354,0.012,0.699,0.021,1.032,0.031
				s0.645,0.021,0.934,0.031c0.289,0.012,0.527,0.021,0.717,0.035c0.222,0.012,0.383,0.135,0.482,0.368
				c0.101,0.234,0.149,0.531,0.149,0.892c0,0.414-0.11,0.752-0.334,1.014c-0.222,0.262-0.467,0.393-0.733,0.393h-6.404
				c-0.323,0.443-0.65,0.881-0.979,1.31c-0.329,0.428-0.634,0.813-0.912,1.157c-0.044,0.688-0.083,1.367-0.116,2.033
				c-0.012,0.287-0.022,0.586-0.033,0.891c-0.012,0.306-0.022,0.607-0.033,0.908c-0.011,0.299-0.021,0.588-0.024,0.867
				c-0.007,0.275-0.01,0.531-0.01,0.766c0,0.601,0.058,1.104,0.167,1.517c0.112,0.41,0.273,0.746,0.486,1.009
				c0.211,0.262,0.471,0.448,0.776,0.565c0.307,0.116,0.649,0.176,1.028,0.176c0.234,0,0.525-0.058,0.876-0.168
				c0.352-0.108,0.734-0.265,1.15-0.457c0.418-0.192,0.856-0.426,1.317-0.69c0.461-0.269,0.917-0.56,1.366-0.875
				c0.45-0.316,0.883-0.648,1.294-1c0.41-0.351,0.783-0.707,1.117-1.072V63.065L51.72,63.065z M46.388,41.966
				c0-0.122-0.008-0.257-0.024-0.407c-0.018-0.148-0.053-0.29-0.107-0.422c-0.056-0.133-0.144-0.244-0.26-0.332
				c-0.118-0.089-0.282-0.133-0.493-0.133c-0.29,0-0.583,0.254-0.879,0.761c-0.295,0.507-0.58,1.155-0.854,1.944
				c-0.271,0.787-0.528,1.656-0.77,2.604c-0.239,0.949-0.459,1.869-0.659,2.766c0.166,0.017,0.334,0.029,0.501,0.043
				c0.167,0.012,0.34,0.025,0.519,0.043c0.334-0.561,0.684-1.166,1.046-1.817c0.362-0.654,0.688-1.298,0.979-1.927
				c0.29-0.633,0.531-1.221,0.72-1.771C46.295,42.768,46.388,42.317,46.388,41.966"/>
		</g>
	</g>
	<g>
		<g>
			<defs>
				<rect id="SVGID_5_" x="0" width="226.77" height="85.04"/>
			</defs>
			<clipPath id="SVGID_6_">
				<use xlink:href="#SVGID_5_"  overflow="visible"/>
			</clipPath>
			<path clip-path="url(#SVGID_6_)" fill="#FFFFFF" d="M67.93,62.667c-0.255,0.36-0.597,0.783-1.023,1.266
				c-0.428,0.482-0.908,0.943-1.441,1.381s-1.104,0.811-1.716,1.111c-0.611,0.305-1.223,0.455-1.833,0.455
				c-0.737,0-1.354-0.232-1.846-0.699c-0.492-0.469-0.919-1.146-1.276-2.037c-0.271,0.309-0.6,0.623-0.992,0.939
				c-0.391,0.317-0.818,0.606-1.284,0.864c-0.465,0.259-0.947,0.47-1.451,0.636s-1.009,0.248-1.513,0.248
				c-0.532,0-1.053-0.109-1.558-0.328c-0.506-0.219-0.953-0.531-1.342-0.939c-0.39-0.41-0.699-0.908-0.934-1.496
				s-0.35-1.252-0.35-1.992c0-0.83,0.115-1.684,0.352-2.557c0.234-0.875,0.598-1.822,1.09-2.84c0.49-1.02,1.02-1.898,1.584-2.641
				c0.563-0.742,1.183-1.39,1.853-1.939c0.671-0.557,1.378-0.996,2.12-1.322c0.742-0.324,1.5-0.488,2.271-0.488
				c0.258,0,0.458,0.049,0.604,0.15c0.145,0.102,0.265,0.217,0.36,0.346c0.095,0.129,0.187,0.256,0.275,0.379
				s0.201,0.213,0.334,0.271c0.135,0.058,0.271,0.092,0.411,0.108c0.139,0.019,0.282,0.025,0.428,0.025
				c0.122,0,0.249-0.004,0.376-0.008c0.129-0.008,0.257-0.012,0.378-0.012c0.168,0,0.324,0.02,0.47,0.053
				c0.146,0.033,0.273,0.105,0.386,0.217c0.111,0.113,0.197,0.271,0.26,0.473c0.062,0.203,0.091,0.479,0.091,0.824
				c0,0.533-0.055,1.121-0.166,1.77s-0.238,1.312-0.382,1.988c-0.144,0.68-0.307,1.453-0.49,2.322
				c-0.183,0.869-0.274,1.602-0.274,2.197c0,0.51,0.047,0.904,0.141,1.193c0.096,0.287,0.297,0.432,0.608,0.432
				c0.232,0,0.478-0.061,0.732-0.174c0.256-0.115,0.514-0.268,0.774-0.453c0.261-0.188,0.521-0.4,0.782-0.639
				c0.262-0.237,0.51-0.48,0.742-0.732c0.544-0.598,1.095-1.268,1.648-2.018L67.93,62.667z M53.636,61.364
				c0,0.287,0.021,0.564,0.059,0.834c0.039,0.271,0.108,0.51,0.209,0.721c0.101,0.213,0.233,0.388,0.4,0.519
				c0.166,0.131,0.378,0.196,0.635,0.196c0.41,0,0.782-0.18,1.117-0.536c0.333-0.356,0.623-0.787,0.868-1.291
				c0.244-0.502,0.441-1.022,0.593-1.562c0.15-0.537,0.247-0.981,0.291-1.344l1.243-5.416c-0.455,0-0.899,0.113-1.333,0.34
				c-0.433,0.227-0.841,0.531-1.225,0.916c-0.384,0.387-0.735,0.826-1.059,1.322s-0.639,1.105-0.949,1.832
				c-0.312,0.729-0.53,1.367-0.657,1.916C53.701,60.362,53.636,60.877,53.636,61.364"/>
		</g>
	</g>
	<g>
		<g>
			<defs>
				<rect id="SVGID_7_" x="0" width="226.77" height="85.04"/>
			</defs>
			<clipPath id="SVGID_8_">
				<use xlink:href="#SVGID_7_"  overflow="visible"/>
			</clipPath>
			<path clip-path="url(#SVGID_8_)" fill="#FFFFFF" d="M66.598,63.315c0-0.488,0.028-1.059,0.083-1.707
				c0.057-0.648,0.132-1.336,0.227-2.059s0.205-1.457,0.333-2.207s0.292-1.551,0.491-2.398c0.199-0.852,0.372-1.559,0.517-2.125
				c0.145-0.564,0.289-1.033,0.434-1.398c0.09-0.244,0.178-0.438,0.268-0.582c0.089-0.146,0.19-0.26,0.309-0.344
				c0.116-0.082,0.261-0.139,0.434-0.166c0.172-0.027,0.387-0.041,0.642-0.041c0.289,0,0.514,0.014,0.675,0.041
				s0.28,0.096,0.358,0.199c0.077,0.105,0.125,0.26,0.142,0.459s0.025,0.473,0.025,0.816c0,0.41-0.028,0.992-0.084,1.748
				c-0.057,0.756-0.072,1.418-0.051,1.982h0.185c0.222-0.443,0.5-1.027,0.833-1.75c0.333-0.722,0.683-1.32,1.049-1.8
				c0.367-0.478,0.784-0.881,1.25-1.209c0.467-0.325,1.005-0.489,1.616-0.489c0.211,0,0.417,0.034,0.616,0.106
				c0.2,0.071,0.375,0.176,0.524,0.31c0.149,0.135,0.271,0.297,0.358,0.491c0.089,0.192,0.133,0.414,0.133,0.658
				c0,0.188-0.028,0.453-0.083,0.791c-0.056,0.338-0.146,0.78-0.268,1.323c-0.121,0.545-0.211,0.992-0.267,1.343
				s-0.084,0.642-0.084,0.875c0,0.399,0.039,0.731,0.117,1c0.078,0.267,0.18,0.479,0.309,0.642c0.128,0.159,0.271,0.274,0.434,0.342
				c0.161,0.065,0.331,0.102,0.509,0.102c0.499,0,1.017-0.111,1.549-0.334c0.533-0.223,1.022-0.473,1.467-0.75
				c0.521-0.322,1.032-0.688,1.532-1.1l-0.25,3.897c-0.289,0.188-0.615,0.399-0.982,0.634c-0.365,0.231-0.758,0.45-1.174,0.657
				c-0.417,0.205-0.851,0.377-1.301,0.517C79.02,61.93,78.562,62,78.094,62c-0.833,0-1.505-0.172-2.016-0.51
				c-0.512-0.34-0.916-0.781-1.217-1.334c-0.3-0.549-0.521-1.166-0.666-1.85c-0.146-0.684-0.261-1.373-0.351-2.074H73.58
				l-2.982,8.314c-0.155,0.434-0.303,0.791-0.44,1.074c-0.141,0.282-0.28,0.514-0.426,0.69c-0.145,0.177-0.301,0.304-0.467,0.375
				c-0.167,0.071-0.35,0.106-0.55,0.106c-0.455,0-0.822-0.098-1.1-0.291c-0.277-0.194-0.491-0.455-0.643-0.782
				c-0.148-0.328-0.25-0.699-0.3-1.117C66.625,64.19,66.598,63.758,66.598,63.315"/>
		</g>
	</g>
	<g>
		<g>
			<defs>
				<rect id="SVGID_9_" x="0" width="226.77" height="85.04"/>
			</defs>
			<clipPath id="SVGID_10_">
				<use xlink:href="#SVGID_9_"  overflow="visible"/>
			</clipPath>
			<path clip-path="url(#SVGID_10_)" fill="#FFFFFF" d="M94.807,63.065c-1.066,0.623-2.019,1.166-2.854,1.633
				c-0.834,0.469-1.576,0.855-2.228,1.166c-0.65,0.312-1.229,0.547-1.734,0.701c-0.507,0.154-0.966,0.232-1.376,0.232
				c-0.841,0-1.58-0.256-2.221-0.769c-0.643-0.51-1.179-1.245-1.607-2.207c-0.433-0.961-0.754-2.122-0.97-3.489
				c-0.217-1.367-0.323-2.904-0.323-4.615c0-0.666,0.027-1.377,0.082-2.133c0.056-0.756,0.132-1.506,0.23-2.25
				c-0.336-0.049-0.596-0.097-0.779-0.14c-0.186-0.043-0.381-0.088-0.588-0.131s-0.471-0.088-0.787-0.138
				c-0.318-0.049-0.779-0.11-1.384-0.186c-0.269-0.037-0.476-0.107-0.621-0.215c-0.145-0.104-0.251-0.229-0.317-0.369
				c-0.068-0.143-0.107-0.289-0.118-0.445c-0.011-0.153-0.017-0.287-0.017-0.397c0-0.176,0.108-0.31,0.326-0.401
				c0.219-0.093,0.497-0.16,0.837-0.205c0.343-0.047,0.716-0.074,1.122-0.078c0.407-0.006,0.801-0.004,1.173,0.008
				c0.374,0.012,0.71,0.02,1.006,0.025s0.499-0.004,0.61-0.025c0.3-1.494,0.68-2.943,1.14-4.344
				c0.461-1.401,0.976-2.648,1.548-3.738c0.57-1.091,1.193-1.966,1.87-2.626c0.676-0.659,1.386-0.988,2.129-0.988
				c0.479,0,0.915,0.133,1.309,0.4c0.396,0.266,0.73,0.62,1.01,1.065c0.277,0.444,0.491,0.962,0.643,1.556
				c0.149,0.594,0.225,1.212,0.225,1.856c0,0.532-0.077,1.095-0.231,1.687c-0.156,0.594-0.367,1.197-0.635,1.811
				c-0.267,0.614-0.58,1.234-0.941,1.867c-0.361,0.629-0.742,1.254-1.143,1.873c0.101-0.037,0.269-0.043,0.502-0.021
				c0.232,0.022,0.502,0.038,0.809,0.047c0.305,0.01,0.636,0.02,0.991,0.024c0.354,0.013,0.699,0.021,1.032,0.03
				c0.333,0.011,0.645,0.023,0.934,0.033c0.289,0.013,0.527,0.021,0.717,0.035c0.223,0.012,0.383,0.135,0.483,0.367
				c0.1,0.236,0.148,0.533,0.148,0.893c0,0.414-0.11,0.752-0.334,1.015c-0.222,0.26-0.467,0.392-0.732,0.392h-6.405
				c-0.323,0.444-0.65,0.881-0.979,1.309s-0.634,0.814-0.912,1.158c-0.044,0.688-0.083,1.367-0.116,2.033
				c-0.012,0.287-0.022,0.586-0.033,0.891c-0.011,0.307-0.021,0.607-0.033,0.908c-0.011,0.299-0.02,0.588-0.024,0.867
				c-0.006,0.274-0.01,0.53-0.01,0.766c0,0.6,0.058,1.104,0.168,1.516c0.111,0.412,0.272,0.748,0.485,1.01
				c0.211,0.262,0.471,0.449,0.777,0.566c0.307,0.115,0.648,0.174,1.028,0.174c0.233,0,0.524-0.055,0.876-0.166
				c0.351-0.109,0.733-0.264,1.149-0.459c0.418-0.191,0.856-0.424,1.317-0.689c0.462-0.268,0.917-0.561,1.367-0.875
				c0.449-0.315,0.882-0.649,1.293-1c0.41-0.352,0.783-0.707,1.117-1.073V63.065L94.807,63.065z M89.475,41.966
				c0-0.122-0.008-0.257-0.023-0.407c-0.019-0.148-0.054-0.29-0.108-0.422c-0.056-0.133-0.143-0.244-0.26-0.332
				c-0.118-0.089-0.282-0.133-0.493-0.133c-0.29,0-0.583,0.254-0.879,0.761c-0.295,0.507-0.58,1.155-0.854,1.944
				c-0.271,0.787-0.528,1.656-0.77,2.604c-0.239,0.949-0.459,1.869-0.659,2.766c0.166,0.017,0.334,0.029,0.501,0.043
				c0.167,0.012,0.341,0.025,0.52,0.043c0.334-0.561,0.683-1.166,1.045-1.817c0.362-0.654,0.688-1.298,0.979-1.927
				c0.29-0.633,0.531-1.221,0.72-1.771C89.382,42.768,89.475,42.317,89.475,41.966"/>
		</g>
	</g>
	<g>
		<g>
			<defs>
				<rect id="SVGID_11_" x="0" width="226.77" height="85.04"/>
			</defs>
			<clipPath id="SVGID_12_">
				<use xlink:href="#SVGID_11_"  overflow="visible"/>
			</clipPath>
			<path clip-path="url(#SVGID_12_)" fill="#FFFFFF" d="M106.037,51.27c0,0.299-0.011,0.709-0.031,1.227
				c-0.02,0.519-0.086,1.08-0.199,1.689s-0.252,1.352-0.412,2.217c-0.161,0.869-0.295,1.586-0.4,2.154
				c-0.106,0.564-0.197,1.062-0.276,1.488c-0.08,0.428-0.12,0.733-0.12,0.93c0,0.312,0.007,0.6,0.016,0.859
				c0.011,0.264,0.038,0.492,0.088,0.688c0.047,0.195,0.122,0.346,0.223,0.453c0.102,0.104,0.247,0.156,0.438,0.156
				c0.244,0,0.541-0.062,0.892-0.185c0.351-0.122,0.722-0.286,1.117-0.493c0.394-0.205,0.796-0.439,1.207-0.703
				c0.41-0.26,0.803-0.537,1.175-0.826c0.372-0.291,0.711-0.576,1.016-0.861c0.308-0.283,0.555-0.549,0.742-0.795
				c0,0.369,0.003,0.703,0.008,1.004c0.007,0.301,0.01,0.588,0.01,0.861c0,0.271,0.003,0.555,0.009,0.846
				c0.005,0.289,0.008,0.613,0.008,0.971c-0.244,0.24-0.547,0.498-0.908,0.771c-0.36,0.273-0.761,0.549-1.198,0.82
				c-0.438,0.274-0.905,0.537-1.399,0.791c-0.494,0.25-0.991,0.475-1.491,0.664c-0.5,0.19-0.987,0.348-1.465,0.461
				c-0.477,0.115-0.919,0.172-1.326,0.172c-0.415,0-0.771-0.08-1.064-0.244s-0.549-0.395-0.763-0.689
				c-0.213-0.297-0.393-0.65-0.54-1.062c-0.146-0.408-0.273-0.865-0.385-1.371c-0.399,0.518-0.823,0.988-1.269,1.424
				c-0.444,0.434-0.897,0.809-1.358,1.127c-0.462,0.316-0.929,0.564-1.402,0.748c-0.472,0.18-0.932,0.271-1.376,0.271
				c-0.364,0-0.708-0.062-1.027-0.186c-0.321-0.121-0.605-0.326-0.854-0.615c-0.25-0.289-0.446-0.67-0.59-1.141
				c-0.144-0.473-0.215-1.059-0.215-1.758c0.011-1.453,0.122-2.57,0.333-3.348c0.332-1.134,0.643-2.824,0.93-5.068
				c0.031-0.164,0.073-0.389,0.125-0.674c0.052-0.283,0.131-0.592,0.236-0.926c0.104-0.334,0.235-0.673,0.392-1.017
				c0.155-0.345,0.339-0.656,0.55-0.935c0.212-0.276,0.458-0.506,0.741-0.684s0.604-0.271,0.958-0.283
				c0.589,0.027,1.012,0.123,1.267,0.285c0.257,0.162,0.385,0.363,0.385,0.604c-0.102,0.75-0.213,1.471-0.338,2.16
				c-0.123,0.69-0.25,1.389-0.375,2.088c-0.126,0.703-0.268,1.481-0.421,2.342c-0.153,0.857-0.277,1.547-0.371,2.064
				c-0.095,0.52-0.168,0.938-0.227,1.256c-0.057,0.319-0.086,0.483-0.086,0.496c0,0.207,0.021,0.405,0.059,0.594
				c0.039,0.189,0.098,0.359,0.177,0.508c0.078,0.148,0.178,0.27,0.3,0.359c0.124,0.094,0.269,0.141,0.436,0.141
				c0.244,0,0.496-0.066,0.752-0.195c0.258-0.131,0.497-0.318,0.72-0.568c0.233-0.227,0.439-0.52,0.62-0.883
				c0.177-0.35,0.312-0.758,0.399-1.223l1.837-9.078c0.056-0.266,0.271-0.49,0.651-0.674c0.38-0.186,0.812-0.275,1.295-0.275
				c0.548,0,0.982,0.102,1.303,0.301C105.876,50.704,106.037,50.958,106.037,51.27"/>
		</g>
	</g>
	<g>
		<g>
			<defs>
				<rect id="SVGID_13_" x="0" width="226.77" height="85.04"/>
			</defs>
			<clipPath id="SVGID_14_">
				<use xlink:href="#SVGID_13_"  overflow="visible"/>
			</clipPath>
			<path clip-path="url(#SVGID_14_)" fill="#FFFFFF" d="M116.66,63.6c1.116,0,2.137-0.107,3.059-0.322
				c0.92-0.217,1.756-0.506,2.504-0.873c0.75-0.365,1.43-0.793,2.033-1.281c0.604-0.49,1.152-1.014,1.643-1.572l0.183,3.693
				c-0.354,0.463-0.785,0.908-1.291,1.342c-0.504,0.435-1.058,0.812-1.656,1.138c-0.6,0.325-1.23,0.588-1.893,0.782
				c-0.662,0.195-1.312,0.293-1.957,0.293c-0.078,0-0.175-0.014-0.291-0.036c-0.115-0.022-0.316-0.063-0.604-0.125
				c-0.289-0.062-0.701-0.142-1.236-0.242c-0.536-0.103-1.266-0.226-2.184-0.367v0.3c0,2.028-0.176,3.873-0.523,5.53
				c-0.35,1.654-0.814,3.067-1.397,4.238c-0.585,1.172-1.254,2.073-2.009,2.711c-0.754,0.637-1.539,0.953-2.352,0.953
				c-0.634,0-1.161-0.156-1.583-0.47c-0.423-0.312-0.759-0.735-1.009-1.266c-0.25-0.531-0.428-1.152-0.532-1.861
				c-0.105-0.711-0.157-1.463-0.157-2.258c0-0.461,0.071-0.98,0.216-1.561s0.339-1.188,0.583-1.822
				c0.245-0.637,0.52-1.283,0.824-1.941c0.306-0.658,0.619-1.297,0.941-1.914c0.756-1.438,1.616-2.926,2.582-4.455
				c0.124-0.84,0.25-1.7,0.379-2.582c0.132-0.881,0.295-1.746,0.493-2.596c0.2-0.85,0.508-1.738,0.923-2.672
				c0.415-0.932,0.86-1.68,1.333-2.24c0.475-0.562,1.04-1.01,1.7-1.34c0.662-0.332,1.459-0.496,2.393-0.496
				c0.679,0,1.31,0.092,1.896,0.275c0.588,0.186,1.104,0.482,1.549,0.896s0.793,0.947,1.047,1.604
				c0.256,0.652,0.385,1.455,0.385,2.406c0,1.012-0.11,1.801-0.334,2.371c-0.332,0.85-0.762,1.584-1.287,2.209
				c-0.526,0.625-1.153,1.207-1.881,1.75c-0.729,0.545-1.59,1.029-2.586,1.459L116.66,63.6z M108.586,74.106
				c0,0.088,0.02,0.23,0.059,0.43c0.038,0.199,0.104,0.398,0.191,0.598c0.089,0.199,0.205,0.377,0.351,0.531
				c0.145,0.152,0.321,0.23,0.532,0.23c0.189,0,0.345-0.104,0.468-0.309c0.121-0.203,0.223-0.478,0.299-0.818
				c0.078-0.344,0.135-0.729,0.167-1.16c0.033-0.43,0.061-0.873,0.078-1.324c0.02-0.453,0.031-0.896,0.036-1.326
				c0.008-0.432,0.021-0.815,0.046-1.16c0.033-0.596,0.062-1.104,0.078-1.516c0.02-0.414,0.032-0.76,0.045-1.035
				c0.011-0.311,0.021-0.58,0.033-0.809c-0.211,0.365-0.417,0.791-0.616,1.271c-0.2,0.481-0.39,0.983-0.565,1.506
				c-0.179,0.521-0.339,1.041-0.484,1.562c-0.144,0.521-0.269,1.007-0.374,1.457c-0.104,0.447-0.188,0.836-0.25,1.162
				C108.617,73.725,108.586,73.959,108.586,74.106 M114.547,61.969c0.666-0.322,1.246-0.684,1.734-1.082
				c0.467-0.396,0.879-0.82,1.231-1.273c0.146-0.021,0.488-0.514,1.035-1.482c0.365-0.827,0.6-1.461,0.699-1.901
				c0.057-0.235,0.092-0.515,0.108-0.83c0.017-0.317-0.018-0.616-0.102-0.896c-0.082-0.281-0.228-0.521-0.433-0.719
				c-0.204-0.199-0.489-0.3-0.854-0.3c-0.41,0-0.773,0.111-1.084,0.332c-0.311,0.22-0.582,0.519-0.809,0.896
				c-0.228,0.375-0.416,0.822-0.566,1.338c-0.15,0.518-0.33,1.154-0.535,1.912c-0.205,0.76-0.328,1.457-0.369,2.098
				C114.569,60.698,114.547,61.334,114.547,61.969"/>
		</g>
	</g>
	<g>
		<g>
			<defs>
				<rect id="SVGID_15_" x="0" width="226.77" height="85.04"/>
			</defs>
			<clipPath id="SVGID_16_">
				<use xlink:href="#SVGID_15_"  overflow="visible"/>
			</clipPath>
			<path clip-path="url(#SVGID_16_)" fill="#FFFFFF" d="M160.983,54.415c-0.186,0.56-0.502,2.047-0.95,4.459
				c-0.23,1.213-0.347,2.265-0.347,3.154c0,0.771,0.158,1.377,0.478,1.814c0.315,0.438,0.84,0.656,1.573,0.656
				c0.275,0,0.609-0.082,0.998-0.248c0.392-0.164,0.834-0.422,1.334-0.773s1.06-0.809,1.677-1.363
				c0.36-0.326,1.184-1.045,1.825-1.885c0.449-0.588,0.89-1.188,1.357-2.48c-0.025,0.07,0.254,2.613-0.232,2.98
				c-0.186,0.143-0.209,0.25-0.319,0.85c-0.086,0.457,0.387,1.033,0.676,1.797c-0.834,0.816-1.67,1.539-2.508,2.162
				c-0.838,0.617-1.656,1.142-2.449,1.562c-0.795,0.42-1.555,0.735-2.281,0.946c-0.729,0.215-1.396,0.318-2.01,0.318
				c-0.695,0-1.346-0.121-1.943-0.367c-0.597-0.246-1.112-0.604-1.553-1.074c-0.438-0.469-0.781-1.047-1.035-1.731
				c-0.256-0.685-0.383-1.465-0.383-2.344c0-0.33,0.033-0.746,0.101-1.248c0.063-0.502,0.161-1.072,0.291-1.714
				c0.127-0.639,0.286-1.422,0.479-2.354c0.193-0.928,0.402-1.816,0.623-2.66c-1.498,0.166-2.932,0.316-4.305,0.459
				c-1.373,0.14-2.74,0.273-4.104,0.402c-0.317,0.957-0.631,1.922-0.938,2.896c-0.31,0.974-0.605,1.857-0.89,2.662
				c-0.28,0.799-0.543,1.529-0.78,2.193c-0.24,0.666-0.443,1.205-0.609,1.621c-0.766,1.453-1.312,2.312-1.633,2.576
				c-0.521,0.443-0.988,0.666-1.4,0.666c-0.266,0-0.524-0.041-0.781-0.121c-0.256-0.082-0.481-0.197-0.684-0.35
				c-0.202-0.151-0.357-0.332-0.475-0.545s-0.177-0.449-0.177-0.713c0-0.173,0.021-0.343,0.066-0.504
				c0.4-1.789,0.928-3.505,1.582-5.144c0.645-1.716,1.199-3.345,1.666-4.89c-0.609,0-1.195-0.049-1.758-0.147
				c-0.562-0.099-1.08-0.271-1.56-0.517c-0.477-0.244-0.899-0.582-1.272-1.012c-0.371-0.432-0.683-0.979-0.924-1.645
				c-0.045-0.207-0.082-0.395-0.109-0.559c-0.027-0.162-0.041-0.326-0.041-0.488c0-0.355,0.172-0.533,0.516-0.533
				c0.213,0,0.445,0.098,0.699,0.293c0.258,0.193,0.584,0.508,0.984,0.939c0.521-0.021,1.043-0.039,1.563-0.049
				c0.523-0.013,1.084-0.019,1.685-0.019h1.6c0.4-1.033,0.783-2.027,1.15-2.981c0.455-1.244,0.789-2.188,1-2.832
				c0.188-0.591,0.338-1.179,0.449-1.767c0.108-0.591,0.165-1.149,0.165-1.685c0-0.433-0.036-0.833-0.114-1.2
				c-0.076-0.366-0.203-0.677-0.379-0.933c-0.179-0.255-0.404-0.455-0.681-0.6c-0.272-0.144-0.614-0.216-1.022-0.216
				c-0.33,0-0.713,0.055-1.148,0.166c-0.436,0.111-0.918,0.292-1.444,0.542c-0.527,0.25-1.105,0.577-1.728,0.983
				c-0.625,0.405-1.299,0.908-2.025,1.507c-0.254,0.211-0.485,0.361-0.7,0.451c-0.215,0.088-0.41,0.133-0.586,0.133
				c-0.091,0-0.156-0.147-0.199-0.442c-0.043-0.293-0.064-0.658-0.064-1.09c0-0.578,0.136-1.127,0.406-1.649
				c0.271-0.522,0.637-1.003,1.092-1.442c0.455-0.438,0.98-0.838,1.574-1.199c0.596-0.361,1.205-0.667,1.834-0.917
				c0.627-0.25,1.252-0.441,1.873-0.574c0.623-0.134,1.195-0.2,1.717-0.2c0.777,0,1.521,0.105,2.232,0.316
				c0.711,0.211,1.336,0.55,1.875,1.017c0.539,0.466,0.965,1.071,1.281,1.816c0.315,0.744,0.477,1.649,0.477,2.715
				c0,0.5-0.062,1.11-0.18,1.833c-0.117,0.725-0.281,1.516-0.482,2.375c-0.205,0.859-0.445,1.777-0.725,2.75
				c-0.275,0.971-0.574,1.963-0.892,2.975c1.14-0.078,2.42-0.156,3.849-0.234c1.426-0.075,2.854-0.153,4.295-0.231
				c0.606-1.834,1.244-3.748,1.905-5.739c0.662-1.994,1.396-3.944,2.195-5.855c0.269-0.633,0.617-1.139,1.053-1.516
				c0.438-0.378,0.949-0.567,1.543-0.567c0.244,0,0.479,0.033,0.705,0.1c0.228,0.067,0.427,0.169,0.601,0.308
				c0.174,0.139,0.309,0.317,0.401,0.533c0.097,0.217,0.144,0.47,0.144,0.759c0,0.265-0.019,0.573-0.051,0.924
				c-0.033,0.352-0.121,0.729-0.269,1.132c-0.256,0.69-0.528,1.424-0.815,2.208c-0.289,0.783-0.58,1.588-0.875,2.416
				c-0.297,0.828-0.591,1.674-0.886,2.541c-0.295,0.865-0.573,1.729-0.842,2.582c0.547-0.094,1.082-0.16,1.605-0.197
				c0.522-0.039,0.918-0.066,1.182-0.088c0.123-0.01,0.236-0.018,0.342-0.023c0.104-0.008,0.201-0.014,0.295-0.016
				c0.349,0,0.625,0.035,0.841,0.104c0.213,0.064,0.381,0.162,0.5,0.287c0.122,0.123,0.204,0.269,0.252,0.438
				c0.047,0.168,0.067,0.357,0.067,0.57c0,0.227-0.053,0.414-0.156,0.562c-0.104,0.15-0.233,0.271-0.393,0.363
				c-0.156,0.09-0.322,0.154-0.498,0.191c-0.174,0.039-0.338,0.062-0.488,0.071c-0.309,0.031-0.526,0.056-0.66,0.068
				c-0.133,0.012-0.229,0.022-0.29,0.028c-0.062,0.006-0.101,0.011-0.113,0.013c-0.019,0-0.062,0.004-0.125,0.012
				c-0.066,0.009-0.183,0.021-0.349,0.035c-0.166,0.019-0.418,0.043-0.762,0.078c-0.393,0.071-0.779,0.137-1.158,0.19
				C161.731,54.303,161.356,54.356,160.983,54.415"/>
		</g>
	</g>
	<g>
		<g>
			<defs>
				<rect id="SVGID_17_" x="0" width="226.77" height="85.04"/>
			</defs>
			<clipPath id="SVGID_18_">
				<use xlink:href="#SVGID_17_"  overflow="visible"/>
			</clipPath>
			<path clip-path="url(#SVGID_18_)" fill="#FFFFFF" d="M186.528,62.667c-0.256,0.36-0.6,0.783-1.024,1.266
				c-0.428,0.482-0.908,0.943-1.441,1.381c-0.53,0.438-1.104,0.811-1.717,1.111c-0.609,0.305-1.221,0.455-1.832,0.455
				c-0.736,0-1.354-0.232-1.846-0.699c-0.492-0.469-0.918-1.146-1.277-2.037c-0.27,0.309-0.598,0.623-0.99,0.939
				c-0.393,0.317-0.817,0.606-1.282,0.864c-0.468,0.259-0.949,0.47-1.453,0.636s-1.008,0.248-1.513,0.248
				c-0.532,0-1.055-0.109-1.559-0.328c-0.506-0.219-0.953-0.531-1.342-0.939c-0.39-0.41-0.699-0.908-0.933-1.496
				s-0.352-1.252-0.352-1.992c0-0.83,0.115-1.684,0.354-2.557c0.232-0.875,0.597-1.822,1.089-2.84
				c0.489-1.02,1.02-1.898,1.584-2.641c0.562-0.742,1.182-1.39,1.852-1.939c0.672-0.557,1.379-0.996,2.121-1.322
				c0.742-0.324,1.5-0.488,2.271-0.488c0.259,0,0.459,0.049,0.604,0.15s0.266,0.217,0.361,0.346
				c0.094,0.129,0.186,0.256,0.272,0.379c0.09,0.123,0.201,0.213,0.336,0.271s0.271,0.092,0.41,0.108
				c0.141,0.019,0.281,0.025,0.428,0.025c0.123,0,0.25-0.004,0.377-0.008c0.129-0.008,0.257-0.012,0.379-0.012
				c0.169,0,0.322,0.02,0.47,0.053c0.146,0.033,0.272,0.105,0.385,0.217c0.111,0.113,0.197,0.271,0.26,0.473
				c0.062,0.203,0.092,0.479,0.092,0.824c0,0.533-0.057,1.121-0.166,1.77c-0.11,0.646-0.237,1.312-0.383,1.988
				c-0.143,0.68-0.307,1.453-0.487,2.322c-0.187,0.869-0.275,1.602-0.275,2.197c0,0.51,0.047,0.904,0.141,1.193
				c0.097,0.287,0.299,0.432,0.607,0.432c0.233,0,0.479-0.061,0.733-0.174c0.257-0.115,0.515-0.268,0.773-0.453
				c0.262-0.188,0.521-0.4,0.783-0.639c0.26-0.236,0.508-0.48,0.742-0.732c0.543-0.598,1.094-1.268,1.646-2.018L186.528,62.667z
				 M172.233,61.364c0,0.287,0.021,0.564,0.06,0.834c0.039,0.271,0.106,0.51,0.209,0.721c0.1,0.213,0.233,0.388,0.399,0.519
				s0.379,0.196,0.636,0.196c0.409,0,0.782-0.18,1.116-0.536s0.623-0.787,0.867-1.291c0.244-0.502,0.441-1.022,0.594-1.562
				c0.148-0.537,0.248-0.981,0.291-1.344l1.242-5.416c-0.453,0-0.897,0.113-1.332,0.34c-0.434,0.227-0.842,0.531-1.227,0.916
				c-0.383,0.387-0.734,0.826-1.058,1.322s-0.641,1.105-0.948,1.832c-0.312,0.729-0.531,1.367-0.658,1.916
				C172.297,60.362,172.233,60.877,172.233,61.364"/>
		</g>
	</g>
	<g>
		<g>
			<defs>
				<rect id="SVGID_19_" x="0" width="226.77" height="85.04"/>
			</defs>
			<clipPath id="SVGID_20_">
				<use xlink:href="#SVGID_19_"  overflow="visible"/>
			</clipPath>
			<path clip-path="url(#SVGID_20_)" fill="#FFFFFF" d="M190.385,66.797c-1.029,0-1.934-0.189-2.709-0.566
				c-0.777-0.377-1.43-0.883-1.953-1.518c-0.527-0.633-0.924-1.365-1.19-2.197c-0.271-0.834-0.402-1.699-0.402-2.6
				c0-0.646,0.111-1.416,0.334-2.316c0.225-0.898,0.467-1.686,0.729-2.355c0.265-0.674,0.586-1.313,0.974-1.926
				c0.385-0.609,0.832-1.146,1.34-1.607s1.074-0.826,1.699-1.102c0.627-0.271,1.312-0.406,2.061-0.406
				c0.674,0,1.299,0.098,1.871,0.293c0.572,0.191,1.062,0.463,1.473,0.808c0.406,0.344,0.726,0.752,0.957,1.225
				c0.229,0.474,0.345,0.979,0.345,1.525c0,0.377-0.054,0.75-0.162,1.114c-0.107,0.367-0.316,0.797-0.631,1.293
				c-0.312,0.494-0.615,0.83-0.91,1.008c-0.295,0.177-0.627,0.267-1,0.267c-0.562,0-0.926-0.139-1.09-0.416
				c-0.271-0.435-0.354-0.815-0.254-1.149c0.032-0.178,0.133-0.588,0.299-1.232c0.021-0.088,0.026-0.289,0.018-0.6
				c0-0.269-0.027-0.488-0.084-0.666s-0.178-0.269-0.363-0.269c-0.452,0-0.842,0.109-1.161,0.324c-0.32,0.217-0.595,0.5-0.82,0.853
				c-0.228,0.35-0.451,0.844-0.672,1.481c-0.224,0.638-0.379,1.174-0.474,1.606c-0.094,0.434-0.151,0.849-0.176,1.242
				c-0.021,0.394-0.031,0.725-0.031,0.988c0,0.4,0.035,0.816,0.105,1.25c0.072,0.436,0.217,0.83,0.434,1.191
				c0.215,0.361,0.494,0.66,0.838,0.9c0.343,0.237,0.783,0.356,1.324,0.356c0.533,0,1.123-0.164,1.769-0.492
				c0.645-0.328,1.291-0.739,1.938-1.239c0.65-0.5,1.271-1.052,1.857-1.65c0.587-0.598,1.096-1.166,1.518-1.699l1.148,1.936
				c-0.832,1.188-1.732,2.246-2.699,3.182c-0.41,0.398-0.855,0.789-1.34,1.166s-0.988,0.714-1.519,1.009
				c-0.526,0.295-1.075,0.532-1.647,0.717C191.549,66.708,190.971,66.797,190.385,66.797"/>
		</g>
	</g>
	<g>
		<g>
			<defs>
				<rect id="SVGID_21_" x="0" width="226.77" height="85.04"/>
			</defs>
			<clipPath id="SVGID_22_">
				<use xlink:href="#SVGID_21_"  overflow="visible"/>
			</clipPath>
			<path clip-path="url(#SVGID_22_)" fill="#FFFFFF" d="M203.106,57.612c0.4-0.52,0.84-1.09,1.316-1.713
				c0.479-0.621,0.945-1.213,1.406-1.779c0.461-0.563,0.926-1.152,1.393-1.764s0.812-0.996,1.033-1.154
				c0.344-0.248,0.768-0.459,1.268-0.637c0.498-0.174,1.056-0.262,1.666-0.262c0.312,0,0.607,0.072,0.892,0.221
				c0.282,0.146,0.528,0.355,0.741,0.627c0.212,0.271,0.378,0.6,0.498,0.982c0.123,0.387,0.187,0.813,0.187,1.289
				c0,0.465-0.154,1.016-0.459,1.652c-0.307,0.639-0.625,1.196-0.959,1.67c-0.332,0.477-0.693,0.95-1.082,1.426
				c-0.389,0.477-0.75,0.951-1.084,1.436c-0.332,0.479-0.609,0.957-0.832,1.434c-0.223,0.476-0.334,0.949-0.334,1.424
				c0,0.406,0.098,0.699,0.293,0.873c0.193,0.177,0.496,0.265,0.906,0.265c0.223,0,0.465-0.076,0.727-0.229
				c0.262-0.15,0.529-0.353,0.81-0.601c0.274-0.25,0.559-0.526,0.84-0.832c0.283-0.308,0.557-0.617,0.815-0.935
				c0.263-0.315,0.511-0.616,0.742-0.905c0.232-0.289,0.443-0.535,0.633-0.738l1,4.156c-0.346,0.465-0.78,0.897-1.309,1.299
				c-0.527,0.397-1.101,0.746-1.717,1.043c-0.615,0.295-1.256,0.524-1.916,0.692c-0.66,0.164-1.297,0.246-1.906,0.246
				c-0.801,0-1.453-0.09-1.959-0.271c-0.504-0.18-0.9-0.422-1.189-0.721c-0.289-0.302-0.485-0.64-0.594-1.019
				c-0.104-0.377-0.156-0.77-0.156-1.174c0-0.26,0.029-0.578,0.093-0.957c0.061-0.379,0.176-0.807,0.35-1.279
				c0.172-0.475,0.414-0.998,0.725-1.567c0.312-0.569,0.718-1.185,1.218-1.84c0.2-0.203,0.383-0.388,0.549-0.552
				c0.168-0.164,0.312-0.312,0.436-0.44c0.121-0.129,0.217-0.252,0.283-0.362c0.066-0.115,0.1-0.232,0.1-0.357
				c0-0.236-0.041-0.43-0.125-0.574c-0.082-0.146-0.202-0.223-0.356-0.223c-0.188,0-0.435,0.125-0.732,0.373
				c-0.312,0.262-0.641,0.694-0.981,1.307l-4.898,8.559c-0.268,0.404-0.533,0.689-0.801,0.854c-0.266,0.163-0.576,0.247-0.934,0.247
				c-0.478,0-0.854-0.098-1.134-0.291c-0.276-0.19-0.487-0.452-0.633-0.78c-0.145-0.33-0.235-0.711-0.274-1.146
				s-0.06-0.896-0.06-1.388c0-0.646,0.021-1.495,0.066-2.559s0.11-2.228,0.201-3.496c0.088-1.271,0.207-2.601,0.356-3.988
				c0.148-1.387,0.33-2.737,0.541-4.047c0.082-0.448,0.185-1,0.303-1.653c0.121-0.652,0.283-1.349,0.488-2.084
				c0.205-0.738,0.42-1.513,0.646-2.324c0.227-0.812,0.502-1.599,0.83-2.358c0.327-0.758,0.698-1.481,1.108-2.169
				c0.41-0.686,0.871-1.287,1.385-1.802c0.513-0.515,1.072-0.922,1.685-1.222c0.61-0.298,1.279-0.448,2.002-0.448
				c0.565,0,1.033,0.091,1.397,0.273c0.367,0.184,0.658,0.438,0.875,0.764c0.218,0.326,0.369,0.715,0.459,1.169
				c0.089,0.454,0.134,0.946,0.134,1.476c0,0.951-0.119,1.974-0.357,3.07c-0.238,1.095-0.541,2.195-0.908,3.294
				c-0.365,1.104-0.768,2.174-1.199,3.215c-0.434,1.037-0.85,1.977-1.25,2.814c-0.399,0.838-0.752,1.547-1.059,2.121
				c-0.307,0.575-0.508,0.954-0.607,1.133l-1.981,2.985L203.106,57.612z M206.365,38.773c-0.359,0-0.671,0.111-0.929,0.332
				c-0.262,0.222-0.506,0.537-0.735,0.947c-0.232,0.409-0.464,0.909-0.693,1.495c-0.23,0.587-0.492,1.241-0.785,1.961
				c-0.158,0.646-0.322,1.312-0.488,1.996c-0.166,0.688-0.301,1.363-0.403,2.035c-0.103,0.67-0.201,1.33-0.299,1.979
				c-0.101,0.647-0.189,1.258-0.275,1.823c-0.168,1.4-0.301,2.775-0.4,4.132c0.244-0.744,0.513-1.556,0.806-2.427
				c0.293-0.873,0.58-1.735,0.866-2.588c0.285-0.85,0.556-1.649,0.81-2.399c0.252-0.75,0.463-1.386,0.631-1.908
				c0.078-0.243,0.189-0.549,0.336-0.916c0.146-0.366,0.305-0.76,0.473-1.182c0.168-0.423,0.339-0.861,0.507-1.318
				c0.168-0.455,0.321-0.894,0.463-1.316c0.141-0.422,0.256-0.816,0.346-1.183c0.09-0.366,0.135-0.677,0.135-0.933
				C206.721,38.952,206.604,38.773,206.365,38.773"/>
		</g>
	</g>
	<g>
		<g>
			<defs>
				<rect id="SVGID_23_" x="0" width="226.77" height="85.04"/>
			</defs>
			<clipPath id="SVGID_24_">
				<use xlink:href="#SVGID_23_"  overflow="visible"/>
			</clipPath>
			<path clip-path="url(#SVGID_24_)" fill="#FFFFFF" d="M61.033,20.7h2.104v2.605c-0.552,0.235-1.173,0.352-1.863,0.352
				c-0.899,0-1.592-0.254-2.07-0.764c-0.481-0.509-0.723-1.23-0.723-2.162c0-0.58,0.119-1.095,0.358-1.545
				c0.238-0.449,0.579-0.796,1.021-1.041c0.444-0.244,0.954-0.367,1.529-0.367c0.623,0,1.184,0.115,1.676,0.344l-0.158,0.359
				c-0.495-0.229-1.01-0.344-1.539-0.344c-0.753,0-1.352,0.233-1.791,0.698c-0.441,0.465-0.662,1.092-0.662,1.881
				c0,0.859,0.209,1.505,0.629,1.939c0.419,0.434,1.035,0.65,1.847,0.65c0.526,0,0.975-0.074,1.34-0.222v-2.008h-1.697V20.7z"/>
		</g>
	</g>
	<g>
		<g>
			<defs>
				<rect id="SVGID_25_" x="0" width="226.77" height="85.04"/>
			</defs>
			<clipPath id="SVGID_26_">
				<use xlink:href="#SVGID_25_"  overflow="visible"/>
			</clipPath>
			<path clip-path="url(#SVGID_26_)" fill="#FFFFFF" d="M75.772,20.716c0,0.906-0.227,1.623-0.68,2.15
				c-0.453,0.528-1.078,0.791-1.875,0.791c-0.794,0-1.418-0.263-1.871-0.791c-0.453-0.527-0.68-1.246-0.68-2.158
				c0-0.909,0.229-1.624,0.686-2.146s1.081-0.784,1.873-0.784c0.797,0,1.42,0.263,1.871,0.788S75.772,19.807,75.772,20.716
				 M71.1,20.716c0,0.818,0.184,1.45,0.547,1.896c0.365,0.447,0.89,0.67,1.57,0.67c0.688,0,1.213-0.221,1.576-0.664
				c0.364-0.443,0.545-1.076,0.545-1.902c0-0.823-0.181-1.454-0.545-1.893c-0.363-0.439-0.886-0.658-1.568-0.658
				c-0.68,0-1.204,0.221-1.572,0.664C71.285,19.272,71.1,19.901,71.1,20.716"/>
		</g>
	</g>
	<g>
		<g>
			<defs>
				<rect id="SVGID_27_" x="0" width="226.77" height="85.04"/>
			</defs>
			<clipPath id="SVGID_28_">
				<use xlink:href="#SVGID_27_"  overflow="visible"/>
			</clipPath>
			<polygon clip-path="url(#SVGID_28_)" fill="#FFFFFF" points="84.973,23.579 84.572,23.579 84.572,18.243 82.716,18.243 
				82.716,17.868 86.829,17.868 86.829,18.243 84.973,18.243 			"/>
		</g>
	</g>
	<g>
		<g>
			<defs>
				<rect id="SVGID_29_" x="0" width="226.77" height="85.04"/>
			</defs>
			<clipPath id="SVGID_30_">
				<use xlink:href="#SVGID_29_"  overflow="visible"/>
			</clipPath>
			<polygon clip-path="url(#SVGID_30_)" fill="#FFFFFF" points="98.214,23.579 97.811,23.579 97.811,20.77 94.475,20.77 
				94.475,23.579 94.077,23.579 94.077,17.868 94.475,17.868 94.475,20.403 97.811,20.403 97.811,17.868 98.214,17.868 			"/>
		</g>
	</g>
	<g>
		<g>
			<defs>
				<rect id="SVGID_31_" x="0" width="226.77" height="85.04"/>
			</defs>
			<clipPath id="SVGID_32_">
				<use xlink:href="#SVGID_31_"  overflow="visible"/>
			</clipPath>
			<polygon clip-path="url(#SVGID_32_)" fill="#FFFFFF" points="109.351,23.579 106.23,23.579 106.23,17.868 109.351,17.868 
				109.351,18.235 106.629,18.235 106.629,20.395 109.2,20.395 109.2,20.763 106.629,20.763 106.629,23.212 109.351,23.212 			"/>
		</g>
	</g>
	<g>
		<g>
			<defs>
				<rect id="SVGID_33_" x="0" width="226.77" height="85.04"/>
			</defs>
			<clipPath id="SVGID_34_">
				<use xlink:href="#SVGID_33_"  overflow="visible"/>
			</clipPath>
			<path clip-path="url(#SVGID_34_)" fill="#FFFFFF" d="M121.198,23.579h-0.402l-3.383-5.07h-0.031
				c0.031,0.604,0.045,1.06,0.045,1.367v3.703h-0.381v-5.711h0.396l3.379,5.063h0.023c-0.023-0.469-0.035-0.914-0.035-1.336v-3.727
				h0.387v5.711H121.198z"/>
		</g>
	</g>
	<g>
		<g>
			<defs>
				<rect id="SVGID_35_" x="0" width="226.77" height="85.04"/>
			</defs>
			<clipPath id="SVGID_36_">
				<use xlink:href="#SVGID_35_"  overflow="visible"/>
			</clipPath>
			<path clip-path="url(#SVGID_36_)" fill="#FFFFFF" d="M129.213,17.868h1.565c0.705,0,1.226,0.12,1.556,0.36
				c0.332,0.24,0.496,0.601,0.496,1.086c0,0.33-0.103,0.606-0.304,0.826c-0.2,0.22-0.496,0.361-0.885,0.424v0.023
				c0.455,0.068,0.791,0.212,1.006,0.432s0.322,0.527,0.322,0.92c0,0.526-0.174,0.931-0.523,1.215
				c-0.35,0.283-0.844,0.425-1.483,0.425h-1.75V17.868L129.213,17.868z M129.612,20.411h1.259c0.537,0,0.928-0.089,1.17-0.267
				c0.244-0.178,0.364-0.458,0.364-0.838c0-0.38-0.137-0.656-0.411-0.828c-0.273-0.172-0.685-0.258-1.229-0.258h-1.152V20.411z
				 M129.612,20.763v2.465h1.345c1.059,0,1.586-0.43,1.586-1.289c0-0.784-0.558-1.176-1.672-1.176H129.612z"/>
		</g>
	</g>
	<g>
		<g>
			<defs>
				<rect id="SVGID_37_" x="0" width="226.77" height="85.04"/>
			</defs>
			<clipPath id="SVGID_38_">
				<use xlink:href="#SVGID_37_"  overflow="visible"/>
			</clipPath>
			<path clip-path="url(#SVGID_38_)" fill="#FFFFFF" d="M144.828,17.868v3.695c0,0.657-0.189,1.17-0.57,1.539
				c-0.381,0.37-0.91,0.555-1.59,0.555c-0.662,0-1.178-0.185-1.549-0.557c-0.371-0.371-0.558-0.888-0.558-1.552v-3.68h0.402v3.695
				c0,0.55,0.152,0.977,0.457,1.284c0.305,0.306,0.733,0.458,1.293,0.458c0.543,0,0.965-0.15,1.266-0.451
				c0.299-0.3,0.449-0.718,0.449-1.252v-3.734H144.828z"/>
		</g>
	</g>
	<g>
		<g>
			<defs>
				<rect id="SVGID_39_" x="0" width="226.77" height="85.04"/>
			</defs>
			<clipPath id="SVGID_40_">
				<use xlink:href="#SVGID_39_"  overflow="visible"/>
			</clipPath>
			<path clip-path="url(#SVGID_40_)" fill="#FFFFFF" d="M153.182,21.091v2.488h-0.396v-5.711h1.356c0.709,0,1.232,0.131,1.57,0.393
				c0.34,0.261,0.508,0.655,0.508,1.181c0,0.383-0.1,0.706-0.303,0.969c-0.201,0.263-0.508,0.452-0.92,0.566l1.551,2.602h-0.479
				l-1.471-2.488H153.182z M153.182,20.747h1.09c0.482,0,0.855-0.107,1.121-0.322c0.267-0.215,0.398-0.532,0.398-0.951
				c0-0.435-0.131-0.752-0.394-0.95c-0.26-0.197-0.684-0.297-1.271-0.297h-0.945V20.747L153.182,20.747z"/>
		</g>
	</g>
	<g>
		<g>
			<defs>
				<rect id="SVGID_41_" x="0" width="226.77" height="85.04"/>
			</defs>
			<clipPath id="SVGID_42_">
				<use xlink:href="#SVGID_41_"  overflow="visible"/>
			</clipPath>
			<path clip-path="url(#SVGID_42_)" fill="#FFFFFF" d="M166.184,20.7h2.105v2.605c-0.554,0.235-1.174,0.352-1.863,0.352
				c-0.902,0-1.592-0.254-2.072-0.764c-0.479-0.509-0.721-1.23-0.721-2.162c0-0.58,0.119-1.095,0.357-1.545
				c0.235-0.449,0.577-0.796,1.021-1.041c0.445-0.244,0.955-0.367,1.529-0.367c0.623,0,1.182,0.115,1.676,0.344l-0.16,0.359
				c-0.494-0.229-1.008-0.344-1.539-0.344c-0.752,0-1.35,0.233-1.791,0.698c-0.438,0.465-0.662,1.092-0.662,1.881
				c0,0.859,0.211,1.505,0.629,1.939c0.42,0.434,1.035,0.65,1.851,0.65c0.524,0,0.973-0.074,1.34-0.222v-2.008h-1.699V20.7
				L166.184,20.7z"/>
		</g>
	</g>
</g>
</svg>
